<?xml version="1.0" encoding="UTF-8"?>
<!DOCTYPE svg PUBLIC "-//W3C//DTD SVG 1.1//EN" "http://www.w3.org/Graphics/SVG/1.1/DTD/svg11.dtd">
<svg xmlns="http://www.w3.org/2000/svg" version="1.1" width="168px" height="168px" style="shape-rendering:geometricPrecision; text-rendering:geometricPrecision; image-rendering:optimizeQuality; fill-rule:evenodd; clip-rule:evenodd" xmlns:xlink="http://www.w3.org/1999/xlink">
<g><path style="opacity:0.822" fill="#dbd0af" d="M 106.5,20.5 C 105.167,20.5 103.833,20.5 102.5,20.5C 98.0021,16.1702 93.3354,12.0035 88.5,8C 85.1667,7.33333 81.8333,7.33333 78.5,8C 72.2918,12.7073 66.9585,18.2073 62.5,24.5C 60.127,26.5792 58.7936,29.2459 58.5,32.5C 57.5326,33.8062 56.1993,34.4729 54.5,34.5C 54.5077,29.6432 56.0077,25.3099 59,21.5C 64.8117,15.3567 70.9784,9.52334 77.5,4C 82.2867,3.12148 86.9534,3.45482 91.5,5C 95.9049,9.28292 100.405,13.4496 105,17.5C 105.513,18.5266 106.013,19.5266 106.5,20.5 Z"/></g>
<g><path style="opacity:1" fill="#cdbd8e" d="M 102.5,20.5 C 103.11,21.391 103.443,22.391 103.5,23.5C 102.373,22.8783 101.373,22.045 100.5,21C 89.1667,20.3333 77.8333,20.3333 66.5,21C 65.8971,23.0714 64.5638,24.2381 62.5,24.5C 66.9585,18.2073 72.2918,12.7073 78.5,8C 81.8333,7.33333 85.1667,7.33333 88.5,8C 93.3354,12.0035 98.0021,16.1702 102.5,20.5 Z"/></g>
<g><path style="opacity:0.825" fill="#dbceab" d="M 102.5,20.5 C 103.833,20.5 105.167,20.5 106.5,20.5C 111.262,24.7072 113.262,30.0405 112.5,36.5C 111.5,36.5 110.5,36.5 109.5,36.5C 109.768,34.901 109.434,33.5676 108.5,32.5C 108.116,28.7275 106.45,25.7275 103.5,23.5C 103.443,22.391 103.11,21.391 102.5,20.5 Z"/></g>
<g><path style="opacity:1" fill="#cdba87" d="M 103.5,23.5 C 106.45,25.7275 108.116,28.7275 108.5,32.5C 108.5,34.5 108.5,36.5 108.5,38.5C 107.549,37.0813 107.216,35.4147 107.5,33.5C 91.5,33.5 75.5,33.5 59.5,33.5C 59.7845,35.4147 59.4511,37.0813 58.5,38.5C 58.5,36.5 58.5,34.5 58.5,32.5C 58.7936,29.2459 60.127,26.5792 62.5,24.5C 64.5638,24.2381 65.8971,23.0714 66.5,21C 77.8333,20.3333 89.1667,20.3333 100.5,21C 101.373,22.045 102.373,22.8783 103.5,23.5 Z"/></g>
<g><path style="opacity:1" fill="#cdb780" d="M 108.5,38.5 C 109.369,40.717 109.702,43.0504 109.5,45.5C 108.596,44.791 108.263,43.791 108.5,42.5C 91.423,42.1816 74.423,42.5149 57.5,43.5C 57.2155,41.5853 57.5489,39.9187 58.5,38.5C 59.4511,37.0813 59.7845,35.4147 59.5,33.5C 75.5,33.5 91.5,33.5 107.5,33.5C 107.216,35.4147 107.549,37.0813 108.5,38.5 Z"/></g>
<g><path style="opacity:0.868" fill="#dbcca5" d="M 58.5,32.5 C 58.5,34.5 58.5,36.5 58.5,38.5C 57.5489,39.9187 57.2155,41.5853 57.5,43.5C 56.1667,43.5 54.8333,43.5 53.5,43.5C 54.1587,40.5448 54.4921,37.5448 54.5,34.5C 56.1993,34.4729 57.5326,33.8062 58.5,32.5 Z"/></g>
<g><path style="opacity:0.855" fill="#dbcba2" d="M 108.5,32.5 C 109.434,33.5676 109.768,34.901 109.5,36.5C 110.5,36.5 111.5,36.5 112.5,36.5C 113.074,41.2858 114.074,45.9525 115.5,50.5C 114.167,50.5 112.833,50.5 111.5,50.5C 110.976,48.6943 110.309,47.0276 109.5,45.5C 109.702,43.0504 109.369,40.717 108.5,38.5C 108.5,36.5 108.5,34.5 108.5,32.5 Z"/></g>
<g><path style="opacity:1" fill="#cdb37a" d="M 109.5,45.5 C 110.309,47.0276 110.976,48.6943 111.5,50.5C 111.833,51.8333 112.167,53.1667 112.5,54.5C 111.522,54.189 110.855,53.5223 110.5,52.5C 92.5,51.1667 74.5,51.1667 56.5,52.5C 56.1445,53.5223 55.4778,54.189 54.5,54.5C 55.6557,50.8772 56.6557,47.2106 57.5,43.5C 74.423,42.5149 91.423,42.1816 108.5,42.5C 108.263,43.791 108.596,44.791 109.5,45.5 Z"/></g>
<g><path style="opacity:0.816" fill="#dbc89b" d="M 53.5,43.5 C 54.8333,43.5 56.1667,43.5 57.5,43.5C 56.6557,47.2106 55.6557,50.8772 54.5,54.5C 54.1667,55.1667 53.8333,55.8333 53.5,56.5C 52.1667,56.5 50.8333,56.5 49.5,56.5C 51.2336,52.2986 52.5669,47.9652 53.5,43.5 Z"/></g>
<g><path style="opacity:1" fill="#ccb074" d="M 112.5,54.5 C 113.11,55.391 113.443,56.391 113.5,57.5C 112.711,57.2172 112.044,56.7172 111.5,56C 92.8333,55.3333 74.1667,55.3333 55.5,56C 54.9558,56.7172 54.2891,57.2172 53.5,57.5C 53.5,57.1667 53.5,56.8333 53.5,56.5C 53.8333,55.8333 54.1667,55.1667 54.5,54.5C 55.4778,54.189 56.1445,53.5223 56.5,52.5C 74.5,51.1667 92.5,51.1667 110.5,52.5C 110.855,53.5223 111.522,54.189 112.5,54.5 Z"/></g>
<g><path style="opacity:1" fill="#caac71" d="M 113.5,57.5 C 114.737,58.9649 115.737,60.6316 116.5,62.5C 116.5,62.8333 116.5,63.1667 116.5,63.5C 113.073,61.8232 110.073,62.1565 107.5,64.5C 105.159,62.3288 102.493,60.6621 99.5,59.5C 96.895,60.7695 94.5616,62.4361 92.5,64.5C 89.9134,63.1836 86.9134,62.517 83.5,62.5C 80.0866,62.517 77.0866,63.1836 74.5,64.5C 72.4384,62.4361 70.105,60.7695 67.5,59.5C 65.0139,60.5761 62.6805,61.9094 60.5,63.5C 57.2693,62.2185 53.9359,62.2185 50.5,63.5C 50.9925,61.1815 51.9925,59.1815 53.5,57.5C 54.2891,57.2172 54.9558,56.7172 55.5,56C 74.1667,55.3333 92.8333,55.3333 111.5,56C 112.044,56.7172 112.711,57.2172 113.5,57.5 Z"/></g>
<g><path style="opacity:0.81" fill="#dac593" d="M 111.5,50.5 C 112.833,50.5 114.167,50.5 115.5,50.5C 116.975,54.7835 118.975,58.7835 121.5,62.5C 119.833,62.5 118.167,62.5 116.5,62.5C 115.737,60.6316 114.737,58.9649 113.5,57.5C 113.443,56.391 113.11,55.391 112.5,54.5C 112.167,53.1667 111.833,51.8333 111.5,50.5 Z"/></g>
<g><path style="opacity:0.816" fill="#d7c28c" d="M 49.5,56.5 C 50.8333,56.5 52.1667,56.5 53.5,56.5C 53.5,56.8333 53.5,57.1667 53.5,57.5C 51.9925,59.1815 50.9925,61.1815 50.5,63.5C 48.1938,66.4729 45.5272,69.1395 42.5,71.5C 40.8333,71.5 39.1667,71.5 37.5,71.5C 42.2905,67.0525 46.2905,62.0525 49.5,56.5 Z"/></g>
<g><path style="opacity:0.823" fill="#d6c18b" d="M 74.5,64.5 C 76.1667,66.5 77.8333,68.5 79.5,70.5C 78.4324,71.4345 77.099,71.7678 75.5,71.5C 72.8202,68.9875 69.9868,66.6541 67,64.5C 64.0135,66.3201 61.5135,68.6534 59.5,71.5C 57.901,71.7678 56.5676,71.4345 55.5,70.5C 56.9213,67.9906 58.5879,65.6572 60.5,63.5C 62.6805,61.9094 65.0139,60.5761 67.5,59.5C 70.105,60.7695 72.4384,62.4361 74.5,64.5 Z"/></g>
<g><path style="opacity:0.823" fill="#d6c18b" d="M 107.5,64.5 C 109.226,66.2279 110.559,68.2279 111.5,70.5C 110.432,71.4345 109.099,71.7678 107.5,71.5C 105.486,68.6534 102.986,66.3201 100,64.5C 97.683,65.9852 95.5164,67.6519 93.5,69.5C 91.901,69.7678 90.5676,69.4345 89.5,68.5C 90.5,67.1667 91.5,65.8333 92.5,64.5C 94.5616,62.4361 96.895,60.7695 99.5,59.5C 102.493,60.6621 105.159,62.3288 107.5,64.5 Z"/></g>
<g><path style="opacity:1" fill="#c6a86c" d="M 92.5,64.5 C 91.5,65.8333 90.5,67.1667 89.5,68.5C 87.5193,70.1436 85.5193,71.8103 83.5,73.5C 82.1482,72.4756 80.8149,71.4756 79.5,70.5C 77.8333,68.5 76.1667,66.5 74.5,64.5C 77.0866,63.1836 80.0866,62.517 83.5,62.5C 86.9134,62.517 89.9134,63.1836 92.5,64.5 Z"/></g>
<g><path style="opacity:1" fill="#c4a66b" d="M 60.5,63.5 C 58.5879,65.6572 56.9213,67.9906 55.5,70.5C 53.744,72.249 52.4106,74.249 51.5,76.5C 51.5,75.5 51.5,74.5 51.5,73.5C 47.2273,73.081 43.2273,73.7476 39.5,75.5C 40.5,74.1667 41.5,72.8333 42.5,71.5C 45.5272,69.1395 48.1938,66.4729 50.5,63.5C 53.9359,62.2185 57.2693,62.2185 60.5,63.5 Z"/></g>
<g><path style="opacity:1" fill="#c4a66a" d="M 116.5,63.5 C 119.471,66.8076 122.471,70.141 125.5,73.5C 121.671,72.931 118.337,73.5977 115.5,75.5C 114.167,73.8333 112.833,72.1667 111.5,70.5C 110.559,68.2279 109.226,66.2279 107.5,64.5C 110.073,62.1565 113.073,61.8232 116.5,63.5 Z"/></g>
<g><path style="opacity:0.765" fill="#d4bf86" d="M 89.5,68.5 C 90.5676,69.4345 91.901,69.7678 93.5,69.5C 90.5211,73.1456 87.1877,76.479 83.5,79.5C 80.4789,77.1456 77.8123,74.4789 75.5,71.5C 77.099,71.7678 78.4324,71.4345 79.5,70.5C 80.8149,71.4756 82.1482,72.4756 83.5,73.5C 85.5193,71.8103 87.5193,70.1436 89.5,68.5 Z"/></g>
<g><path style="opacity:0.807" fill="#d4bf87" d="M 116.5,63.5 C 116.5,63.1667 116.5,62.8333 116.5,62.5C 118.167,62.5 119.833,62.5 121.5,62.5C 126.167,67.5 130.833,72.5 135.5,77.5C 133.833,77.5 132.167,77.5 130.5,77.5C 128.833,76.1667 127.167,74.8333 125.5,73.5C 122.471,70.141 119.471,66.8076 116.5,63.5 Z"/></g>
<g><path style="opacity:1" fill="#bfa165" d="M 51.5,76.5 C 50.7659,77.7079 50.4326,79.0413 50.5,80.5C 49.8333,82.1667 49.1667,83.8333 48.5,85.5C 48.5,84.1667 48.5,82.8333 48.5,81.5C 42.5817,80.989 36.9151,81.6557 31.5,83.5C 33.8333,80.5 36.5,77.8333 39.5,75.5C 43.2273,73.7476 47.2273,73.081 51.5,73.5C 51.5,74.5 51.5,75.5 51.5,76.5 Z"/></g>
<g><path style="opacity:1" fill="#c0a266" d="M 125.5,73.5 C 127.167,74.8333 128.833,76.1667 130.5,77.5C 130.833,78.1667 131.167,78.8333 131.5,79.5C 126.85,78.2805 122.183,78.2805 117.5,79.5C 118.348,81.4086 118.682,83.4086 118.5,85.5C 118.167,85.5 117.833,85.5 117.5,85.5C 117.041,82.1226 116.374,78.7893 115.5,75.5C 118.337,73.5977 121.671,72.931 125.5,73.5 Z"/></g>
<g><path style="opacity:0.805" fill="#d1bc81" d="M 111.5,70.5 C 112.833,72.1667 114.167,73.8333 115.5,75.5C 116.374,78.7893 117.041,82.1226 117.5,85.5C 116.5,85.5 115.5,85.5 114.5,85.5C 112.921,80.4124 110.588,75.7457 107.5,71.5C 109.099,71.7678 110.432,71.4345 111.5,70.5 Z"/></g>
<g><path style="opacity:0.809" fill="#d1bc82" d="M 55.5,70.5 C 56.5676,71.4345 57.901,71.7678 59.5,71.5C 57.4854,74.8691 55.4854,78.2024 53.5,81.5C 52.209,81.7373 51.209,81.404 50.5,80.5C 50.4326,79.0413 50.7659,77.7079 51.5,76.5C 52.4106,74.249 53.744,72.249 55.5,70.5 Z"/></g>
<g><path style="opacity:0.898" fill="#cfba7d" d="M 15.5,84.5 C 13.5,84.5 11.5,84.5 9.5,84.5C 9.16667,84.5 8.83333,84.5 8.5,84.5C 8.44001,83.9569 8.10667,83.6236 7.5,83.5C 6.51998,86.0865 6.18665,88.7531 6.5,91.5C 5.5,91.5 4.5,91.5 3.5,91.5C 3.33398,86.1563 3.50065,80.8229 4,75.5C 8.17452,78.1578 12.0078,81.1578 15.5,84.5 Z"/></g>
<g><path style="opacity:0.792" fill="#d0bb80" d="M 37.5,71.5 C 39.1667,71.5 40.8333,71.5 42.5,71.5C 41.5,72.8333 40.5,74.1667 39.5,75.5C 36.5,77.8333 33.8333,80.5 31.5,83.5C 30.5,84.1667 29.5,84.8333 28.5,85.5C 26.8333,85.5 25.1667,85.5 23.5,85.5C 27.8333,80.5 32.5,75.8333 37.5,71.5 Z"/></g>
<g><path style="opacity:1" fill="#b99b60" d="M 48.5,85.5 C 48.5,87.5 48.5,89.5 48.5,91.5C 48.5,93.5 48.5,95.5 48.5,97.5C 47.5206,94.3752 47.1872,91.0419 47.5,87.5C 39.9296,86.9463 32.5963,87.6129 25.5,89.5C 26.5,88.1667 27.5,86.8333 28.5,85.5C 29.5,84.8333 30.5,84.1667 31.5,83.5C 36.9151,81.6557 42.5817,80.989 48.5,81.5C 48.5,82.8333 48.5,84.1667 48.5,85.5 Z"/></g>
<g><path style="opacity:1" fill="#ba9c60" d="M 131.5,79.5 C 134.5,81.8333 137.167,84.5 139.5,87.5C 132.833,87.5 126.167,87.5 119.5,87.5C 119.815,91.3714 119.482,95.0381 118.5,98.5C 118.5,98.1667 118.5,97.8333 118.5,97.5C 118.5,93.5 118.5,89.5 118.5,85.5C 118.682,83.4086 118.348,81.4086 117.5,79.5C 122.183,78.2805 126.85,78.2805 131.5,79.5 Z"/></g>
<g><path style="opacity:0.882" fill="#ccb678" d="M 9.5,84.5 C 11.5,84.5 13.5,84.5 15.5,84.5C 17.4258,85.2423 19.2591,86.2423 21,87.5C 21.7083,86.6195 22.5416,85.9528 23.5,85.5C 25.1667,85.5 26.8333,85.5 28.5,85.5C 27.5,86.8333 26.5,88.1667 25.5,89.5C 23.3985,91.1089 21.0652,91.6089 18.5,91C 15.4328,88.8118 12.4328,86.6452 9.5,84.5 Z"/></g>
<g><path style="opacity:0.843" fill="#ccb779" d="M 50.5,80.5 C 51.209,81.404 52.209,81.7373 53.5,81.5C 52.9492,84.8067 52.6159,88.1401 52.5,91.5C 51.1667,91.5 49.8333,91.5 48.5,91.5C 48.5,89.5 48.5,87.5 48.5,85.5C 49.1667,83.8333 49.8333,82.1667 50.5,80.5 Z"/></g>
<g><path style="opacity:0.889" fill="#cdb87b" d="M 163.5,91.5 C 162.5,91.5 161.5,91.5 160.5,91.5C 160.813,88.7531 160.48,86.0865 159.5,83.5C 158.893,83.6236 158.56,83.9569 158.5,84.5C 154.429,87.2174 150.096,89.5507 145.5,91.5C 143.235,90.5684 141.235,89.2351 139.5,87.5C 137.167,84.5 134.5,81.8333 131.5,79.5C 131.167,78.8333 130.833,78.1667 130.5,77.5C 132.167,77.5 133.833,77.5 135.5,77.5C 139.131,80.6293 142.631,83.9626 146,87.5C 151.944,83.8888 157.611,79.8888 163,75.5C 163.499,80.8229 163.666,86.1563 163.5,91.5 Z"/></g>
<g><path style="opacity:1" fill="#bea567" d="M 8.5,84.5 C 7.52056,87.6248 7.18723,90.9581 7.5,94.5C 7.5,95.5 7.5,96.5 7.5,97.5C 7.5,98.8333 7.5,100.167 7.5,101.5C 6.52056,98.3752 6.18723,95.0419 6.5,91.5C 6.18665,88.7531 6.51998,86.0865 7.5,83.5C 8.10667,83.6236 8.44001,83.9569 8.5,84.5 Z"/></g>
<g><path style="opacity:1" fill="#bea567" d="M 158.5,84.5 C 158.56,83.9569 158.893,83.6236 159.5,83.5C 160.48,86.0865 160.813,88.7531 160.5,91.5C 160.5,93.5 160.5,95.5 160.5,97.5C 160.768,99.099 160.434,100.432 159.5,101.5C 159.5,99.1667 159.5,96.8333 159.5,94.5C 159.813,90.9581 159.479,87.6248 158.5,84.5 Z"/></g>
<g><path style="opacity:1" fill="#b3955b" d="M 8.5,84.5 C 8.83333,84.5 9.16667,84.5 9.5,84.5C 12.4328,86.6452 15.4328,88.8118 18.5,91C 21.0652,91.6089 23.3985,91.1089 25.5,89.5C 32.5963,87.6129 39.9296,86.9463 47.5,87.5C 47.1872,91.0419 47.5206,94.3752 48.5,97.5C 48.5,98.5 48.5,99.5 48.5,100.5C 48.5654,100.938 48.3988,101.272 48,101.5C 46.5952,100.269 45.4286,98.9361 44.5,97.5C 43.1564,92.4098 40.1564,90.7432 35.5,92.5C 34.5386,94.2646 34.2053,96.2646 34.5,98.5C 33.8333,98.5 33.5,98.1667 33.5,97.5C 33.5,96.5 33.5,95.5 33.5,94.5C 24.8333,94.5 16.1667,94.5 7.5,94.5C 7.18723,90.9581 7.52056,87.6248 8.5,84.5 Z"/></g>
<g><path style="opacity:1" fill="#b3965b" d="M 158.5,84.5 C 159.479,87.6248 159.813,90.9581 159.5,94.5C 150.833,94.5 142.167,94.5 133.5,94.5C 133.768,96.099 133.434,97.4324 132.5,98.5C 132.795,96.2646 132.461,94.2646 131.5,92.5C 127.417,90.5469 124.75,91.8802 123.5,96.5C 121.863,98.3162 120.363,100.316 119,102.5C 118.51,101.207 118.343,99.8734 118.5,98.5C 119.482,95.0381 119.815,91.3714 119.5,87.5C 126.167,87.5 132.833,87.5 139.5,87.5C 141.235,89.2351 143.235,90.5684 145.5,91.5C 150.096,89.5507 154.429,87.2174 158.5,84.5 Z"/></g>
<g><path style="opacity:0.927" fill="#c7b272" d="M 44.5,97.5 C 43.1667,97.5 41.8333,97.5 40.5,97.5C 39.6043,96.4937 38.9377,96.4937 38.5,97.5C 37.5,97.5 36.5,97.5 35.5,97.5C 35.5,95.8333 35.5,94.1667 35.5,92.5C 40.1564,90.7432 43.1564,92.4098 44.5,97.5 Z"/></g>
<g><path style="opacity:0.817" fill="#c9b474" d="M 68.5,97.5 C 66.1667,97.5 63.8333,97.5 61.5,97.5C 60.0478,92.7314 60.5478,88.0647 63,83.5C 64.7419,88.23 66.5753,92.8967 68.5,97.5 Z"/></g>
<g><path style="opacity:0.82" fill="#c9b474" d="M 106.5,97.5 C 103.833,97.5 101.167,97.5 98.5,97.5C 100.425,92.8967 102.258,88.23 104,83.5C 106.101,87.8743 106.935,92.5409 106.5,97.5 Z"/></g>
<g><path style="opacity:0.923" fill="#c9b575" d="M 114.5,85.5 C 115.5,85.5 116.5,85.5 117.5,85.5C 117.833,85.5 118.167,85.5 118.5,85.5C 118.5,89.5 118.5,93.5 118.5,97.5C 117.167,97.5 115.833,97.5 114.5,97.5C 115.199,93.5651 115.199,89.5651 114.5,85.5 Z"/></g>
<g><path style="opacity:0.934" fill="#c8b372" d="M 131.5,92.5 C 131.5,94.1667 131.5,95.8333 131.5,97.5C 130.5,97.5 129.5,97.5 128.5,97.5C 128.062,96.4937 127.396,96.4937 126.5,97.5C 125.209,97.7373 124.209,97.404 123.5,96.5C 124.75,91.8802 127.417,90.5469 131.5,92.5 Z"/></g>
<g><path style="opacity:1" fill="#c8b373" d="M 160.5,91.5 C 161.5,91.5 162.5,91.5 163.5,91.5C 163.5,93.5 163.5,95.5 163.5,97.5C 162.5,97.5 161.5,97.5 160.5,97.5C 160.5,95.5 160.5,93.5 160.5,91.5 Z"/></g>
<g><path style="opacity:1" fill="#af9156" d="M 7.5,94.5 C 16.1667,94.5 24.8333,94.5 33.5,94.5C 33.5,95.5 33.5,96.5 33.5,97.5C 24.8333,97.5 16.1667,97.5 7.5,97.5C 7.5,96.5 7.5,95.5 7.5,94.5 Z"/></g>
<g><path style="opacity:1" fill="#aa8d53" d="M 7.5,97.5 C 16.1667,97.5 24.8333,97.5 33.5,97.5C 33.5,98.1667 33.8333,98.5 34.5,98.5C 34.5,101.167 34.5,103.833 34.5,106.5C 26.4363,104.578 18.103,103.912 9.5,104.5C 9.5,105.833 9.5,107.167 9.5,108.5C 8.83333,107.5 8.16667,106.5 7.5,105.5C 7.5,104.167 7.5,102.833 7.5,101.5C 7.5,100.167 7.5,98.8333 7.5,97.5 Z"/></g>
<g><path style="opacity:0.836" fill="#c6b16f" d="M 48.5,91.5 C 49.8333,91.5 51.1667,91.5 52.5,91.5C 52.244,95.2693 52.5773,98.9359 53.5,102.5C 51.4458,102.635 49.7791,101.968 48.5,100.5C 48.5,99.5 48.5,98.5 48.5,97.5C 48.5,95.5 48.5,93.5 48.5,91.5 Z"/></g>
<g><path style="opacity:0.851" fill="#c4b06c" d="M 61.5,97.5 C 63.8333,97.5 66.1667,97.5 68.5,97.5C 70.0627,98.9448 71.396,100.611 72.5,102.5C 70.8333,102.5 69.1667,102.5 67.5,102.5C 66.3047,98.7139 65.638,98.7139 65.5,102.5C 64.1667,102.5 62.8333,102.5 61.5,102.5C 61.5,100.833 61.5,99.1667 61.5,97.5 Z"/></g>
<g><path style="opacity:0.831" fill="#c4b06c" d="M 98.5,97.5 C 101.167,97.5 103.833,97.5 106.5,97.5C 105.699,99.0418 105.366,100.708 105.5,102.5C 104.167,102.5 102.833,102.5 101.5,102.5C 101.214,100.067 100.548,100.067 99.5,102.5C 97.8333,102.5 96.1667,102.5 94.5,102.5C 95.604,100.611 96.9373,98.9448 98.5,97.5 Z"/></g>
<g><path style="opacity:1" fill="#ac8e54" d="M 159.5,94.5 C 159.5,96.8333 159.5,99.1667 159.5,101.5C 159.768,103.099 159.434,104.432 158.5,105.5C 158.5,104.5 158.5,103.5 158.5,102.5C 150.167,102.5 141.833,102.5 133.5,102.5C 133.768,104.099 133.434,105.432 132.5,106.5C 132.5,103.833 132.5,101.167 132.5,98.5C 133.434,97.4324 133.768,96.099 133.5,94.5C 142.167,94.5 150.833,94.5 159.5,94.5 Z"/></g>
<g><path style="opacity:1" fill="#b2985a" d="M 67.5,102.5 C 67.8333,103.167 68.1667,103.833 68.5,104.5C 67.6618,104.842 67.3284,105.508 67.5,106.5C 66.6554,105.329 65.9887,103.995 65.5,102.5C 65.638,98.7139 66.3047,98.7139 67.5,102.5 Z"/></g>
<g><path style="opacity:0.849" fill="#c3ae6a" d="M 123.5,96.5 C 124.209,97.404 125.209,97.7373 126.5,97.5C 125.331,100.511 123.664,103.178 121.5,105.5C 118.833,105.5 116.167,105.5 113.5,105.5C 114.092,102.873 114.425,100.206 114.5,97.5C 115.833,97.5 117.167,97.5 118.5,97.5C 118.5,97.8333 118.5,98.1667 118.5,98.5C 118.343,99.8734 118.51,101.207 119,102.5C 120.363,100.316 121.863,98.3162 123.5,96.5 Z"/></g>
<g><path style="opacity:0.765" fill="#c4b06c" d="M 3.5,91.5 C 4.5,91.5 5.5,91.5 6.5,91.5C 6.18723,95.0419 6.52056,98.3752 7.5,101.5C 7.5,102.833 7.5,104.167 7.5,105.5C 6.5,105.5 5.5,105.5 4.5,105.5C 3.51388,101.03 3.18054,96.3633 3.5,91.5 Z"/></g>
<g><path style="opacity:0.842" fill="#c1ad68" d="M 40.5,97.5 C 41.8333,97.5 43.1667,97.5 44.5,97.5C 45.4286,98.9361 46.5952,100.269 48,101.5C 48.3988,101.272 48.5654,100.938 48.5,100.5C 49.7791,101.968 51.4458,102.635 53.5,102.5C 53.9926,104.806 54.3259,107.139 54.5,109.5C 52.5,109.5 50.5,109.5 48.5,109.5C 45.3269,105.815 42.6602,101.815 40.5,97.5 Z"/></g>
<g><path style="opacity:0.763" fill="#c2ae68" d="M 160.5,97.5 C 161.5,97.5 162.5,97.5 163.5,97.5C 163.809,101.705 163.143,105.705 161.5,109.5C 160.209,109.737 159.209,109.404 158.5,108.5C 158.5,107.5 158.5,106.5 158.5,105.5C 159.434,104.432 159.768,103.099 159.5,101.5C 160.434,100.432 160.768,99.099 160.5,97.5 Z"/></g>
<g><path style="opacity:1" fill="#a3874d" d="M 34.5,106.5 C 34.5,107.833 34.5,109.167 34.5,110.5C 26.8333,110.5 19.1667,110.5 11.5,110.5C 11.5,111.5 11.5,112.5 11.5,113.5C 10.0687,112.22 9.40206,110.553 9.5,108.5C 9.5,107.167 9.5,105.833 9.5,104.5C 18.103,103.912 26.4363,104.578 34.5,106.5 Z"/></g>
<g><path style="opacity:1" fill="#a5884f" d="M 158.5,105.5 C 158.5,106.5 158.5,107.5 158.5,108.5C 157.833,109.5 157.167,110.5 156.5,111.5C 156.5,110.5 156.5,109.5 156.5,108.5C 148.5,108.5 140.5,108.5 132.5,108.5C 132.806,111.385 132.473,114.052 131.5,116.5C 131.5,115.833 131.5,115.167 131.5,114.5C 131.279,111.721 131.612,109.054 132.5,106.5C 133.434,105.432 133.768,104.099 133.5,102.5C 141.833,102.5 150.167,102.5 158.5,102.5C 158.5,103.5 158.5,104.5 158.5,105.5 Z"/></g>
<g><path style="opacity:0.979" fill="#bfaa65" d="M 131.5,92.5 C 132.461,94.2646 132.795,96.2646 132.5,98.5C 132.5,101.167 132.5,103.833 132.5,106.5C 131.612,109.054 131.279,111.721 131.5,114.5C 130.167,114.5 128.833,114.5 127.5,114.5C 128.22,108.862 128.553,103.196 128.5,97.5C 129.5,97.5 130.5,97.5 131.5,97.5C 131.5,95.8333 131.5,94.1667 131.5,92.5 Z"/></g>
<g><path style="opacity:1" fill="#aa8f53" d="M 101.5,102.5 C 100.677,105.48 99.3433,108.147 97.5,110.5C 97.5,109.167 96.8333,108.5 95.5,108.5C 96.8333,106.5 98.1667,104.5 99.5,102.5C 100.548,100.067 101.214,100.067 101.5,102.5 Z"/></g>
<g><path style="opacity:0.861" fill="#bca760" d="M 4.5,105.5 C 5.5,105.5 6.5,105.5 7.5,105.5C 8.16667,106.5 8.83333,107.5 9.5,108.5C 9.40206,110.553 10.0687,112.22 11.5,113.5C 12.2341,114.708 12.5674,116.041 12.5,117.5C 11.791,118.404 10.791,118.737 9.5,118.5C 6.87051,114.623 5.20384,110.29 4.5,105.5 Z"/></g>
<g><path style="opacity:0.769" fill="#bea964" d="M 35.5,92.5 C 35.5,94.1667 35.5,95.8333 35.5,97.5C 36.5,97.5 37.5,97.5 38.5,97.5C 38.447,103.196 38.7803,108.862 39.5,114.5C 38.1667,114.5 36.8333,114.5 35.5,114.5C 35.1667,113.167 34.8333,111.833 34.5,110.5C 34.5,109.167 34.5,107.833 34.5,106.5C 34.5,103.833 34.5,101.167 34.5,98.5C 34.2053,96.2646 34.5386,94.2646 35.5,92.5 Z"/></g>
<g><path style="opacity:0.837" fill="#bca861" d="M 61.5,102.5 C 62.8333,102.5 64.1667,102.5 65.5,102.5C 65.9887,103.995 66.6554,105.329 67.5,106.5C 68.6589,110.151 70.3256,113.485 72.5,116.5C 72.5,116.833 72.5,117.167 72.5,117.5C 71.4324,118.434 70.099,118.768 68.5,118.5C 65.6167,113.401 63.2834,108.067 61.5,102.5 Z"/></g>
<g><path style="opacity:0.819" fill="#bca861" d="M 67.5,102.5 C 69.1667,102.5 70.8333,102.5 72.5,102.5C 79.8333,114.5 87.1667,114.5 94.5,102.5C 96.1667,102.5 97.8333,102.5 99.5,102.5C 98.1667,104.5 96.8333,106.5 95.5,108.5C 90.7565,115.223 84.4231,117.223 76.5,114.5C 73.8225,111.127 71.1558,107.794 68.5,104.5C 68.1667,103.833 67.8333,103.167 67.5,102.5 Z"/></g>
<g><path style="opacity:0.856" fill="#bca861" d="M 101.5,102.5 C 102.833,102.5 104.167,102.5 105.5,102.5C 103.717,108.067 101.383,113.401 98.5,118.5C 96.901,118.768 95.5676,118.434 94.5,117.5C 95.7729,115.287 96.7729,112.954 97.5,110.5C 99.3433,108.147 100.677,105.48 101.5,102.5 Z"/></g>
<g><path style="opacity:0.728" fill="#beaa62" d="M 113.5,105.5 C 116.167,105.5 118.833,105.5 121.5,105.5C 119.885,108.45 117.885,111.116 115.5,113.5C 113.833,113.5 112.167,113.5 110.5,113.5C 111.501,110.828 112.501,108.162 113.5,105.5 Z"/></g>
<g><path style="opacity:1" fill="#a2864c" d="M 68.5,104.5 C 71.1558,107.794 73.8225,111.127 76.5,114.5C 74.5168,114.157 73.1834,114.824 72.5,116.5C 70.3256,113.485 68.6589,110.151 67.5,106.5C 67.3284,105.508 67.6618,104.842 68.5,104.5 Z"/></g>
<g><path style="opacity:1" fill="#9e8149" d="M 156.5,111.5 C 155.37,113.315 154.704,115.315 154.5,117.5C 153.143,118.59 152.143,119.924 151.5,121.5C 151.5,120.5 151.5,119.5 151.5,118.5C 144.833,118.5 138.167,118.5 131.5,118.5C 131.737,119.791 131.404,120.791 130.5,121.5C 130.366,119.708 130.699,118.042 131.5,116.5C 132.473,114.052 132.806,111.385 132.5,108.5C 140.5,108.5 148.5,108.5 156.5,108.5C 156.5,109.5 156.5,110.5 156.5,111.5 Z"/></g>
<g><path style="opacity:1" fill="#9c8047" d="M 34.5,110.5 C 34.8333,111.833 35.1667,113.167 35.5,114.5C 35.9926,116.806 36.3259,119.139 36.5,121.5C 35.596,120.791 35.2627,119.791 35.5,118.5C 28.8333,118.5 22.1667,118.5 15.5,118.5C 15.5,119.5 15.5,120.5 15.5,121.5C 14.8571,119.924 13.8571,118.59 12.5,117.5C 12.5674,116.041 12.2341,114.708 11.5,113.5C 11.5,112.5 11.5,111.5 11.5,110.5C 19.1667,110.5 26.8333,110.5 34.5,110.5 Z"/></g>
<g><path style="opacity:0.612" fill="#baa55c" d="M 48.5,109.5 C 50.5,109.5 52.5,109.5 54.5,109.5C 56.5357,113.899 58.8691,118.233 61.5,122.5C 61.1667,122.833 60.8333,123.167 60.5,123.5C 56.1322,119.133 52.1322,114.467 48.5,109.5 Z"/></g>
<g><path style="opacity:1" fill="#9d8148" d="M 95.5,108.5 C 96.8333,108.5 97.5,109.167 97.5,110.5C 96.7729,112.954 95.7729,115.287 94.5,117.5C 93.5,118.833 92.5,120.167 91.5,121.5C 91.5,120.5 91.5,119.5 91.5,118.5C 86.1667,118.5 80.8333,118.5 75.5,118.5C 75.5,119.5 75.5,120.5 75.5,121.5C 74.5,120.167 73.5,118.833 72.5,117.5C 72.5,117.167 72.5,116.833 72.5,116.5C 73.1834,114.824 74.5168,114.157 76.5,114.5C 84.4231,117.223 90.7565,115.223 95.5,108.5 Z"/></g>
<g><path style="opacity:0.617" fill="#b9a45b" d="M 110.5,113.5 C 112.167,113.5 113.833,113.5 115.5,113.5C 112.494,116.839 109.494,120.172 106.5,123.5C 106.167,123.167 105.833,122.833 105.5,122.5C 107.432,119.634 109.099,116.634 110.5,113.5 Z"/></g>
<g><path style="opacity:0.846" fill="#b9a55d" d="M 158.5,108.5 C 159.209,109.404 160.209,109.737 161.5,109.5C 160.925,112.912 159.592,115.912 157.5,118.5C 156.209,118.737 155.209,118.404 154.5,117.5C 154.704,115.315 155.37,113.315 156.5,111.5C 157.167,110.5 157.833,109.5 158.5,108.5 Z"/></g>
<g><path style="opacity:0.817" fill="#b59d55" d="M 12.5,117.5 C 13.8571,118.59 14.8571,119.924 15.5,121.5C 16.1667,122.833 16.8333,124.167 17.5,125.5C 16.4324,126.434 15.099,126.768 13.5,126.5C 11.6418,124.117 10.3084,121.45 9.5,118.5C 10.791,118.737 11.791,118.404 12.5,117.5 Z"/></g>
<g><path style="opacity:1" fill="#947841" d="M 36.5,121.5 C 37.475,124.067 38.1417,126.733 38.5,129.5C 38.5,129.833 38.5,130.167 38.5,130.5C 35.9384,129.278 33.1051,128.611 30,128.5C 27.0706,128.525 24.5706,129.191 22.5,130.5C 20.4727,129.139 18.806,127.473 17.5,125.5C 16.8333,124.167 16.1667,122.833 15.5,121.5C 15.5,120.5 15.5,119.5 15.5,118.5C 22.1667,118.5 28.8333,118.5 35.5,118.5C 35.2627,119.791 35.596,120.791 36.5,121.5 Z"/></g>
<g><path style="opacity:1" fill="#957941" d="M 91.5,121.5 C 91.6287,123.216 91.962,124.883 92.5,126.5C 86.5,125.167 80.5,125.167 74.5,126.5C 75.038,124.883 75.3713,123.216 75.5,121.5C 75.5,120.5 75.5,119.5 75.5,118.5C 80.8333,118.5 86.1667,118.5 91.5,118.5C 91.5,119.5 91.5,120.5 91.5,121.5 Z"/></g>
<g><path style="opacity:1" fill="#947841" d="M 151.5,121.5 C 150.833,122.833 150.167,124.167 149.5,125.5C 148.194,127.473 146.527,129.139 144.5,130.5C 142.429,129.191 139.929,128.525 137,128.5C 133.895,128.611 131.062,129.278 128.5,130.5C 128.5,130.167 128.5,129.833 128.5,129.5C 128.858,126.733 129.525,124.067 130.5,121.5C 131.404,120.791 131.737,119.791 131.5,118.5C 138.167,118.5 144.833,118.5 151.5,118.5C 151.5,119.5 151.5,120.5 151.5,121.5 Z"/></g>
<g><path style="opacity:0.81" fill="#b59d55" d="M 154.5,117.5 C 155.209,118.404 156.209,118.737 157.5,118.5C 156.692,121.45 155.358,124.117 153.5,126.5C 151.901,126.768 150.568,126.434 149.5,125.5C 150.167,124.167 150.833,122.833 151.5,121.5C 152.143,119.924 153.143,118.59 154.5,117.5 Z"/></g>
<g><path style="opacity:0.817" fill="#b59d55" d="M 35.5,114.5 C 36.8333,114.5 38.1667,114.5 39.5,114.5C 40.1168,119.584 41.1168,124.584 42.5,129.5C 41.1667,129.5 39.8333,129.5 38.5,129.5C 38.1417,126.733 37.475,124.067 36.5,121.5C 36.3259,119.139 35.9926,116.806 35.5,114.5 Z"/></g>
<g><path style="opacity:0.812" fill="#b59c55" d="M 72.5,117.5 C 73.5,118.833 74.5,120.167 75.5,121.5C 75.3713,123.216 75.038,124.883 74.5,126.5C 72.8333,126.5 71.1667,126.5 69.5,126.5C 71.8184,123.701 71.4851,121.034 68.5,118.5C 70.099,118.768 71.4324,118.434 72.5,117.5 Z"/></g>
<g><path style="opacity:0.755" fill="#b49c54" d="M 94.5,117.5 C 95.5676,118.434 96.901,118.768 98.5,118.5C 95.5149,121.034 95.1816,123.701 97.5,126.5C 96.1667,126.5 94.8333,126.5 93.5,126.5C 93.1667,126.5 92.8333,126.5 92.5,126.5C 91.962,124.883 91.6287,123.216 91.5,121.5C 92.5,120.167 93.5,118.833 94.5,117.5 Z"/></g>
<g><path style="opacity:0.82" fill="#b59d55" d="M 127.5,114.5 C 128.833,114.5 130.167,114.5 131.5,114.5C 131.5,115.167 131.5,115.833 131.5,116.5C 130.699,118.042 130.366,119.708 130.5,121.5C 129.525,124.067 128.858,126.733 128.5,129.5C 127.167,129.5 125.833,129.5 124.5,129.5C 125.883,124.584 126.883,119.584 127.5,114.5 Z"/></g>
<g><path style="opacity:1" fill="#8f733c" d="M 92.5,126.5 C 92.8333,126.5 93.1667,126.5 93.5,126.5C 93.8925,128.284 94.5592,129.95 95.5,131.5C 95.5,131.833 95.5,132.167 95.5,132.5C 87.5,131.167 79.5,131.167 71.5,132.5C 71.5,132.167 71.5,131.833 71.5,131.5C 72.2485,129.668 73.2485,128.001 74.5,126.5C 80.5,125.167 86.5,125.167 92.5,126.5 Z"/></g>
<g><path style="opacity:0.832" fill="#af934d" d="M 149.5,125.5 C 150.568,126.434 151.901,126.768 153.5,126.5C 151.727,129.06 149.727,131.393 147.5,133.5C 145.901,133.768 144.568,133.434 143.5,132.5C 143.833,131.833 144.167,131.167 144.5,130.5C 146.527,129.139 148.194,127.473 149.5,125.5 Z"/></g>
<g><path style="opacity:0.832" fill="#af934d" d="M 17.5,125.5 C 18.806,127.473 20.4727,129.139 22.5,130.5C 22.8333,131.167 23.1667,131.833 23.5,132.5C 22.4324,133.434 21.099,133.768 19.5,133.5C 17.2733,131.393 15.2733,129.06 13.5,126.5C 15.099,126.768 16.4324,126.434 17.5,125.5 Z"/></g>
<g><path style="opacity:0.846" fill="#b0944d" d="M 69.5,126.5 C 71.1667,126.5 72.8333,126.5 74.5,126.5C 73.2485,128.001 72.2485,129.668 71.5,131.5C 70.2209,132.968 68.5542,133.635 66.5,133.5C 67.2271,131.046 68.2271,128.713 69.5,126.5 Z"/></g>
<g><path style="opacity:0.865" fill="#b0944e" d="M 93.5,126.5 C 94.8333,126.5 96.1667,126.5 97.5,126.5C 98.7729,128.713 99.7729,131.046 100.5,133.5C 98.4458,133.635 96.7791,132.968 95.5,131.5C 94.5592,129.95 93.8925,128.284 93.5,126.5 Z"/></g>
<g><path style="opacity:1" fill="#8d713b" d="M 38.5,130.5 C 39.5375,131.93 40.2041,133.597 40.5,135.5C 36.2529,134.398 31.9196,134.232 27.5,135C 28.2524,135.671 28.5858,136.504 28.5,137.5C 26.4727,136.139 24.806,134.473 23.5,132.5C 23.1667,131.833 22.8333,131.167 22.5,130.5C 24.5706,129.191 27.0706,128.525 30,128.5C 33.1051,128.611 35.9384,129.278 38.5,130.5 Z"/></g>
<g><path style="opacity:1" fill="#8c713b" d="M 144.5,130.5 C 144.167,131.167 143.833,131.833 143.5,132.5C 142.167,133.833 140.833,135.167 139.5,136.5C 137.952,135.206 135.952,134.539 133.5,134.5C 131.079,134.56 128.746,134.893 126.5,135.5C 126.796,133.597 127.463,131.93 128.5,130.5C 131.062,129.278 133.895,128.611 137,128.5C 139.929,128.525 142.429,129.191 144.5,130.5 Z"/></g>
<g><path style="opacity:1" fill="#876b35" d="M 40.5,135.5 C 41.1667,137.167 41.8333,138.833 42.5,140.5C 43.9009,143.634 45.5675,146.634 47.5,149.5C 47.1667,149.833 46.8333,150.167 46.5,150.5C 44.1495,149.139 41.8162,147.806 39.5,146.5C 36.3579,144.42 33.3579,142.086 30.5,139.5C 30.1667,138.5 29.5,137.833 28.5,137.5C 28.5858,136.504 28.2524,135.671 27.5,135C 31.9196,134.232 36.2529,134.398 40.5,135.5 Z"/></g>
<g><path style="opacity:1" fill="#896e38" d="M 95.5,132.5 C 95.0435,135.406 94.0435,138.072 92.5,140.5C 91.8333,141.167 91.1667,141.833 90.5,142.5C 90.5,141.5 90.5,140.5 90.5,139.5C 85.8333,139.5 81.1667,139.5 76.5,139.5C 76.5,140.5 76.5,141.5 76.5,142.5C 73.9986,139.643 72.332,136.309 71.5,132.5C 79.5,131.167 87.5,131.167 95.5,132.5 Z"/></g>
<g><path style="opacity:1" fill="#896d37" d="M 139.5,136.5 C 138.167,137.167 137.167,138.167 136.5,139.5C 135.5,140.167 134.5,140.833 133.5,141.5C 131.365,139.631 128.698,138.964 125.5,139.5C 125.433,138.041 125.766,136.708 126.5,135.5C 128.746,134.893 131.079,134.56 133.5,134.5C 135.952,134.539 137.952,135.206 139.5,136.5 Z"/></g>
<g><path style="opacity:0.901" fill="#ab8c47" d="M 23.5,132.5 C 24.806,134.473 26.4727,136.139 28.5,137.5C 29.5,137.833 30.1667,138.5 30.5,139.5C 29.4324,140.434 28.099,140.768 26.5,140.5C 23.8333,138.5 21.5,136.167 19.5,133.5C 21.099,133.768 22.4324,133.434 23.5,132.5 Z"/></g>
<g><path style="opacity:0.855" fill="#ac8e48" d="M 38.5,130.5 C 38.5,130.167 38.5,129.833 38.5,129.5C 39.8333,129.5 41.1667,129.5 42.5,129.5C 43.8319,133.162 45.1652,136.828 46.5,140.5C 45.1667,140.5 43.8333,140.5 42.5,140.5C 41.8333,138.833 41.1667,137.167 40.5,135.5C 40.2041,133.597 39.5375,131.93 38.5,130.5 Z"/></g>
<g><path style="opacity:0.8" fill="#aa8b46" d="M 71.5,131.5 C 71.5,131.833 71.5,132.167 71.5,132.5C 72.332,136.309 73.9986,139.643 76.5,142.5C 76.5,143.167 76.5,143.833 76.5,144.5C 75.1667,144.5 73.8333,144.5 72.5,144.5C 70.246,140.993 68.246,137.327 66.5,133.5C 68.5542,133.635 70.2209,132.968 71.5,131.5 Z"/></g>
<g><path style="opacity:0.81" fill="#ab8c47" d="M 95.5,131.5 C 96.7791,132.968 98.4458,133.635 100.5,133.5C 99.4043,136.032 98.0709,138.365 96.5,140.5C 95.1667,140.5 93.8333,140.5 92.5,140.5C 94.0435,138.072 95.0435,135.406 95.5,132.5C 95.5,132.167 95.5,131.833 95.5,131.5 Z"/></g>
<g><path style="opacity:0.859" fill="#ac8d47" d="M 124.5,129.5 C 125.833,129.5 127.167,129.5 128.5,129.5C 128.5,129.833 128.5,130.167 128.5,130.5C 127.463,131.93 126.796,133.597 126.5,135.5C 125.766,136.708 125.433,138.041 125.5,139.5C 124.599,140.29 123.932,141.29 123.5,142.5C 122.167,142.5 120.833,142.5 119.5,142.5C 121.364,138.24 123.031,133.907 124.5,129.5 Z"/></g>
<g><path style="opacity:0.893" fill="#ab8c47" d="M 143.5,132.5 C 144.568,133.434 145.901,133.768 147.5,133.5C 145.5,136.167 143.167,138.5 140.5,140.5C 138.901,140.768 137.568,140.434 136.5,139.5C 137.167,138.167 138.167,137.167 139.5,136.5C 140.833,135.167 142.167,133.833 143.5,132.5 Z"/></g>
<g><path style="opacity:1" fill="#826732" d="M 90.5,142.5 C 89.5592,144.05 88.8925,145.716 88.5,147.5C 87.0171,149.9 85.3504,152.234 83.5,154.5C 81.157,151.138 78.8236,147.804 76.5,144.5C 76.5,143.833 76.5,143.167 76.5,142.5C 76.5,141.5 76.5,140.5 76.5,139.5C 81.1667,139.5 85.8333,139.5 90.5,139.5C 90.5,140.5 90.5,141.5 90.5,142.5 Z"/></g>
<g><path style="opacity:0.831" fill="#a78541" d="M 30.5,139.5 C 33.3579,142.086 36.3579,144.42 39.5,146.5C 38.0813,147.451 36.4147,147.784 34.5,147.5C 31.2157,145.883 28.5491,143.55 26.5,140.5C 28.099,140.768 29.4324,140.434 30.5,139.5 Z"/></g>
<g><path style="opacity:0.794" fill="#a68440" d="M 92.5,140.5 C 93.8333,140.5 95.1667,140.5 96.5,140.5C 95.4043,143.032 94.0709,145.365 92.5,147.5C 91.1667,147.5 89.8333,147.5 88.5,147.5C 88.8925,145.716 89.5592,144.05 90.5,142.5C 91.1667,141.833 91.8333,141.167 92.5,140.5 Z"/></g>
<g><path style="opacity:0.82" fill="#a78541" d="M 136.5,139.5 C 137.568,140.434 138.901,140.768 140.5,140.5C 138.451,143.55 135.784,145.883 132.5,147.5C 130.585,147.784 128.919,147.451 127.5,146.5C 129.5,144.833 131.5,143.167 133.5,141.5C 134.5,140.833 135.5,140.167 136.5,139.5 Z"/></g>
<g><path style="opacity:1" fill="#856933" d="M 125.5,139.5 C 128.698,138.964 131.365,139.631 133.5,141.5C 131.5,143.167 129.5,144.833 127.5,146.5C 118.833,152.5 117.5,151.167 123.5,142.5C 123.932,141.29 124.599,140.29 125.5,139.5 Z"/></g>
<g><path style="opacity:0.815" fill="#a2803d" d="M 42.5,140.5 C 43.8333,140.5 45.1667,140.5 46.5,140.5C 49.66,146.144 53.3267,151.477 57.5,156.5C 54.8333,156.5 52.1667,156.5 49.5,156.5C 43.9946,154.251 38.9946,151.251 34.5,147.5C 36.4147,147.784 38.0813,147.451 39.5,146.5C 41.8162,147.806 44.1495,149.139 46.5,150.5C 46.8333,150.167 47.1667,149.833 47.5,149.5C 45.5675,146.634 43.9009,143.634 42.5,140.5 Z"/></g>
<g><path style="opacity:0.817" fill="#a17f3b" d="M 72.5,144.5 C 73.8333,144.5 75.1667,144.5 76.5,144.5C 78.8236,147.804 81.157,151.138 83.5,154.5C 85.3504,152.234 87.0171,149.9 88.5,147.5C 89.8333,147.5 91.1667,147.5 92.5,147.5C 90.0186,153.13 87.0186,158.463 83.5,163.5C 79.5691,157.303 75.9024,150.969 72.5,144.5 Z"/></g>
<g><path style="opacity:0.812" fill="#a17f3b" d="M 119.5,142.5 C 120.833,142.5 122.167,142.5 123.5,142.5C 117.5,151.167 118.833,152.5 127.5,146.5C 128.919,147.451 130.585,147.784 132.5,147.5C 123.004,155.081 112.337,160.248 100.5,163C 108.793,157.878 115.127,151.044 119.5,142.5 Z"/></g>
<g><path style="opacity:0.656" fill="#9d7b37" d="M 49.5,156.5 C 52.1667,156.5 54.8333,156.5 57.5,156.5C 60.117,159.147 63.117,161.314 66.5,163C 60.3608,162.119 54.6942,159.953 49.5,156.5 Z"/></g>
</svg>
