<?xml version="1.0" encoding="UTF-8"?>
<!DOCTYPE svg PUBLIC "-//W3C//DTD SVG 1.1//EN" "http://www.w3.org/Graphics/SVG/1.1/DTD/svg11.dtd">
<svg xmlns="http://www.w3.org/2000/svg" version="1.1" width="168px" height="168px" style="shape-rendering:geometricPrecision; text-rendering:geometricPrecision; image-rendering:optimizeQuality; fill-rule:evenodd; clip-rule:evenodd" xmlns:xlink="http://www.w3.org/1999/xlink">
<g><path style="opacity:0.779" fill="#dbd1b0" d="M 90.5,20.5 C 88.7085,20.634 87.0418,20.3007 85.5,19.5C 84.1667,12.8333 82.8333,12.8333 81.5,19.5C 79.9582,20.3007 78.2915,20.634 76.5,20.5C 78.6393,14.7477 80.9726,9.08102 83.5,3.5C 86.0274,9.08102 88.3607,14.7477 90.5,20.5 Z"/></g>
<g><path style="opacity:1" fill="#d0c092" d="M 85.5,19.5 C 85.5,19.8333 85.5,20.1667 85.5,20.5C 84.1667,20.5 82.8333,20.5 81.5,20.5C 81.5,20.1667 81.5,19.8333 81.5,19.5C 82.8333,12.8333 84.1667,12.8333 85.5,19.5 Z"/></g>
<g><path style="opacity:0.79" fill="#dbceaa" d="M 62.5,36.5 C 61.1667,36.5 59.8333,36.5 58.5,36.5C 54.995,33.4861 51.1616,30.8194 47,28.5C 46.9552,31.2196 47.4552,33.8862 48.5,36.5C 47.1667,36.5 45.8333,36.5 44.5,36.5C 42.9309,31.2928 41.2642,26.1262 39.5,21C 40,20.8333 40.5,20.6667 41,20.5C 48.2325,24.5336 55.3991,28.7003 62.5,33C 63.1712,33.9862 63.1712,35.1529 62.5,36.5 Z"/></g>
<g><path style="opacity:0.831" fill="#dbcda8" d="M 81.5,19.5 C 81.5,19.8333 81.5,20.1667 81.5,20.5C 80.0214,24.9404 78.3548,29.2737 76.5,33.5C 74.8933,36.778 75.2267,39.778 77.5,42.5C 76.4324,43.4345 75.099,43.7678 73.5,43.5C 72.0924,42.0892 71.0924,40.4225 70.5,38.5C 72.7036,32.5559 74.7036,26.5559 76.5,20.5C 78.2915,20.634 79.9582,20.3007 81.5,19.5 Z"/></g>
<g><path style="opacity:0.831" fill="#dbcda8" d="M 85.5,19.5 C 87.0418,20.3007 88.7085,20.634 90.5,20.5C 92.2964,26.5559 94.2964,32.5559 96.5,38.5C 95.9076,40.4225 94.9076,42.0892 93.5,43.5C 91.901,43.7678 90.5676,43.4345 89.5,42.5C 91.7733,39.778 92.1067,36.778 90.5,33.5C 88.6452,29.2737 86.9786,24.9404 85.5,20.5C 85.5,20.1667 85.5,19.8333 85.5,19.5 Z"/></g>
<g><path style="opacity:0.782" fill="#dbceaa" d="M 122.5,36.5 C 121.167,36.5 119.833,36.5 118.5,36.5C 119.575,34.1445 119.575,31.8111 118.5,29.5C 114.75,31.3633 111.417,33.6966 108.5,36.5C 107.167,36.5 105.833,36.5 104.5,36.5C 103.829,35.1529 103.829,33.9862 104.5,33C 111.601,28.7003 118.768,24.5336 126,20.5C 126.5,20.6667 127,20.8333 127.5,21C 125.736,26.1262 124.069,31.2928 122.5,36.5 Z"/></g>
<g><path style="opacity:1" fill="#cdba88" d="M 81.5,20.5 C 82.8333,20.5 84.1667,20.5 85.5,20.5C 86.9786,24.9404 88.6452,29.2737 90.5,33.5C 85.8333,33.5 81.1667,33.5 76.5,33.5C 78.3548,29.2737 80.0214,24.9404 81.5,20.5 Z"/></g>
<g><path style="opacity:1" fill="#ceb984" d="M 58.5,36.5 C 57.962,38.1172 57.6287,39.7839 57.5,41.5C 55.1432,41.6633 52.8098,41.4966 50.5,41C 49.9011,39.3775 49.2344,37.8775 48.5,36.5C 47.4552,33.8862 46.9552,31.2196 47,28.5C 51.1616,30.8194 54.995,33.4861 58.5,36.5 Z"/></g>
<g><path style="opacity:1" fill="#cdb781" d="M 76.5,33.5 C 81.1667,33.5 85.8333,33.5 90.5,33.5C 92.1067,36.778 91.7733,39.778 89.5,42.5C 87.552,44.7887 85.552,47.122 83.5,49.5C 81.448,47.122 79.448,44.7887 77.5,42.5C 75.2267,39.778 74.8933,36.778 76.5,33.5 Z"/></g>
<g><path style="opacity:1" fill="#ceb984" d="M 118.5,36.5 C 117.699,38.0418 117.366,39.7085 117.5,41.5C 114.833,41.5 112.167,41.5 109.5,41.5C 109.371,39.7839 109.038,38.1172 108.5,36.5C 111.417,33.6966 114.75,31.3633 118.5,29.5C 119.575,31.8111 119.575,34.1445 118.5,36.5 Z"/></g>
<g><path style="opacity:0.86" fill="#dbcba3" d="M 44.5,36.5 C 45.8333,36.5 47.1667,36.5 48.5,36.5C 49.2344,37.8775 49.9011,39.3775 50.5,41C 52.8098,41.4966 55.1432,41.6633 57.5,41.5C 57.6287,39.7839 57.962,38.1172 58.5,36.5C 59.8333,36.5 61.1667,36.5 62.5,36.5C 61.6766,39.4606 61.01,42.4606 60.5,45.5C 56.1539,45.6657 51.8206,45.499 47.5,45C 46.2682,42.2344 45.2682,39.401 44.5,36.5 Z"/></g>
<g><path style="opacity:0.86" fill="#dbcba3" d="M 104.5,36.5 C 105.833,36.5 107.167,36.5 108.5,36.5C 109.038,38.1172 109.371,39.7839 109.5,41.5C 112.167,41.5 114.833,41.5 117.5,41.5C 117.366,39.7085 117.699,38.0418 118.5,36.5C 119.833,36.5 121.167,36.5 122.5,36.5C 121.732,39.401 120.732,42.2344 119.5,45C 115.179,45.499 110.846,45.6657 106.5,45.5C 105.99,42.4606 105.323,39.4606 104.5,36.5 Z"/></g>
<g><path style="opacity:0.824" fill="#dbca9d" d="M 77.5,42.5 C 79.448,44.7887 81.448,47.122 83.5,49.5C 85.552,47.122 87.552,44.7887 89.5,42.5C 90.5676,43.4345 91.901,43.7678 93.5,43.5C 90.1907,47.8147 86.8574,52.148 83.5,56.5C 80.1426,52.148 76.8093,47.8147 73.5,43.5C 75.099,43.7678 76.4324,43.4345 77.5,42.5 Z"/></g>
<g><path style="opacity:0.762" fill="#dbc899" d="M 40.5,56.5 C 37.5,56.5 34.5,56.5 31.5,56.5C 33.7476,52.7457 36.581,49.4124 40,46.5C 39.1826,49.8177 39.3493,53.151 40.5,56.5 Z"/></g>
<g><path style="opacity:0.737" fill="#dbc899" d="M 135.5,56.5 C 132.5,56.5 129.5,56.5 126.5,56.5C 127.651,53.151 127.817,49.8177 127,46.5C 130.419,49.4124 133.252,52.7457 135.5,56.5 Z"/></g>
<g><path style="opacity:0.903" fill="#d9c592" d="M 76.5,62.5 C 75.1667,62.5 73.8333,62.5 72.5,62.5C 70.4609,60.6226 68.2943,58.956 66,57.5C 59.7715,59.5764 53.4382,61.243 47,62.5C 42.6589,62.4495 39.1589,60.7828 36.5,57.5C 34.4807,59.1897 32.4807,60.8564 30.5,62.5C 29.1667,62.5 27.8333,62.5 26.5,62.5C 27.7007,60.0905 29.3674,58.0905 31.5,56.5C 34.5,56.5 37.5,56.5 40.5,56.5C 43.9312,58.3878 47.5979,58.8878 51.5,58C 56.8762,56.2636 62.2095,54.4302 67.5,52.5C 68.4419,52.6082 69.2753,52.9415 70,53.5C 72.41,56.3968 74.5767,59.3968 76.5,62.5 Z"/></g>
<g><path style="opacity:0.903" fill="#d9c592" d="M 126.5,56.5 C 129.5,56.5 132.5,56.5 135.5,56.5C 137.633,58.0905 139.299,60.0905 140.5,62.5C 139.167,62.5 137.833,62.5 136.5,62.5C 134.519,60.8564 132.519,59.1897 130.5,57.5C 127.868,60.8989 124.368,62.5655 120,62.5C 112.847,60.7258 105.681,59.0591 98.5,57.5C 97.1667,57.5 95.8333,57.5 94.5,57.5C 95.5123,55.1103 97.1789,53.4437 99.5,52.5C 104.79,54.4302 110.124,56.2636 115.5,58C 119.402,58.8878 123.069,58.3878 126.5,56.5 Z"/></g>
<g><path style="opacity:0.819" fill="#d6c18b" d="M 26.5,62.5 C 27.8333,62.5 29.1667,62.5 30.5,62.5C 30.2671,64.0618 29.6005,65.3951 28.5,66.5C 27.0937,66.9731 26.427,67.9731 26.5,69.5C 25.5,69.8333 24.8333,70.5 24.5,71.5C 22.8333,71.5 21.1667,71.5 19.5,71.5C 21.4821,68.1897 23.8154,65.1897 26.5,62.5 Z"/></g>
<g><path style="opacity:1" fill="#c8ab6f" d="M 72.5,62.5 C 72.8333,63.1667 73.1667,63.8333 73.5,64.5C 59.496,64.3334 45.496,64.5001 31.5,65C 30.7562,66.0386 29.7562,66.5386 28.5,66.5C 29.6005,65.3951 30.2671,64.0618 30.5,62.5C 32.4807,60.8564 34.4807,59.1897 36.5,57.5C 39.1589,60.7828 42.6589,62.4495 47,62.5C 53.4382,61.243 59.7715,59.5764 66,57.5C 68.2943,58.956 70.4609,60.6226 72.5,62.5 Z"/></g>
<g><path style="opacity:0.825" fill="#d7c28c" d="M 94.5,57.5 C 95.8333,57.5 97.1667,57.5 98.5,57.5C 97.2464,60.0934 95.5798,62.4268 93.5,64.5C 92.197,66.1423 90.8637,67.8089 89.5,69.5C 87.7655,71.2351 85.7655,72.5684 83.5,73.5C 81.2345,72.5684 79.2345,71.2351 77.5,69.5C 76.1363,67.8089 74.803,66.1423 73.5,64.5C 73.1667,63.8333 72.8333,63.1667 72.5,62.5C 73.8333,62.5 75.1667,62.5 76.5,62.5C 79.1456,64.4789 81.4789,66.8122 83.5,69.5C 87.2169,65.454 90.8835,61.454 94.5,57.5 Z"/></g>
<g><path style="opacity:1" fill="#c8ab6f" d="M 98.5,57.5 C 105.681,59.0591 112.847,60.7258 120,62.5C 124.368,62.5655 127.868,60.8989 130.5,57.5C 132.519,59.1897 134.519,60.8564 136.5,62.5C 136.5,63.1667 136.5,63.8333 136.5,64.5C 122.167,64.5 107.833,64.5 93.5,64.5C 95.5798,62.4268 97.2464,60.0934 98.5,57.5 Z"/></g>
<g><path style="opacity:0.82" fill="#d6c18b" d="M 136.5,62.5 C 137.833,62.5 139.167,62.5 140.5,62.5C 143.185,65.1897 145.518,68.1897 147.5,71.5C 145.833,71.5 144.167,71.5 142.5,71.5C 142.167,70.5 141.5,69.8333 140.5,69.5C 139.92,67.2512 138.587,65.5846 136.5,64.5C 136.5,63.8333 136.5,63.1667 136.5,62.5 Z"/></g>
<g><path style="opacity:1" fill="#c5a86c" d="M 73.5,64.5 C 74.803,66.1423 76.1363,67.8089 77.5,69.5C 76.2438,69.5386 75.2438,69.0386 74.5,68C 59.1667,67.3333 43.8333,67.3333 28.5,68C 27.9558,68.7172 27.2891,69.2172 26.5,69.5C 26.427,67.9731 27.0937,66.9731 28.5,66.5C 29.7562,66.5386 30.7562,66.0386 31.5,65C 45.496,64.5001 59.496,64.3334 73.5,64.5 Z"/></g>
<g><path style="opacity:1" fill="#c5a86c" d="M 93.5,64.5 C 107.833,64.5 122.167,64.5 136.5,64.5C 138.587,65.5846 139.92,67.2512 140.5,69.5C 139.711,69.2172 139.044,68.7172 138.5,68C 123.167,67.3333 107.833,67.3333 92.5,68C 91.7562,69.0386 90.7562,69.5386 89.5,69.5C 90.8637,67.8089 92.197,66.1423 93.5,64.5 Z"/></g>
<g><path style="opacity:1" fill="#c3a468" d="M 77.5,69.5 C 79.2345,71.2351 81.2345,72.5684 83.5,73.5C 85.7655,72.5684 87.7655,71.2351 89.5,69.5C 90.7562,69.5386 91.7562,69.0386 92.5,68C 107.833,67.3333 123.167,67.3333 138.5,68C 139.044,68.7172 139.711,69.2172 140.5,69.5C 141.5,69.8333 142.167,70.5 142.5,71.5C 143.925,72.922 144.925,74.5887 145.5,76.5C 144.711,76.2172 144.044,75.7172 143.5,75C 103.5,74.3333 63.5,74.3333 23.5,75C 22.9558,75.7172 22.2891,76.2172 21.5,76.5C 22.075,74.5887 23.075,72.922 24.5,71.5C 24.8333,70.5 25.5,69.8333 26.5,69.5C 27.2891,69.2172 27.9558,68.7172 28.5,68C 43.8333,67.3333 59.1667,67.3333 74.5,68C 75.2438,69.0386 76.2438,69.5386 77.5,69.5 Z"/></g>
<g><path style="opacity:1" fill="#bea064" d="M 145.5,76.5 C 147.063,77.9448 148.396,79.6115 149.5,81.5C 149.5,81.8333 149.5,82.1667 149.5,82.5C 142.58,81.3722 135.58,81.2055 128.5,82C 129.737,82.2321 130.737,82.7321 131.5,83.5C 127.837,82.6594 124.17,82.1594 120.5,82C 118.686,84.4795 117.019,86.9795 115.5,89.5C 115.38,88.4138 114.713,87.7472 113.5,87.5C 111.489,88.5186 109.489,89.5186 107.5,90.5C 108.833,88.8333 110.167,87.1667 111.5,85.5C 112.865,81.3361 111.199,79.1694 106.5,79C 102.167,78.3333 97.8333,78.3333 93.5,79C 92.6198,80.3561 92.2865,81.8561 92.5,83.5C 92.1667,83.5 91.8333,83.5 91.5,83.5C 86.1667,82.1667 80.8333,82.1667 75.5,83.5C 74.7656,82.1225 74.0989,80.6225 73.5,79C 67.8333,78.3333 62.1667,78.3333 56.5,79C 53.9076,82.4172 54.241,85.5839 57.5,88.5C 56.1825,88.179 54.8492,87.8457 53.5,87.5C 52.2867,87.7472 51.62,88.4138 51.5,89.5C 50.1209,86.6558 48.1209,84.1558 45.5,82C 41.2106,82.6513 36.8773,83.4846 32.5,84.5C 32.9175,83.7784 33.5842,83.2784 34.5,83C 28.8431,82.5006 23.1764,82.3339 17.5,82.5C 17.5,82.1667 17.5,81.8333 17.5,81.5C 18.604,79.6115 19.9373,77.9448 21.5,76.5C 22.2891,76.2172 22.9558,75.7172 23.5,75C 63.5,74.3333 103.5,74.3333 143.5,75C 144.044,75.7172 144.711,76.2172 145.5,76.5 Z"/></g>
<g><path style="opacity:0.842" fill="#d2bd82" d="M 19.5,71.5 C 21.1667,71.5 22.8333,71.5 24.5,71.5C 23.075,72.922 22.075,74.5887 21.5,76.5C 19.9373,77.9448 18.604,79.6115 17.5,81.5C 16.1667,81.5 14.8333,81.5 13.5,81.5C 14.9855,77.863 16.9855,74.5296 19.5,71.5 Z"/></g>
<g><path style="opacity:0.842" fill="#d2bd82" d="M 142.5,71.5 C 144.167,71.5 145.833,71.5 147.5,71.5C 150.014,74.5296 152.014,77.863 153.5,81.5C 152.167,81.5 150.833,81.5 149.5,81.5C 148.396,79.6115 147.063,77.9448 145.5,76.5C 144.925,74.5887 143.925,72.922 142.5,71.5 Z"/></g>
<g><path style="opacity:0.997" fill="#ceb97d" d="M 75.5,83.5 C 75.5,84.1667 75.5,84.8333 75.5,85.5C 75.5,87.5 75.5,89.5 75.5,91.5C 74.5,91.5 73.5,91.5 72.5,91.5C 71.9868,88.0879 71.1534,84.7546 70,81.5C 66.2546,82.297 62.4213,82.797 58.5,83C 61.2341,85.86 63.2341,89.0266 64.5,92.5C 63.5,92.5 62.5,92.5 61.5,92.5C 60.5,90.8333 59.1667,89.5 57.5,88.5C 54.241,85.5839 53.9076,82.4172 56.5,79C 62.1667,78.3333 67.8333,78.3333 73.5,79C 74.0989,80.6225 74.7656,82.1225 75.5,83.5 Z"/></g>
<g><path style="opacity:0.997" fill="#d0bb7f" d="M 111.5,85.5 C 109.833,85.5 108.167,85.5 106.5,85.5C 106.953,84.5416 107.619,83.7083 108.5,83C 104.579,82.797 100.745,82.297 97,81.5C 96.2086,82.745 95.7086,84.0783 95.5,85.5C 93.8212,85.7148 92.8212,85.0481 92.5,83.5C 92.2865,81.8561 92.6198,80.3561 93.5,79C 97.8333,78.3333 102.167,78.3333 106.5,79C 111.199,79.1694 112.865,81.3361 111.5,85.5 Z"/></g>
<g><path style="opacity:1" fill="#b99b60" d="M 17.5,82.5 C 23.1764,82.3339 28.8431,82.5006 34.5,83C 33.5842,83.2784 32.9175,83.7784 32.5,84.5C 27.8901,85.7479 23.5568,87.7479 19.5,90.5C 16.5251,91.6551 13.8584,93.3218 11.5,95.5C 11.1667,95.1667 10.8333,94.8333 10.5,94.5C 12.3554,90.1085 14.6887,86.1085 17.5,82.5 Z"/></g>
<g><path style="opacity:1" fill="#b89a5f" d="M 91.5,83.5 C 90.6561,87.0991 90.3227,90.7657 90.5,94.5C 90.1667,94.5 89.8333,94.5 89.5,94.5C 89.5,92.5 89.5,90.5 89.5,88.5C 85.5,88.5 81.5,88.5 77.5,88.5C 77.5,90.5 77.5,92.5 77.5,94.5C 76.8333,91.5 76.1667,88.5 75.5,85.5C 75.5,84.8333 75.5,84.1667 75.5,83.5C 80.8333,82.1667 86.1667,82.1667 91.5,83.5 Z"/></g>
<g><path style="opacity:1" fill="#b99b60" d="M 149.5,82.5 C 152.311,86.1085 154.645,90.1085 156.5,94.5C 156.167,94.8333 155.833,95.1667 155.5,95.5C 153.142,93.3218 150.475,91.6551 147.5,90.5C 142.103,88.1306 136.77,85.7972 131.5,83.5C 130.737,82.7321 129.737,82.2321 128.5,82C 135.58,81.2055 142.58,81.3722 149.5,82.5 Z"/></g>
<g><path style="opacity:0.829" fill="#ccb779" d="M 51.5,89.5 C 51.5,89.8333 51.5,90.1667 51.5,90.5C 50.4324,91.4345 49.099,91.7678 47.5,91.5C 46.1769,89.5286 44.8435,87.5286 43.5,85.5C 37.4138,87.3065 31.4138,89.3065 25.5,91.5C 23.2646,91.7947 21.2646,91.4614 19.5,90.5C 23.5568,87.7479 27.8901,85.7479 32.5,84.5C 36.8773,83.4846 41.2106,82.6513 45.5,82C 48.1209,84.1558 50.1209,86.6558 51.5,89.5 Z"/></g>
<g><path style="opacity:0.838" fill="#cbb677" d="M 106.5,85.5 C 108.167,85.5 109.833,85.5 111.5,85.5C 110.167,87.1667 108.833,88.8333 107.5,90.5C 105.759,92.3949 104.759,94.7282 104.5,97.5C 103.167,97.5 101.833,97.5 100.5,97.5C 101.025,92.6414 103.025,88.6414 106.5,85.5 Z"/></g>
<g><path style="opacity:0.829" fill="#ccb779" d="M 131.5,83.5 C 136.77,85.7972 142.103,88.1306 147.5,90.5C 145.735,91.4614 143.735,91.7947 141.5,91.5C 135.586,89.3065 129.586,87.3065 123.5,85.5C 122.156,87.5286 120.823,89.5286 119.5,91.5C 117.901,91.7678 116.568,91.4345 115.5,90.5C 115.5,90.1667 115.5,89.8333 115.5,89.5C 117.019,86.9795 118.686,84.4795 120.5,82C 124.17,82.1594 127.837,82.6594 131.5,83.5 Z"/></g>
<g><path style="opacity:1" fill="#b4975b" d="M 57.5,88.5 C 59.1667,89.5 60.5,90.8333 61.5,92.5C 62.3635,94.8954 62.3635,97.2287 61.5,99.5C 57.498,97.1607 54.1647,94.1607 51.5,90.5C 51.5,90.1667 51.5,89.8333 51.5,89.5C 51.62,88.4138 52.2867,87.7472 53.5,87.5C 54.8492,87.8457 56.1825,88.179 57.5,88.5 Z"/></g>
<g><path style="opacity:1" fill="#b2955a" d="M 89.5,94.5 C 89.7947,96.7354 89.4614,98.7354 88.5,100.5C 88.5,98.5 88.5,96.5 88.5,94.5C 85.1667,94.5 81.8333,94.5 78.5,94.5C 78.5,96.5 78.5,98.5 78.5,100.5C 78.1667,100.5 77.8333,100.5 77.5,100.5C 77.5,98.5 77.5,96.5 77.5,94.5C 77.5,92.5 77.5,90.5 77.5,88.5C 81.5,88.5 85.5,88.5 89.5,88.5C 89.5,90.5 89.5,92.5 89.5,94.5 Z"/></g>
<g><path style="opacity:1" fill="#b4975b" d="M 115.5,89.5 C 115.5,89.8333 115.5,90.1667 115.5,90.5C 113.861,92.8061 111.861,94.8061 109.5,96.5C 108.185,97.4756 106.852,98.4756 105.5,99.5C 104.702,99.0431 104.369,98.3764 104.5,97.5C 104.759,94.7282 105.759,92.3949 107.5,90.5C 109.489,89.5186 111.489,88.5186 113.5,87.5C 114.713,87.7472 115.38,88.4138 115.5,89.5 Z"/></g>
<g><path style="opacity:0.827" fill="#c9b474" d="M 13.5,81.5 C 14.8333,81.5 16.1667,81.5 17.5,81.5C 17.5,81.8333 17.5,82.1667 17.5,82.5C 14.6887,86.1085 12.3554,90.1085 10.5,94.5C 10.8333,94.8333 11.1667,95.1667 11.5,95.5C 13.8584,93.3218 16.5251,91.6551 19.5,90.5C 21.2646,91.4614 23.2646,91.7947 25.5,91.5C 22.0012,93.7505 18.3346,95.7505 14.5,97.5C 11.5,97.5 8.5,97.5 5.5,97.5C 7.13182,91.5696 9.79849,86.2363 13.5,81.5 Z"/></g>
<g><path style="opacity:0.825" fill="#c9b474" d="M 91.5,83.5 C 91.8333,83.5 92.1667,83.5 92.5,83.5C 92.8212,85.0481 93.8212,85.7148 95.5,85.5C 95.0479,89.5457 94.3813,93.5457 93.5,97.5C 92.5,97.5 91.5,97.5 90.5,97.5C 90.5,96.5 90.5,95.5 90.5,94.5C 90.3227,90.7657 90.6561,87.0991 91.5,83.5 Z"/></g>
<g><path style="opacity:0.883" fill="#c8b372" d="M 115.5,90.5 C 116.568,91.4345 117.901,91.7678 119.5,91.5C 117.804,93.5248 116.137,95.5248 114.5,97.5C 112.585,97.7845 110.919,97.4511 109.5,96.5C 111.861,94.8061 113.861,92.8061 115.5,90.5 Z"/></g>
<g><path style="opacity:0.827" fill="#c9b474" d="M 149.5,82.5 C 149.5,82.1667 149.5,81.8333 149.5,81.5C 150.833,81.5 152.167,81.5 153.5,81.5C 157.202,86.2363 159.868,91.5696 161.5,97.5C 158.5,97.5 155.5,97.5 152.5,97.5C 148.665,95.7505 144.999,93.7505 141.5,91.5C 143.735,91.7947 145.735,91.4614 147.5,90.5C 150.475,91.6551 153.142,93.3218 155.5,95.5C 155.833,95.1667 156.167,94.8333 156.5,94.5C 154.645,90.1085 152.311,86.1085 149.5,82.5 Z"/></g>
<g><path style="opacity:0.759" fill="#c4b06c" d="M 5.5,97.5 C 8.5,97.5 11.5,97.5 14.5,97.5C 10.8955,100.602 7.39554,103.935 4,107.5C 3.31019,103.974 3.81019,100.64 5.5,97.5 Z"/></g>
<g><path style="opacity:0.83" fill="#c5b06e" d="M 51.5,90.5 C 54.1647,94.1607 57.498,97.1607 61.5,99.5C 62.3635,97.2287 62.3635,94.8954 61.5,92.5C 62.5,92.5 63.5,92.5 64.5,92.5C 66.6364,97.3619 67.6364,102.362 67.5,107.5C 59.2969,103.951 52.6302,98.6175 47.5,91.5C 49.099,91.7678 50.4324,91.4345 51.5,90.5 Z"/></g>
<g><path style="opacity:0.848" fill="#c5b06e" d="M 75.5,85.5 C 76.1667,88.5 76.8333,91.5 77.5,94.5C 77.5,96.5 77.5,98.5 77.5,100.5C 77.1788,102.048 76.1788,102.715 74.5,102.5C 73.5147,98.9244 72.848,95.2577 72.5,91.5C 73.5,91.5 74.5,91.5 75.5,91.5C 75.5,89.5 75.5,87.5 75.5,85.5 Z"/></g>
<g><path style="opacity:1" fill="#ac8e54" d="M 88.5,100.5 C 88.5,102.167 88.5,103.833 88.5,105.5C 88.1667,105.5 87.8333,105.5 87.5,105.5C 87.5,104.5 87.5,103.5 87.5,102.5C 84.8333,102.5 82.1667,102.5 79.5,102.5C 79.5,103.5 79.5,104.5 79.5,105.5C 78.5489,104.081 78.2155,102.415 78.5,100.5C 78.5,98.5 78.5,96.5 78.5,94.5C 81.8333,94.5 85.1667,94.5 88.5,94.5C 88.5,96.5 88.5,98.5 88.5,100.5 Z"/></g>
<g><path style="opacity:0.828" fill="#c4af6b" d="M 109.5,96.5 C 110.919,97.4511 112.585,97.7845 114.5,97.5C 110.085,101.558 105.085,104.892 99.5,107.5C 99.1667,107.167 98.8333,106.833 98.5,106.5C 99.4226,103.553 100.089,100.553 100.5,97.5C 101.833,97.5 103.167,97.5 104.5,97.5C 104.369,98.3764 104.702,99.0431 105.5,99.5C 106.852,98.4756 108.185,97.4756 109.5,96.5 Z"/></g>
<g><path style="opacity:0.759" fill="#c4b06c" d="M 152.5,97.5 C 155.5,97.5 158.5,97.5 161.5,97.5C 163.19,100.64 163.69,103.974 163,107.5C 159.604,103.935 156.104,100.602 152.5,97.5 Z"/></g>
<g><path style="opacity:0.814" fill="#c1ad68" d="M 89.5,94.5 C 89.8333,94.5 90.1667,94.5 90.5,94.5C 90.5,95.5 90.5,96.5 90.5,97.5C 91.5,97.5 92.5,97.5 93.5,97.5C 93.1082,101.582 92.4416,105.582 91.5,109.5C 90.5,109.5 89.5,109.5 88.5,109.5C 88.5,108.167 88.5,106.833 88.5,105.5C 88.5,103.833 88.5,102.167 88.5,100.5C 89.4614,98.7354 89.7947,96.7354 89.5,94.5 Z"/></g>
<g><path style="opacity:0.857" fill="#bba65f" d="M 77.5,100.5 C 77.8333,100.5 78.1667,100.5 78.5,100.5C 78.2155,102.415 78.5489,104.081 79.5,105.5C 79.9801,110.822 80.3135,116.155 80.5,121.5C 79.5,121.5 78.5,121.5 77.5,121.5C 75.9809,115.379 74.9809,109.046 74.5,102.5C 76.1788,102.715 77.1788,102.048 77.5,100.5 Z"/></g>
<g><path style="opacity:1" fill="#a2864c" d="M 87.5,105.5 C 87.4312,110.854 87.0978,116.187 86.5,121.5C 86.6716,122.492 86.3382,123.158 85.5,123.5C 85.5,120.5 85.5,117.5 85.5,114.5C 84.1667,114.5 82.8333,114.5 81.5,114.5C 81.5,117.5 81.5,120.5 81.5,123.5C 80.6618,123.158 80.3284,122.492 80.5,121.5C 80.3135,116.155 79.9801,110.822 79.5,105.5C 79.5,104.5 79.5,103.5 79.5,102.5C 82.1667,102.5 84.8333,102.5 87.5,102.5C 87.5,103.5 87.5,104.5 87.5,105.5 Z"/></g>
<g><path style="opacity:0.91" fill="#b9a45c" d="M 87.5,105.5 C 87.8333,105.5 88.1667,105.5 88.5,105.5C 88.5,106.833 88.5,108.167 88.5,109.5C 89.5,109.5 90.5,109.5 91.5,109.5C 91.2833,113.705 90.6167,117.705 89.5,121.5C 88.5,121.5 87.5,121.5 86.5,121.5C 87.0978,116.187 87.4312,110.854 87.5,105.5 Z"/></g>
<g><path style="opacity:1" fill="#9a7e44" d="M 85.5,123.5 C 85.5,125.5 85.5,127.5 85.5,129.5C 85.5,130.167 85.5,130.833 85.5,131.5C 84.8339,128.311 84.1672,124.977 83.5,121.5C 82.8328,124.977 82.1661,128.311 81.5,131.5C 81.5,130.833 81.5,130.167 81.5,129.5C 81.5,127.5 81.5,125.5 81.5,123.5C 81.5,120.5 81.5,117.5 81.5,114.5C 82.8333,114.5 84.1667,114.5 85.5,114.5C 85.5,117.5 85.5,120.5 85.5,123.5 Z"/></g>
<g><path style="opacity:0.861" fill="#b39a52" d="M 77.5,121.5 C 78.5,121.5 79.5,121.5 80.5,121.5C 80.3284,122.492 80.6618,123.158 81.5,123.5C 81.5,125.5 81.5,127.5 81.5,129.5C 80.5,129.5 79.5,129.5 78.5,129.5C 77.612,126.946 77.2786,124.279 77.5,121.5 Z"/></g>
<g><path style="opacity:0.861" fill="#b39a52" d="M 86.5,121.5 C 87.5,121.5 88.5,121.5 89.5,121.5C 89.7214,124.279 89.388,126.946 88.5,129.5C 87.5,129.5 86.5,129.5 85.5,129.5C 85.5,127.5 85.5,125.5 85.5,123.5C 86.3382,123.158 86.6716,122.492 86.5,121.5 Z"/></g>
<g><path style="opacity:1" fill="#8f733c" d="M 85.5,131.5 C 86.925,132.922 87.925,134.589 88.5,136.5C 85.1667,133.833 81.8333,133.833 78.5,136.5C 79.075,134.589 80.075,132.922 81.5,131.5C 82.1661,128.311 82.8328,124.977 83.5,121.5C 84.1672,124.977 84.8339,128.311 85.5,131.5 Z"/></g>
<g><path style="opacity:0.807" fill="#ac8e48" d="M 78.5,129.5 C 79.5,129.5 80.5,129.5 81.5,129.5C 81.5,130.167 81.5,130.833 81.5,131.5C 80.075,132.922 79.075,134.589 78.5,136.5C 77.1667,137.833 75.8333,139.167 74.5,140.5C 73.1667,140.5 71.8333,140.5 70.5,140.5C 72.9341,136.618 75.6007,132.952 78.5,129.5 Z"/></g>
<g><path style="opacity:0.807" fill="#ac8e48" d="M 85.5,129.5 C 86.5,129.5 87.5,129.5 88.5,129.5C 91.3993,132.952 94.0659,136.618 96.5,140.5C 95.1667,140.5 93.8333,140.5 92.5,140.5C 91.1667,139.167 89.8333,137.833 88.5,136.5C 87.925,134.589 86.925,132.922 85.5,131.5C 85.5,130.833 85.5,130.167 85.5,129.5 Z"/></g>
<g><path style="opacity:1" fill="#846933" d="M 88.5,136.5 C 89.8333,137.833 91.1667,139.167 92.5,140.5C 93.1667,142.167 93.8333,143.833 94.5,145.5C 87.1667,145.5 79.8333,145.5 72.5,145.5C 73.1667,143.833 73.8333,142.167 74.5,140.5C 75.8333,139.167 77.1667,137.833 78.5,136.5C 81.8333,133.833 85.1667,133.833 88.5,136.5 Z"/></g>
<g><path style="opacity:0.895" fill="#a68440" d="M 70.5,140.5 C 71.8333,140.5 73.1667,140.5 74.5,140.5C 73.8333,142.167 73.1667,143.833 72.5,145.5C 70.7202,146.99 70.0535,148.99 70.5,151.5C 69.1667,151.5 67.8333,151.5 66.5,151.5C 65.9086,147.036 67.242,143.369 70.5,140.5 Z"/></g>
<g><path style="opacity:0.895" fill="#a68440" d="M 92.5,140.5 C 93.8333,140.5 95.1667,140.5 96.5,140.5C 99.758,143.369 101.091,147.036 100.5,151.5C 99.1667,151.5 97.8333,151.5 96.5,151.5C 96.9465,148.99 96.2798,146.99 94.5,145.5C 93.8333,143.833 93.1667,142.167 92.5,140.5 Z"/></g>
<g><path style="opacity:1" fill="#7e632f" d="M 72.5,145.5 C 79.8333,145.5 87.1667,145.5 94.5,145.5C 96.2798,146.99 96.9465,148.99 96.5,151.5C 96.5,153.5 96.5,155.5 96.5,157.5C 91.933,156.479 87.433,155.145 83,153.5C 79.0193,154.407 75.186,155.74 71.5,157.5C 70.5344,155.604 70.2011,153.604 70.5,151.5C 70.0535,148.99 70.7202,146.99 72.5,145.5 Z"/></g>
<g><path style="opacity:0.832" fill="#9d7b38" d="M 66.5,151.5 C 67.8333,151.5 69.1667,151.5 70.5,151.5C 70.2011,153.604 70.5344,155.604 71.5,157.5C 75.186,155.74 79.0193,154.407 83,153.5C 87.433,155.145 91.933,156.479 96.5,157.5C 96.5,155.5 96.5,153.5 96.5,151.5C 97.8333,151.5 99.1667,151.5 100.5,151.5C 100.5,155.5 100.5,159.5 100.5,163.5C 94.7119,161.904 89.0453,159.904 83.5,157.5C 77.9547,159.904 72.2881,161.904 66.5,163.5C 66.5,159.5 66.5,155.5 66.5,151.5 Z"/></g>
</svg>
