<?xml version="1.0" encoding="UTF-8"?>
<!DOCTYPE svg PUBLIC "-//W3C//DTD SVG 1.1//EN" "http://www.w3.org/Graphics/SVG/1.1/DTD/svg11.dtd">
<svg xmlns="http://www.w3.org/2000/svg" version="1.1" width="168px" height="168px" style="shape-rendering:geometricPrecision; text-rendering:geometricPrecision; image-rendering:optimizeQuality; fill-rule:evenodd; clip-rule:evenodd" xmlns:xlink="http://www.w3.org/1999/xlink">
<g><path style="opacity:0.782" fill="#dbd1b0" d="M 20.5,20.5 C 19.1667,20.5 17.8333,20.5 16.5,20.5C 15.1667,15.1667 13.8333,15.1667 12.5,20.5C 11.1667,20.5 9.83333,20.5 8.5,20.5C 10.4555,14.5894 12.9555,8.92275 16,3.5C 17.3429,9.20474 18.8429,14.8714 20.5,20.5 Z"/></g>
<g><path style="opacity:0.804" fill="#dbd0af" d="M 82.5,3.5 C 86.6077,8.20163 89.6077,13.7016 91.5,20C 89.6519,23.3473 86.9853,25.8473 83.5,27.5C 80.0147,25.8473 77.3481,23.3473 75.5,20C 77.7079,14.4208 80.0413,8.92082 82.5,3.5 Z"/></g>
<g><path style="opacity:0.781" fill="#dbd1b0" d="M 158.5,20.5 C 157.167,20.5 155.833,20.5 154.5,20.5C 153.167,15.1667 151.833,15.1667 150.5,20.5C 149.167,20.5 147.833,20.5 146.5,20.5C 148.157,14.8714 149.657,9.20474 151,3.5C 154.045,8.92275 156.545,14.5894 158.5,20.5 Z"/></g>
<g><path style="opacity:0.775" fill="#dbd0af" d="M 45.5,6.5 C 52.1608,8.82613 58.1608,12.1595 63.5,16.5C 62.6716,19.4788 62.0049,22.4788 61.5,25.5C 57.5,25.5 53.5,25.5 49.5,25.5C 48.3251,19.1337 46.9918,12.8004 45.5,6.5 Z"/></g>
<g><path style="opacity:0.775" fill="#dbd0af" d="M 119.5,6.5 C 120.497,6.47008 121.164,6.97008 121.5,8C 119.769,13.757 118.435,19.5904 117.5,25.5C 113.5,25.5 109.5,25.5 105.5,25.5C 104.995,22.4788 104.328,19.4788 103.5,16.5C 103.833,15.8333 104.167,15.1667 104.5,14.5C 109.72,12.0591 114.72,9.39241 119.5,6.5 Z"/></g>
<g><path style="opacity:1" fill="#cfbe91" d="M 82.5,12.5 C 84.7894,13.7138 86.1228,15.7138 86.5,18.5C 84.5,23.8333 82.5,23.8333 80.5,18.5C 81.1776,16.484 81.8443,14.484 82.5,12.5 Z"/></g>
<g><path style="opacity:1" fill="#cfbe90" d="M 51.5,14.5 C 53.8333,15.1667 56.1667,15.8333 58.5,16.5C 59.5749,20.938 57.9083,22.938 53.5,22.5C 52.8333,19.8333 52.1667,17.1667 51.5,14.5 Z"/></g>
<g><path style="opacity:1" fill="#cfbf91" d="M 114.5,13.5 C 115.124,13.9169 115.457,14.5836 115.5,15.5C 115,17.5 114.5,19.5 114,21.5C 108.939,23.2692 107.439,21.6025 109.5,16.5C 111.396,15.7255 113.063,14.7255 114.5,13.5 Z"/></g>
<g><path style="opacity:1" fill="#d0bf92" d="M 16.5,20.5 C 17.1098,21.391 17.4431,22.391 17.5,23.5C 16.2876,22.7701 15.2876,21.7701 14.5,20.5C 13.8182,21.2427 13.1515,21.9094 12.5,22.5C 12.5,21.8333 12.5,21.1667 12.5,20.5C 13.8333,15.1667 15.1667,15.1667 16.5,20.5 Z"/></g>
<g><path style="opacity:1" fill="#d0c092" d="M 154.5,20.5 C 154.5,21.1667 154.5,21.8333 154.5,22.5C 153.849,21.9094 153.182,21.2427 152.5,20.5C 151.712,21.7701 150.712,22.7701 149.5,23.5C 149.557,22.391 149.89,21.391 150.5,20.5C 151.833,15.1667 153.167,15.1667 154.5,20.5 Z"/></g>
<g><path style="opacity:0.841" fill="#dbceaa" d="M 8.5,20.5 C 9.83333,20.5 11.1667,20.5 12.5,20.5C 12.5,21.1667 12.5,21.8333 12.5,22.5C 10.2538,26.8047 8.92046,31.4713 8.5,36.5C 8.5,36.8333 8.5,37.1667 8.5,37.5C 7.53862,39.2646 7.20528,41.2646 7.5,43.5C 6.16667,43.5 4.83333,43.5 3.5,43.5C 4.27466,35.6256 5.94132,27.9589 8.5,20.5 Z"/></g>
<g><path style="opacity:0.835" fill="#dbcfab" d="M 16.5,20.5 C 17.8333,20.5 19.1667,20.5 20.5,20.5C 22.3061,25.4455 24.6394,30.1122 27.5,34.5C 26.1667,34.5 24.8333,34.5 23.5,34.5C 23.1667,34.5 22.8333,34.5 22.5,34.5C 21.1049,30.7099 19.4383,27.0432 17.5,23.5C 17.4431,22.391 17.1098,21.391 16.5,20.5 Z"/></g>
<g><path style="opacity:0.836" fill="#dbcfab" d="M 146.5,20.5 C 147.833,20.5 149.167,20.5 150.5,20.5C 149.89,21.391 149.557,22.391 149.5,23.5C 147.562,27.0432 145.895,30.7099 144.5,34.5C 144.167,34.5 143.833,34.5 143.5,34.5C 142.167,34.5 140.833,34.5 139.5,34.5C 142.361,30.1122 144.694,25.4455 146.5,20.5 Z"/></g>
<g><path style="opacity:0.83" fill="#dbcea9" d="M 154.5,20.5 C 155.833,20.5 157.167,20.5 158.5,20.5C 161.056,27.9425 162.722,35.6092 163.5,43.5C 162.167,43.5 160.833,43.5 159.5,43.5C 159.5,43.1667 159.5,42.8333 159.5,42.5C 158.833,35.472 157.166,28.8053 154.5,22.5C 154.5,21.8333 154.5,21.1667 154.5,20.5 Z"/></g>
<g><path style="opacity:1" fill="#cebb88" d="M 17.5,23.5 C 19.4383,27.0432 21.1049,30.7099 22.5,34.5C 18.5874,33.4042 14.5874,33.2375 10.5,34C 9.93406,34.9947 9.26739,35.828 8.5,36.5C 8.92046,31.4713 10.2538,26.8047 12.5,22.5C 13.1515,21.9094 13.8182,21.2427 14.5,20.5C 15.2876,21.7701 16.2876,22.7701 17.5,23.5 Z"/></g>
<g><path style="opacity:1" fill="#cebb89" d="M 154.5,22.5 C 157.166,28.8053 158.833,35.472 159.5,42.5C 158.437,39.7827 157.437,36.9494 156.5,34C 152.413,33.2375 148.413,33.4042 144.5,34.5C 145.895,30.7099 147.562,27.0432 149.5,23.5C 150.712,22.7701 151.712,21.7701 152.5,20.5C 153.182,21.2427 153.849,21.9094 154.5,22.5 Z"/></g>
<g><path style="opacity:1" fill="#cdb781" d="M 22.5,34.5 C 22.8333,34.5 23.1667,34.5 23.5,34.5C 24.7454,37.9873 26.7454,40.9873 29.5,43.5C 29.5,43.8333 29.5,44.1667 29.5,44.5C 28.7109,44.2172 28.0442,43.7172 27.5,43C 21.1754,42.5005 14.8421,42.3338 8.5,42.5C 8.5,40.8333 8.5,39.1667 8.5,37.5C 8.5,37.1667 8.5,36.8333 8.5,36.5C 9.26739,35.828 9.93406,34.9947 10.5,34C 14.5874,33.2375 18.5874,33.4042 22.5,34.5 Z"/></g>
<g><path style="opacity:1" fill="#cdb780" d="M 159.5,42.5 C 159.5,42.8333 159.5,43.1667 159.5,43.5C 159.5,44.1667 159.5,44.8333 159.5,45.5C 159.5,45.8333 159.5,46.1667 159.5,46.5C 158.596,45.791 158.263,44.791 158.5,43.5C 150.93,42.9463 143.596,43.6129 136.5,45.5C 136.833,44.8333 137.167,44.1667 137.5,43.5C 140.241,41.0246 142.241,38.0246 143.5,34.5C 143.833,34.5 144.167,34.5 144.5,34.5C 148.413,33.4042 152.413,33.2375 156.5,34C 157.437,36.9494 158.437,39.7827 159.5,42.5 Z"/></g>
<g><path style="opacity:0.814" fill="#dbcca6" d="M 23.5,34.5 C 24.8333,34.5 26.1667,34.5 27.5,34.5C 30.0638,37.2802 32.3971,40.2802 34.5,43.5C 32.8333,43.5 31.1667,43.5 29.5,43.5C 26.7454,40.9873 24.7454,37.9873 23.5,34.5 Z"/></g>
<g><path style="opacity:0.865" fill="#dbcca5" d="M 112.5,43.5 C 107.167,43.5 101.833,43.5 96.5,43.5C 92.4517,43.6054 88.4517,43.2721 84.5,42.5C 78.4278,40.4446 72.0945,39.1112 65.5,38.5C 63.7354,37.5386 61.7354,37.2053 59.5,37.5C 59.5,39.5 59.5,41.5 59.5,43.5C 58.5,43.5 57.5,43.5 56.5,43.5C 56.3354,40.4816 56.502,37.4816 57,34.5C 58.231,33.8922 59.5643,33.5589 61,33.5C 78.3604,36.5395 95.527,39.8728 112.5,43.5 Z"/></g>
<g><path style="opacity:0.832" fill="#dbcca5" d="M 139.5,34.5 C 140.833,34.5 142.167,34.5 143.5,34.5C 142.241,38.0246 140.241,41.0246 137.5,43.5C 135.833,43.5 134.167,43.5 132.5,43.5C 135.086,40.6421 137.42,37.6421 139.5,34.5 Z"/></g>
<g><path style="opacity:1" fill="#cdb780" d="M 65.5,38.5 C 72.0945,39.1112 78.4278,40.4446 84.5,42.5C 76.5,42.5 68.5,42.5 60.5,42.5C 60.5,41.1667 60.5,39.8333 60.5,38.5C 62.1667,38.5 63.8333,38.5 65.5,38.5 Z"/></g>
<g><path style="opacity:1" fill="#cdb37a" d="M 8.5,42.5 C 14.8421,42.3338 21.1754,42.5005 27.5,43C 28.0442,43.7172 28.7109,44.2172 29.5,44.5C 31.8333,46.5 34.1667,48.5 36.5,50.5C 36.5,50.8333 36.5,51.1667 36.5,51.5C 26.8333,51.5 17.1667,51.5 7.5,51.5C 7.96286,48.5176 8.29619,45.5176 8.5,42.5 Z"/></g>
<g><path style="opacity:0.813" fill="#dbca9e" d="M 29.5,44.5 C 29.5,44.1667 29.5,43.8333 29.5,43.5C 31.1667,43.5 32.8333,43.5 34.5,43.5C 37.192,45.8623 39.8587,48.1956 42.5,50.5C 40.5,50.5 38.5,50.5 36.5,50.5C 34.1667,48.5 31.8333,46.5 29.5,44.5 Z"/></g>
<g><path style="opacity:1" fill="#ceb57c" d="M 60.5,42.5 C 68.5,42.5 76.5,42.5 84.5,42.5C 88.4517,43.2721 92.4517,43.6054 96.5,43.5C 96.8417,44.3382 97.5084,44.6716 98.5,44.5C 101.219,45.913 104.219,46.5797 107.5,46.5C 110.95,45.7564 112.616,47.0897 112.5,50.5C 112.5,54.5 112.5,58.5 112.5,62.5C 112.5,64.1667 112.5,65.8333 112.5,67.5C 111.549,66.0813 111.216,64.4147 111.5,62.5C 111.5,58.8333 111.5,55.1667 111.5,51.5C 108.167,51.5 104.833,51.5 101.5,51.5C 101.802,54.0593 101.468,56.3926 100.5,58.5C 100.5,58.1667 100.5,57.8333 100.5,57.5C 100.739,55.5328 100.406,53.6995 99.5,52C 86.5021,50.0838 73.5021,48.2504 60.5,46.5C 60.5,45.1667 60.5,43.8333 60.5,42.5 Z"/></g>
<g><path style="opacity:0.903" fill="#dbcba0" d="M 96.5,43.5 C 101.833,43.5 107.167,43.5 112.5,43.5C 113.675,43.281 114.675,43.6143 115.5,44.5C 116.348,46.4086 116.682,48.4086 116.5,50.5C 115.167,50.5 113.833,50.5 112.5,50.5C 112.616,47.0897 110.95,45.7564 107.5,46.5C 104.781,45.087 101.781,44.4203 98.5,44.5C 97.5084,44.6716 96.8417,44.3382 96.5,43.5 Z"/></g>
<g><path style="opacity:0.831" fill="#dbc99d" d="M 132.5,43.5 C 134.167,43.5 135.833,43.5 137.5,43.5C 137.167,44.1667 136.833,44.8333 136.5,45.5C 134.142,47.5293 131.808,49.5293 129.5,51.5C 128.539,53.2646 128.205,55.2646 128.5,57.5C 127.5,57.5 126.5,57.5 125.5,57.5C 125.183,54.4281 125.516,51.4281 126.5,48.5C 128.519,46.8103 130.519,45.1436 132.5,43.5 Z"/></g>
<g><path style="opacity:1" fill="#cdb379" d="M 159.5,46.5 C 159.5,48.1667 159.5,49.8333 159.5,51.5C 149.5,51.5 139.5,51.5 129.5,51.5C 131.808,49.5293 134.142,47.5293 136.5,45.5C 143.596,43.6129 150.93,42.9463 158.5,43.5C 158.263,44.791 158.596,45.791 159.5,46.5 Z"/></g>
<g><path style="opacity:1" fill="#d4bf8e" d="M 98.5,44.5 C 101.781,44.4203 104.781,45.087 107.5,46.5C 104.219,46.5797 101.219,45.913 98.5,44.5 Z"/></g>
<g><path style="opacity:0.804" fill="#dbc89a" d="M 65.5,38.5 C 63.8333,38.5 62.1667,38.5 60.5,38.5C 60.5,39.8333 60.5,41.1667 60.5,42.5C 60.5,43.8333 60.5,45.1667 60.5,46.5C 73.5021,48.2504 86.5021,50.0838 99.5,52C 100.406,53.6995 100.739,55.5328 100.5,57.5C 99.1667,57.5 97.8333,57.5 96.5,57.5C 96.5858,56.5041 96.2524,55.6708 95.5,55C 82.4671,53.3048 69.4671,51.4715 56.5,49.5C 56.5,47.5 56.5,45.5 56.5,43.5C 57.5,43.5 58.5,43.5 59.5,43.5C 59.5,41.5 59.5,39.5 59.5,37.5C 61.7354,37.2053 63.7354,37.5386 65.5,38.5 Z"/></g>
<g><path style="opacity:0.991" fill="#dbc89b" d="M 3.5,43.5 C 4.83333,43.5 6.16667,43.5 7.5,43.5C 6.61669,48.1031 6.28336,52.7697 6.5,57.5C 5.5,57.5 4.5,57.5 3.5,57.5C 3.5,52.8333 3.5,48.1667 3.5,43.5 Z"/></g>
<g><path style="opacity:0.852" fill="#dbc798" d="M 36.5,51.5 C 36.5,51.1667 36.5,50.8333 36.5,50.5C 38.5,50.5 40.5,50.5 42.5,50.5C 47.0101,51.8358 47.6768,54.1692 44.5,57.5C 43.209,57.7373 42.209,57.404 41.5,56.5C 41.0012,53.7361 39.3345,52.0695 36.5,51.5 Z"/></g>
<g><path style="opacity:0.992" fill="#dbc89b" d="M 159.5,43.5 C 160.833,43.5 162.167,43.5 163.5,43.5C 163.5,48.1667 163.5,52.8333 163.5,57.5C 162.5,57.5 161.5,57.5 160.5,57.5C 160.817,53.2984 160.483,49.2984 159.5,45.5C 159.5,44.8333 159.5,44.1667 159.5,43.5 Z"/></g>
<g><path style="opacity:1" fill="#ccb075" d="M 7.5,51.5 C 17.1667,51.5 26.8333,51.5 36.5,51.5C 39.3345,52.0695 41.0012,53.7361 41.5,56.5C 40.8333,56.8333 40.1667,57.1667 39.5,57.5C 29.5541,55.5247 19.2208,54.8581 8.5,55.5C 8.5,57.8333 8.5,60.1667 8.5,62.5C 8.5,63.5 8.5,64.5 8.5,65.5C 7.51388,61.03 7.18054,56.3633 7.5,51.5 Z"/></g>
<g><path style="opacity:1" fill="#ccb075" d="M 129.5,51.5 C 139.5,51.5 149.5,51.5 159.5,51.5C 159.819,56.3633 159.486,61.03 158.5,65.5C 158.5,64.5 158.5,63.5 158.5,62.5C 158.5,60.1667 158.5,57.8333 158.5,55.5C 148.833,55.5 139.167,55.5 129.5,55.5C 129.5,57.8333 129.5,60.1667 129.5,62.5C 129.5,64.1667 129.5,65.8333 129.5,67.5C 129.5,69.5 129.5,71.5 129.5,73.5C 129.806,76.3854 129.473,79.0521 128.5,81.5C 128.5,77.5 128.5,73.5 128.5,69.5C 128.5,65.5 128.5,61.5 128.5,57.5C 128.205,55.2646 128.539,53.2646 129.5,51.5 Z"/></g>
<g><path style="opacity:0.873" fill="#d7c28e" d="M 8.5,37.5 C 8.5,39.1667 8.5,40.8333 8.5,42.5C 8.29619,45.5176 7.96286,48.5176 7.5,51.5C 7.18054,56.3633 7.51388,61.03 8.5,65.5C 8.5,66.5 8.5,67.5 8.5,68.5C 7.79105,69.404 6.79105,69.7373 5.5,69.5C 4.01086,65.7643 3.3442,61.7643 3.5,57.5C 4.5,57.5 5.5,57.5 6.5,57.5C 6.28336,52.7697 6.61669,48.1031 7.5,43.5C 7.20528,41.2646 7.53862,39.2646 8.5,37.5 Z"/></g>
<g><path style="opacity:0.765" fill="#d8c38e" d="M 84.5,69.5 C 82.901,69.7678 81.5676,69.4345 80.5,68.5C 80.5,67.5 80.5,66.5 80.5,65.5C 72.2045,63.6926 63.8712,63.0259 55.5,63.5C 54.6279,65.4496 53.9612,67.4496 53.5,69.5C 52.6618,69.8417 52.3284,70.5084 52.5,71.5C 51.1667,71.5 49.8333,71.5 48.5,71.5C 50.0431,66.7427 51.8765,62.0761 54,57.5C 64.832,59.1435 75.6653,60.9769 86.5,63C 85.6028,65.0871 84.9361,67.2537 84.5,69.5 Z"/></g>
<g><path style="opacity:0.853" fill="#dac694" d="M 112.5,50.5 C 113.833,50.5 115.167,50.5 116.5,50.5C 116.5,54.5 116.5,58.5 116.5,62.5C 115.167,62.5 113.833,62.5 112.5,62.5C 112.5,58.5 112.5,54.5 112.5,50.5 Z"/></g>
<g><path style="opacity:0.873" fill="#d7c28e" d="M 159.5,45.5 C 160.483,49.2984 160.817,53.2984 160.5,57.5C 161.5,57.5 162.5,57.5 163.5,57.5C 163.656,61.7643 162.989,65.7643 161.5,69.5C 160.5,69.5 159.5,69.5 158.5,69.5C 158.5,68.1667 158.5,66.8333 158.5,65.5C 159.486,61.03 159.819,56.3633 159.5,51.5C 159.5,49.8333 159.5,48.1667 159.5,46.5C 159.5,46.1667 159.5,45.8333 159.5,45.5 Z"/></g>
<g><path style="opacity:1" fill="#c9ab6f" d="M 39.5,57.5 C 39.5979,59.5529 38.9313,61.2196 37.5,62.5C 27.8333,62.5 18.1667,62.5 8.5,62.5C 8.5,60.1667 8.5,57.8333 8.5,55.5C 19.2208,54.8581 29.5541,55.5247 39.5,57.5 Z"/></g>
<g><path style="opacity:1" fill="#caad71" d="M 111.5,62.5 C 107.818,62.3347 104.152,62.5014 100.5,63C 99.9152,64.3024 99.2485,65.469 98.5,66.5C 98.5597,63.6592 99.2264,60.9925 100.5,58.5C 101.468,56.3926 101.802,54.0593 101.5,51.5C 104.833,51.5 108.167,51.5 111.5,51.5C 111.5,55.1667 111.5,58.8333 111.5,62.5 Z"/></g>
<g><path style="opacity:1" fill="#c9ab6f" d="M 158.5,62.5 C 148.833,62.5 139.167,62.5 129.5,62.5C 129.5,60.1667 129.5,57.8333 129.5,55.5C 139.167,55.5 148.833,55.5 158.5,55.5C 158.5,57.8333 158.5,60.1667 158.5,62.5 Z"/></g>
<g><path style="opacity:0.822" fill="#d7c18c" d="M 41.5,56.5 C 42.209,57.404 43.209,57.7373 44.5,57.5C 43.0116,62.4671 41.0116,67.1338 38.5,71.5C 36.8212,71.7148 35.8212,71.0481 35.5,69.5C 36.3186,67.2278 36.9853,64.8945 37.5,62.5C 38.9313,61.2196 39.5979,59.5529 39.5,57.5C 40.1667,57.1667 40.8333,56.8333 41.5,56.5 Z"/></g>
<g><path style="opacity:0.844" fill="#d7c28d" d="M 96.5,57.5 C 97.8333,57.5 99.1667,57.5 100.5,57.5C 100.5,57.8333 100.5,58.1667 100.5,58.5C 99.2264,60.9925 98.5597,63.6592 98.5,66.5C 96.9652,69.3298 97.9652,70.6631 101.5,70.5C 98.7131,71.4767 95.7131,71.81 92.5,71.5C 94.0301,66.9074 95.3634,62.2407 96.5,57.5 Z"/></g>
<g><path style="opacity:1" fill="#d8c38e" d="M 125.5,57.5 C 126.5,57.5 127.5,57.5 128.5,57.5C 128.5,61.5 128.5,65.5 128.5,69.5C 127.5,69.5 126.5,69.5 125.5,69.5C 125.5,65.5 125.5,61.5 125.5,57.5 Z"/></g>
<g><path style="opacity:1" fill="#c6a86c" d="M 8.5,62.5 C 18.1667,62.5 27.8333,62.5 37.5,62.5C 36.9853,64.8945 36.3186,67.2278 35.5,69.5C 35.1667,69.5 34.8333,69.5 34.5,69.5C 30.7238,68.1752 26.5572,67.5085 22,67.5C 17.6528,67.501 13.4861,67.8343 9.5,68.5C 9.16667,68.5 8.83333,68.5 8.5,68.5C 8.5,67.5 8.5,66.5 8.5,65.5C 8.5,64.5 8.5,63.5 8.5,62.5 Z"/></g>
<g><path style="opacity:1" fill="#c7aa6e" d="M 80.5,68.5 C 79.8333,68.8333 79.1667,69.1667 78.5,69.5C 75.0623,68.1768 71.229,67.5102 67,67.5C 63.1667,67.6667 59.3333,67.8333 55.5,68C 54.9558,68.7172 54.2891,69.2172 53.5,69.5C 53.9612,67.4496 54.6279,65.4496 55.5,63.5C 63.8712,63.0259 72.2045,63.6926 80.5,65.5C 80.5,66.5 80.5,67.5 80.5,68.5 Z"/></g>
<g><path style="opacity:1" fill="#c6a86c" d="M 129.5,62.5 C 139.167,62.5 148.833,62.5 158.5,62.5C 158.5,63.5 158.5,64.5 158.5,65.5C 158.5,66.8333 158.5,68.1667 158.5,69.5C 158.167,69.5 157.833,69.5 157.5,69.5C 148.56,67.5278 139.227,66.8611 129.5,67.5C 129.5,65.8333 129.5,64.1667 129.5,62.5 Z"/></g>
<g><path style="opacity:1" fill="#c3a569" d="M 34.5,69.5 C 34.8799,71.698 34.2132,73.3646 32.5,74.5C 29.1833,73.8348 25.6833,73.5014 22,73.5C 18.0982,73.5123 14.5982,74.179 11.5,75.5C 10.3882,73.4006 9.72148,71.0673 9.5,68.5C 13.4861,67.8343 17.6528,67.501 22,67.5C 26.5572,67.5085 30.7238,68.1752 34.5,69.5 Z"/></g>
<g><path style="opacity:1" fill="#c3a569" d="M 78.5,69.5 C 74.8183,69.3347 71.1516,69.5014 67.5,70C 66.6195,70.7083 65.9528,71.5416 65.5,72.5C 64.5318,74.6074 64.1984,76.9407 64.5,79.5C 63.5386,77.7354 63.2053,75.7354 63.5,73.5C 59.3998,73.2367 55.3998,73.5701 51.5,74.5C 51.5569,73.391 51.8902,72.391 52.5,71.5C 52.3284,70.5084 52.6618,69.8417 53.5,69.5C 54.2891,69.2172 54.9558,68.7172 55.5,68C 59.3333,67.8333 63.1667,67.6667 67,67.5C 71.229,67.5102 75.0623,68.1768 78.5,69.5 Z"/></g>
<g><path style="opacity:1" fill="#c4a76b" d="M 111.5,62.5 C 111.216,64.4147 111.549,66.0813 112.5,67.5C 112.5,69.5 112.5,71.5 112.5,73.5C 112.785,75.288 112.452,76.9547 111.5,78.5C 109.063,74.7308 105.729,72.0642 101.5,70.5C 97.9652,70.6631 96.9652,69.3298 98.5,66.5C 99.2485,65.469 99.9152,64.3024 100.5,63C 104.152,62.5014 107.818,62.3347 111.5,62.5 Z"/></g>
<g><path style="opacity:1" fill="#c3a569" d="M 129.5,67.5 C 139.227,66.8611 148.56,67.5278 157.5,69.5C 157.405,71.7857 156.738,73.7857 155.5,75.5C 147.231,73.5302 138.565,72.8636 129.5,73.5C 129.5,71.5 129.5,69.5 129.5,67.5 Z"/></g>
<g><path style="opacity:0.923" fill="#d3be85" d="M 80.5,68.5 C 81.5676,69.4345 82.901,69.7678 84.5,69.5C 83.7101,70.7942 82.7101,71.9609 81.5,73C 77.1794,73.499 72.8461,73.6657 68.5,73.5C 68.5,74.8333 68.5,76.1667 68.5,77.5C 67.5,77.5 66.5,77.5 65.5,77.5C 65.5,75.8333 65.5,74.1667 65.5,72.5C 65.9528,71.5416 66.6195,70.7083 67.5,70C 71.1516,69.5014 74.8183,69.3347 78.5,69.5C 79.1667,69.1667 79.8333,68.8333 80.5,68.5 Z"/></g>
<g><path style="opacity:0.853" fill="#d6c18a" d="M 112.5,62.5 C 113.833,62.5 115.167,62.5 116.5,62.5C 116.5,66.1667 116.5,69.8333 116.5,73.5C 115.167,73.5 113.833,73.5 112.5,73.5C 112.5,71.5 112.5,69.5 112.5,67.5C 112.5,65.8333 112.5,64.1667 112.5,62.5 Z"/></g>
<g><path style="opacity:0.857" fill="#d3be85" d="M 8.5,68.5 C 8.83333,68.5 9.16667,68.5 9.5,68.5C 9.72148,71.0673 10.3882,73.4006 11.5,75.5C 11.5,75.8333 11.5,76.1667 11.5,76.5C 10.4324,77.4345 9.09903,77.7678 7.5,77.5C 6.6295,74.8877 5.96283,72.221 5.5,69.5C 6.79105,69.7373 7.79105,69.404 8.5,68.5 Z"/></g>
<g><path style="opacity:0.859" fill="#d4be85" d="M 157.5,69.5 C 157.833,69.5 158.167,69.5 158.5,69.5C 159.5,69.5 160.5,69.5 161.5,69.5C 161.037,72.221 160.371,74.8877 159.5,77.5C 157.901,77.7678 156.568,77.4345 155.5,76.5C 155.5,76.1667 155.5,75.8333 155.5,75.5C 156.738,73.7857 157.405,71.7857 157.5,69.5 Z"/></g>
<g><path style="opacity:1" fill="#bfa165" d="M 64.5,79.5 C 65.1098,80.391 65.4431,81.391 65.5,82.5C 61.1163,80.8247 57.1163,81.1581 53.5,83.5C 50.5762,80.9436 49.9095,77.9436 51.5,74.5C 55.3998,73.5701 59.3998,73.2367 63.5,73.5C 63.2053,75.7354 63.5386,77.7354 64.5,79.5 Z"/></g>
<g><path style="opacity:1" fill="#bea064" d="M 129.5,73.5 C 138.565,72.8636 147.231,73.5302 155.5,75.5C 155.5,75.8333 155.5,76.1667 155.5,76.5C 154.199,79.1013 152.866,81.768 151.5,84.5C 151.167,84.5 150.833,84.5 150.5,84.5C 147.402,83.179 143.902,82.5123 140,82.5C 136.5,82.6667 133,82.8333 129.5,83C 128.956,83.7172 128.289,84.2172 127.5,84.5C 127.557,83.391 127.89,82.391 128.5,81.5C 129.473,79.0521 129.806,76.3854 129.5,73.5 Z"/></g>
<g><path style="opacity:0.801" fill="#d0bb80" d="M 34.5,69.5 C 34.8333,69.5 35.1667,69.5 35.5,69.5C 35.8212,71.0481 36.8212,71.7148 38.5,71.5C 37.9,74.298 36.9,76.9646 35.5,79.5C 36.5588,81.5336 37.5588,83.5336 38.5,85.5C 37.1667,85.5 35.8333,85.5 34.5,85.5C 34.1667,84.5 33.5,83.8333 32.5,83.5C 31.1667,80.5 31.1667,77.5 32.5,74.5C 34.2132,73.3646 34.8799,71.698 34.5,69.5 Z"/></g>
<g><path style="opacity:0.861" fill="#d0bb80" d="M 48.5,71.5 C 49.8333,71.5 51.1667,71.5 52.5,71.5C 51.8902,72.391 51.5569,73.391 51.5,74.5C 49.9095,77.9436 50.5762,80.9436 53.5,83.5C 53.5,83.8333 53.5,84.1667 53.5,84.5C 52.4324,85.4345 51.099,85.7678 49.5,85.5C 47.9094,83.3195 46.5761,80.9861 45.5,78.5C 46.2732,75.9658 47.2732,73.6325 48.5,71.5 Z"/></g>
<g><path style="opacity:0.847" fill="#d1bc82" d="M 101.5,70.5 C 105.729,72.0642 109.063,74.7308 111.5,78.5C 112.452,76.9547 112.785,75.288 112.5,73.5C 113.833,73.5 115.167,73.5 116.5,73.5C 117.255,79.3254 114.922,83.3254 109.5,85.5C 108.138,81.9444 106.138,78.7777 103.5,76C 99.7385,74.436 96.0719,72.936 92.5,71.5C 95.7131,71.81 98.7131,71.4767 101.5,70.5 Z"/></g>
<g><path style="opacity:0.842" fill="#d1bc82" d="M 125.5,69.5 C 126.5,69.5 127.5,69.5 128.5,69.5C 128.5,73.5 128.5,77.5 128.5,81.5C 127.89,82.391 127.557,83.391 127.5,84.5C 126.167,84.5 124.833,84.5 123.5,84.5C 125.041,79.6354 125.708,74.6354 125.5,69.5 Z"/></g>
<g><path style="opacity:1" fill="#bd9f63" d="M 32.5,74.5 C 31.1667,77.5 31.1667,80.5 32.5,83.5C 29.7521,82.8809 26.9188,82.5475 24,82.5C 21.0706,82.5248 18.5706,83.1914 16.5,84.5C 16.1667,84.5 15.8333,84.5 15.5,84.5C 14.134,81.768 12.8007,79.1013 11.5,76.5C 11.5,76.1667 11.5,75.8333 11.5,75.5C 14.5982,74.179 18.0982,73.5123 22,73.5C 25.6833,73.5014 29.1833,73.8348 32.5,74.5 Z"/></g>
<g><path style="opacity:0.812" fill="#cfba7e" d="M 11.5,76.5 C 12.8007,79.1013 14.134,81.768 15.5,84.5C 14.4324,85.4345 13.099,85.7678 11.5,85.5C 10.1667,82.8333 8.83333,80.1667 7.5,77.5C 9.09903,77.7678 10.4324,77.4345 11.5,76.5 Z"/></g>
<g><path style="opacity:0.914" fill="#ceb97d" d="M 65.5,72.5 C 65.5,74.1667 65.5,75.8333 65.5,77.5C 66.5,77.5 67.5,77.5 68.5,77.5C 69.1522,78.7251 70.3189,79.3917 72,79.5C 80.4871,80.4534 88.9871,81.2867 97.5,82C 99.9705,85.0346 101.304,88.5346 101.5,92.5C 100.167,92.5 98.8333,92.5 97.5,92.5C 97.7678,90.901 97.4345,89.5676 96.5,88.5C 96.5858,87.5041 96.2524,86.6708 95.5,86C 85.396,85.2709 75.396,84.1042 65.5,82.5C 65.4431,81.391 65.1098,80.391 64.5,79.5C 64.1984,76.9407 64.5318,74.6074 65.5,72.5 Z"/></g>
<g><path style="opacity:0.812" fill="#cfba7e" d="M 155.5,76.5 C 156.568,77.4345 157.901,77.7678 159.5,77.5C 158.167,80.1667 156.833,82.8333 155.5,85.5C 153.901,85.7678 152.568,85.4345 151.5,84.5C 152.866,81.768 154.199,79.1013 155.5,76.5 Z"/></g>
<g><path style="opacity:1" fill="#b99b5f" d="M 32.5,83.5 C 33.5,83.8333 34.1667,84.5 34.5,85.5C 35.6005,86.6049 36.2671,87.9382 36.5,89.5C 33.8096,87.9353 30.8096,87.2687 27.5,87.5C 24.7305,87.5286 22.3972,88.1952 20.5,89.5C 18.457,88.4206 17.1237,86.754 16.5,84.5C 18.5706,83.1914 21.0706,82.5248 24,82.5C 26.9188,82.5475 29.7521,82.8809 32.5,83.5 Z"/></g>
<g><path style="opacity:1" fill="#b99b60" d="M 65.5,82.5 C 75.396,84.1042 85.396,85.2709 95.5,86C 96.2524,86.6708 96.5858,87.5041 96.5,88.5C 89.9102,87.8515 83.2436,87.5181 76.5,87.5C 69.7963,87.5036 63.463,88.1702 57.5,89.5C 56.1667,87.8333 54.8333,86.1667 53.5,84.5C 53.5,84.1667 53.5,83.8333 53.5,83.5C 57.1163,81.1581 61.1163,80.8247 65.5,82.5 Z"/></g>
<g><path style="opacity:1" fill="#b89a5f" d="M 150.5,84.5 C 149.876,86.754 148.543,88.4206 146.5,89.5C 143.742,88.1818 140.576,87.5152 137,87.5C 132.584,87.274 128.417,87.9407 124.5,89.5C 125.752,87.9991 126.752,86.3325 127.5,84.5C 128.289,84.2172 128.956,83.7172 129.5,83C 133,82.8333 136.5,82.6667 140,82.5C 143.902,82.5123 147.402,83.179 150.5,84.5 Z"/></g>
<g><path style="opacity:0.82" fill="#cab576" d="M 15.5,84.5 C 15.8333,84.5 16.1667,84.5 16.5,84.5C 17.1237,86.754 18.457,88.4206 20.5,89.5C 21.7573,92.4274 23.7573,94.7607 26.5,96.5C 25.0813,97.4511 23.4147,97.7845 21.5,97.5C 17.8197,93.817 14.4864,89.817 11.5,85.5C 13.099,85.7678 14.4324,85.4345 15.5,84.5 Z"/></g>
<g><path style="opacity:0.801" fill="#cbb778" d="M 34.5,85.5 C 35.8333,85.5 37.1667,85.5 38.5,85.5C 40.6326,87.0905 42.2993,89.0905 43.5,91.5C 41.8333,91.5 40.1667,91.5 38.5,91.5C 38.1667,90.5 37.5,89.8333 36.5,89.5C 36.2671,87.9382 35.6005,86.6049 34.5,85.5 Z"/></g>
<g><path style="opacity:0.79" fill="#ccb778" d="M 123.5,84.5 C 124.833,84.5 126.167,84.5 127.5,84.5C 126.752,86.3325 125.752,87.9991 124.5,89.5C 123.5,90.1667 122.5,90.8333 121.5,91.5C 119.833,91.5 118.167,91.5 116.5,91.5C 118.833,89.1667 121.167,86.8333 123.5,84.5 Z"/></g>
<g><path style="opacity:0.793" fill="#cbb677" d="M 150.5,84.5 C 150.833,84.5 151.167,84.5 151.5,84.5C 152.568,85.4345 153.901,85.7678 155.5,85.5C 154.2,88.4323 152.2,90.7656 149.5,92.5C 148.167,92.5 146.833,92.5 145.5,92.5C 146.11,91.609 146.443,90.609 146.5,89.5C 148.543,88.4206 149.876,86.754 150.5,84.5 Z"/></g>
<g><path style="opacity:1" fill="#b5975c" d="M 96.5,88.5 C 97.4345,89.5676 97.7678,90.901 97.5,92.5C 91.2387,91.2072 84.7387,90.5405 78,90.5C 71.8333,90.6667 65.6667,90.8333 59.5,91C 60.2524,91.6708 60.5858,92.5041 60.5,93.5C 59.0256,92.5637 58.0256,91.2303 57.5,89.5C 63.463,88.1702 69.7963,87.5036 76.5,87.5C 83.2436,87.5181 89.9102,87.8515 96.5,88.5 Z"/></g>
<g><path style="opacity:1" fill="#b3965b" d="M 36.5,89.5 C 37.5,89.8333 38.1667,90.5 38.5,91.5C 39.5981,92.397 39.5981,93.2303 38.5,94C 35.0348,94.6499 32.0348,96.1499 29.5,98.5C 28.4822,97.8075 27.4822,97.1408 26.5,96.5C 23.7573,94.7607 21.7573,92.4274 20.5,89.5C 22.3972,88.1952 24.7305,87.5286 27.5,87.5C 30.8096,87.2687 33.8096,87.9353 36.5,89.5 Z"/></g>
<g><path style="opacity:1" fill="#b19358" d="M 97.5,92.5 C 98.3007,94.0418 98.634,95.7085 98.5,97.5C 86.784,96.8556 75.4507,97.5223 64.5,99.5C 63.2719,98.6935 62.2719,97.6935 61.5,96.5C 60.8902,95.609 60.5569,94.609 60.5,93.5C 60.5858,92.5041 60.2524,91.6708 59.5,91C 65.6667,90.8333 71.8333,90.6667 78,90.5C 84.7387,90.5405 91.2387,91.2072 97.5,92.5 Z"/></g>
<g><path style="opacity:1" fill="#b4965b" d="M 146.5,89.5 C 146.443,90.609 146.11,91.609 145.5,92.5C 143.135,94.8603 140.468,96.8603 137.5,98.5C 132.258,93.9189 126.258,92.4189 119.5,94C 120.381,93.2917 121.047,92.4584 121.5,91.5C 122.5,90.8333 123.5,90.1667 124.5,89.5C 128.417,87.9407 132.584,87.274 137,87.5C 140.576,87.5152 143.742,88.1818 146.5,89.5 Z"/></g>
<g><path style="opacity:0.908" fill="#c6b270" d="M 38.5,91.5 C 40.1667,91.5 41.8333,91.5 43.5,91.5C 45.0324,94.0574 46.6991,96.5574 48.5,99C 41.3314,96.1687 35.1647,97.6687 30,103.5C 26.7194,102.04 23.8861,100.04 21.5,97.5C 23.4147,97.7845 25.0813,97.4511 26.5,96.5C 27.4822,97.1408 28.4822,97.8075 29.5,98.5C 32.0348,96.1499 35.0348,94.6499 38.5,94C 39.5981,93.2303 39.5981,92.397 38.5,91.5 Z"/></g>
<g><path style="opacity:0.81" fill="#c9b474" d="M 53.5,84.5 C 54.8333,86.1667 56.1667,87.8333 57.5,89.5C 58.0256,91.2303 59.0256,92.5637 60.5,93.5C 60.5569,94.609 60.8902,95.609 61.5,96.5C 60.4324,97.4345 59.099,97.7678 57.5,97.5C 54.8333,93.5 52.1667,89.5 49.5,85.5C 51.099,85.7678 52.4324,85.4345 53.5,84.5 Z"/></g>
<g><path style="opacity:0.878" fill="#c6b16f" d="M 116.5,91.5 C 118.167,91.5 119.833,91.5 121.5,91.5C 121.047,92.4584 120.381,93.2917 119.5,94C 126.258,92.4189 132.258,93.9189 137.5,98.5C 140.468,96.8603 143.135,94.8603 145.5,92.5C 146.833,92.5 148.167,92.5 149.5,92.5C 148.772,94.7346 147.439,96.5679 145.5,98C 142.926,100.243 140.092,102.076 137,103.5C 129.319,95.6488 121.486,95.6488 113.5,103.5C 112.343,100.216 112.176,96.8823 113,93.5C 114.113,92.695 115.279,92.0283 116.5,91.5 Z"/></g>
<g><path style="opacity:1" fill="#ab8e53" d="M 98.5,97.5 C 99.1667,99.1667 99.8333,100.833 100.5,102.5C 100.5,103.833 100.5,105.167 100.5,106.5C 99.7515,105.469 99.0848,104.302 98.5,103C 93.5,102.833 88.5,102.667 83.5,102.5C 78.1194,102.506 73.1194,103.172 68.5,104.5C 68.1667,104.5 67.8333,104.5 67.5,104.5C 66.075,103.078 65.075,101.411 64.5,99.5C 75.4507,97.5223 86.784,96.8556 98.5,97.5 Z"/></g>
<g><path style="opacity:0.845" fill="#c5b16e" d="M 97.5,92.5 C 98.8333,92.5 100.167,92.5 101.5,92.5C 102.482,95.7635 103.149,99.0968 103.5,102.5C 102.5,102.5 101.5,102.5 100.5,102.5C 99.8333,100.833 99.1667,99.1667 98.5,97.5C 98.634,95.7085 98.3007,94.0418 97.5,92.5 Z"/></g>
<g><path style="opacity:0.844" fill="#c2ae69" d="M 61.5,96.5 C 62.2719,97.6935 63.2719,98.6935 64.5,99.5C 65.075,101.411 66.075,103.078 67.5,104.5C 66.4324,105.434 65.099,105.768 63.5,105.5C 61.5116,102.872 59.5116,100.205 57.5,97.5C 59.099,97.7678 60.4324,97.4345 61.5,96.5 Z"/></g>
<g><path style="opacity:1" fill="#a5884f" d="M 100.5,106.5 C 101.434,107.568 101.768,108.901 101.5,110.5C 90.7549,108.558 79.7549,107.891 68.5,108.5C 68.5,107.167 68.5,105.833 68.5,104.5C 73.1194,103.172 78.1194,102.506 83.5,102.5C 88.5,102.667 93.5,102.833 98.5,103C 99.0848,104.302 99.7515,105.469 100.5,106.5 Z"/></g>
<g><path style="opacity:0.882" fill="#bda962" d="M 67.5,104.5 C 67.8333,104.5 68.1667,104.5 68.5,104.5C 68.5,105.833 68.5,107.167 68.5,108.5C 67.5592,110.05 66.8925,111.716 66.5,113.5C 65.1667,113.5 63.8333,113.5 62.5,113.5C 63.8477,110.835 64.181,108.169 63.5,105.5C 65.099,105.768 66.4324,105.434 67.5,104.5 Z"/></g>
<g><path style="opacity:0.905" fill="#bca861" d="M 100.5,102.5 C 101.5,102.5 102.5,102.5 103.5,102.5C 104.957,107.782 106.291,113.115 107.5,118.5C 106.167,118.5 104.833,118.5 103.5,118.5C 103.405,116.214 102.738,114.214 101.5,112.5C 101.5,111.833 101.5,111.167 101.5,110.5C 101.768,108.901 101.434,107.568 100.5,106.5C 100.5,105.167 100.5,103.833 100.5,102.5 Z"/></g>
<g><path style="opacity:1" fill="#9f824a" d="M 68.5,108.5 C 79.7549,107.891 90.7549,108.558 101.5,110.5C 101.5,111.167 101.5,111.833 101.5,112.5C 101.5,113.167 101.5,113.833 101.5,114.5C 89.7527,114.189 78.0861,114.522 66.5,115.5C 66.5,114.833 66.5,114.167 66.5,113.5C 66.8925,111.716 67.5592,110.05 68.5,108.5 Z"/></g>
<g><path style="opacity:0.814" fill="#baa65d" d="M 52.5,118.5 C 49.5,118.5 46.5,118.5 43.5,118.5C 46.7961,114.702 50.2961,111.036 54,107.5C 54.5,108 55,108.5 55.5,109C 54.1148,112.039 53.1148,115.206 52.5,118.5 Z"/></g>
<g><path style="opacity:0.847" fill="#b8a45b" d="M 62.5,113.5 C 63.8333,113.5 65.1667,113.5 66.5,113.5C 66.5,114.167 66.5,114.833 66.5,115.5C 65.4625,116.93 64.7959,118.597 64.5,120.5C 64.5,120.833 64.5,121.167 64.5,121.5C 63.1667,121.5 61.8333,121.5 60.5,121.5C 60.9628,118.779 61.6295,116.112 62.5,113.5 Z"/></g>
<g><path style="opacity:1" fill="#9a7e46" d="M 101.5,114.5 C 101.833,115.833 102.167,117.167 102.5,118.5C 90.4954,118.333 78.4954,118.5 66.5,119C 65.9558,119.717 65.2891,120.217 64.5,120.5C 64.7959,118.597 65.4625,116.93 66.5,115.5C 78.0861,114.522 89.7527,114.189 101.5,114.5 Z"/></g>
<g><path style="opacity:0.65" fill="#baa55c" d="M 122.5,118.5 C 120.5,118.5 118.5,118.5 116.5,118.5C 115.717,116.657 115.05,114.657 114.5,112.5C 114.833,112.167 115.167,111.833 115.5,111.5C 118.188,113.521 120.521,115.854 122.5,118.5 Z"/></g>
<g><path style="opacity:0.849" fill="#b7a058" d="M 43.5,118.5 C 46.5,118.5 49.5,118.5 52.5,118.5C 51.8333,120.167 51.1667,121.833 50.5,123.5C 49.5,123.5 48.5,123.5 47.5,123.5C 47.719,122.325 47.3857,121.325 46.5,120.5C 45.8933,120.624 45.56,120.957 45.5,121.5C 43.8333,121.5 42.1667,121.5 40.5,121.5C 41.1667,120.167 42.1667,119.167 43.5,118.5 Z"/></g>
<g><path style="opacity:1" fill="#977b43" d="M 102.5,118.5 C 102.5,119.167 102.833,119.5 103.5,119.5C 104.301,121.042 104.634,122.708 104.5,124.5C 103.596,123.791 103.263,122.791 103.5,121.5C 90.4206,121.186 77.4206,121.52 64.5,122.5C 64.5,122.167 64.5,121.833 64.5,121.5C 64.5,121.167 64.5,120.833 64.5,120.5C 65.2891,120.217 65.9558,119.717 66.5,119C 78.4954,118.5 90.4954,118.333 102.5,118.5 Z"/></g>
<g><path style="opacity:1" fill="#a48b4d" d="M 101.5,112.5 C 102.738,114.214 103.405,116.214 103.5,118.5C 103.5,118.833 103.5,119.167 103.5,119.5C 102.833,119.5 102.5,119.167 102.5,118.5C 102.167,117.167 101.833,115.833 101.5,114.5C 101.5,113.833 101.5,113.167 101.5,112.5 Z"/></g>
<g><path style="opacity:1" fill="#947840" d="M 104.5,124.5 C 105.434,125.568 105.768,126.901 105.5,128.5C 91.7448,126.545 77.7448,125.878 63.5,126.5C 63.7709,128.38 63.1042,129.713 61.5,130.5C 62.129,127.603 63.129,124.936 64.5,122.5C 77.4206,121.52 90.4206,121.186 103.5,121.5C 103.263,122.791 103.596,123.791 104.5,124.5 Z"/></g>
<g><path style="opacity:0.805" fill="#b59c54" d="M 103.5,118.5 C 104.833,118.5 106.167,118.5 107.5,118.5C 108.326,122.136 108.992,125.803 109.5,129.5C 108.041,129.567 106.708,129.234 105.5,128.5C 105.768,126.901 105.434,125.568 104.5,124.5C 104.634,122.708 104.301,121.042 103.5,119.5C 103.5,119.167 103.5,118.833 103.5,118.5 Z"/></g>
<g><path style="opacity:0.818" fill="#b59d55" d="M 116.5,118.5 C 118.5,118.5 120.5,118.5 122.5,118.5C 125.5,120.833 128.167,123.5 130.5,126.5C 128.833,126.5 127.167,126.5 125.5,126.5C 124.206,125.71 123.039,124.71 122,123.5C 121.517,124.448 121.351,125.448 121.5,126.5C 120.167,126.5 118.833,126.5 117.5,126.5C 117.167,123.833 116.833,121.167 116.5,118.5 Z"/></g>
<g><path style="opacity:0.831" fill="#b29952" d="M 40.5,121.5 C 42.1667,121.5 43.8333,121.5 45.5,121.5C 43.1667,124.167 40.8333,126.833 38.5,129.5C 38.1667,129.5 37.8333,129.5 37.5,129.5C 35.8333,129.5 34.1667,129.5 32.5,129.5C 34.8333,126.5 37.5,123.833 40.5,121.5 Z"/></g>
<g><path style="opacity:0.842" fill="#b29851" d="M 60.5,121.5 C 61.8333,121.5 63.1667,121.5 64.5,121.5C 64.5,121.833 64.5,122.167 64.5,122.5C 63.129,124.936 62.129,127.603 61.5,130.5C 60.8902,131.391 60.5569,132.391 60.5,133.5C 59.1667,133.5 57.8333,133.5 56.5,133.5C 57.6321,129.437 58.9654,125.437 60.5,121.5 Z"/></g>
<g><path style="opacity:1" fill="#997d42" d="M 125.5,126.5 C 125.833,127.167 126.167,127.833 126.5,128.5C 124.821,128.285 123.821,128.952 123.5,130.5C 123.167,130.5 122.833,130.5 122.5,130.5C 122.567,129.041 122.234,127.708 121.5,126.5C 121.351,125.448 121.517,124.448 122,123.5C 123.039,124.71 124.206,125.71 125.5,126.5 Z"/></g>
<g><path style="opacity:1" fill="#957940" d="M 45.5,121.5 C 46.3032,125.317 45.6366,128.984 43.5,132.5C 43.5,131.167 43.5,129.833 43.5,128.5C 41.7839,128.629 40.1172,128.962 38.5,129.5C 40.8333,126.833 43.1667,124.167 45.5,121.5 Z"/></g>
<g><path style="opacity:1" fill="#8f733c" d="M 105.5,128.5 C 106.16,130.816 106.827,133.149 107.5,135.5C 107.457,136.416 107.124,137.083 106.5,137.5C 106.737,136.209 106.404,135.209 105.5,134.5C 105.5,133.5 105.5,132.5 105.5,131.5C 91.1628,131.333 76.8295,131.5 62.5,132C 61.7476,132.671 61.4142,133.504 61.5,134.5C 61.5,135.167 61.1667,135.5 60.5,135.5C 60.5,134.833 60.5,134.167 60.5,133.5C 60.5569,132.391 60.8902,131.391 61.5,130.5C 63.1042,129.713 63.7709,128.38 63.5,126.5C 77.7448,125.878 91.7448,126.545 105.5,128.5 Z"/></g>
<g><path style="opacity:0.866" fill="#b0944e" d="M 45.5,121.5 C 45.56,120.957 45.8933,120.624 46.5,120.5C 47.3857,121.325 47.719,122.325 47.5,123.5C 48.5,123.5 49.5,123.5 50.5,123.5C 49.5,127.5 48.5,131.5 47.5,135.5C 45.901,135.768 44.5676,135.434 43.5,134.5C 43.5,133.833 43.5,133.167 43.5,132.5C 45.6366,128.984 46.3032,125.317 45.5,121.5 Z"/></g>
<g><path style="opacity:0.842" fill="#b0944e" d="M 117.5,126.5 C 118.833,126.5 120.167,126.5 121.5,126.5C 122.234,127.708 122.567,129.041 122.5,130.5C 122.5,131.5 122.5,132.5 122.5,133.5C 121.5,133.5 120.5,133.5 119.5,133.5C 118.985,131.106 118.319,128.772 117.5,126.5 Z"/></g>
<g><path style="opacity:0.78" fill="#b0944d" d="M 125.5,126.5 C 127.167,126.5 128.833,126.5 130.5,126.5C 133.833,129.167 136.833,132.167 139.5,135.5C 137.833,135.5 136.167,135.5 134.5,135.5C 131.833,133.167 129.167,130.833 126.5,128.5C 126.167,127.833 125.833,127.167 125.5,126.5 Z"/></g>
<g><path style="opacity:1" fill="#8a6f39" d="M 105.5,134.5 C 90.8333,134.5 76.1667,134.5 61.5,134.5C 61.4142,133.504 61.7476,132.671 62.5,132C 76.8295,131.5 91.1628,131.333 105.5,131.5C 105.5,132.5 105.5,133.5 105.5,134.5 Z"/></g>
<g><path style="opacity:0.818" fill="#ad904a" d="M 32.5,129.5 C 34.1667,129.5 35.8333,129.5 37.5,129.5C 35.7607,132.243 33.4274,134.243 30.5,135.5C 28.5,135.5 26.5,135.5 24.5,135.5C 27.1283,133.512 29.795,131.512 32.5,129.5 Z"/></g>
<g><path style="opacity:1" fill="#8a6e38" d="M 43.5,132.5 C 43.5,133.167 43.5,133.833 43.5,134.5C 42.8971,137.175 41.5638,139.508 39.5,141.5C 39.1667,141.5 38.8333,141.5 38.5,141.5C 36.9522,140.206 34.9522,139.539 32.5,139.5C 29.1453,139.724 25.812,140.057 22.5,140.5C 25.47,139.347 28.1367,137.68 30.5,135.5C 33.4274,134.243 35.7607,132.243 37.5,129.5C 37.8333,129.5 38.1667,129.5 38.5,129.5C 40.1172,128.962 41.7839,128.629 43.5,128.5C 43.5,129.833 43.5,131.167 43.5,132.5 Z"/></g>
<g><path style="opacity:1" fill="#886c37" d="M 61.5,134.5 C 76.1667,134.5 90.8333,134.5 105.5,134.5C 106.404,135.209 106.737,136.209 106.5,137.5C 105.473,139.194 104.139,140.527 102.5,141.5C 102.167,141.5 101.833,141.5 101.5,141.5C 95.8725,140.171 89.8725,139.504 83.5,139.5C 77.1275,139.504 71.1275,140.171 65.5,141.5C 65.1667,141.5 64.8333,141.5 64.5,141.5C 61.9558,140.292 60.6225,138.292 60.5,135.5C 61.1667,135.5 61.5,135.167 61.5,134.5 Z"/></g>
<g><path style="opacity:1" fill="#8a6e38" d="M 126.5,128.5 C 129.167,130.833 131.833,133.167 134.5,135.5C 135.527,137.194 136.861,138.527 138.5,139.5C 134.351,138.92 130.684,139.586 127.5,141.5C 126.5,140.833 125.5,140.167 124.5,139.5C 123.841,136.545 123.508,133.545 123.5,130.5C 123.821,128.952 124.821,128.285 126.5,128.5 Z"/></g>
<g><path style="opacity:0.843" fill="#aa8b46" d="M 24.5,135.5 C 26.5,135.5 28.5,135.5 30.5,135.5C 28.1367,137.68 25.47,139.347 22.5,140.5C 20.2362,141.219 17.9029,141.552 15.5,141.5C 12.9407,141.198 10.6074,141.532 8.5,142.5C 6.83333,142.5 5.16667,142.5 3.5,142.5C 3.33003,141.178 3.66337,140.011 4.5,139C 11.3589,138.794 18.0256,137.628 24.5,135.5 Z"/></g>
<g><path style="opacity:0.845" fill="#aa8b45" d="M 43.5,134.5 C 44.5676,135.434 45.901,135.768 47.5,135.5C 46.9049,138.317 45.5716,140.65 43.5,142.5C 41.901,142.768 40.5676,142.434 39.5,141.5C 41.5638,139.508 42.8971,137.175 43.5,134.5 Z"/></g>
<g><path style="opacity:0.818" fill="#ab8b46" d="M 56.5,133.5 C 57.8333,133.5 59.1667,133.5 60.5,133.5C 60.5,134.167 60.5,134.833 60.5,135.5C 60.6225,138.292 61.9558,140.292 64.5,141.5C 63.4324,142.434 62.099,142.768 60.5,142.5C 55.7194,141.052 54.3861,138.052 56.5,133.5 Z"/></g>
<g><path style="opacity:0.829" fill="#ac8d47" d="M 105.5,128.5 C 106.708,129.234 108.041,129.567 109.5,129.5C 110.963,132.686 111.463,136.02 111,139.5C 109.729,140.883 108.229,141.883 106.5,142.5C 104.901,142.768 103.568,142.434 102.5,141.5C 104.139,140.527 105.473,139.194 106.5,137.5C 107.124,137.083 107.457,136.416 107.5,135.5C 106.827,133.149 106.16,130.816 105.5,128.5 Z"/></g>
<g><path style="opacity:0.818" fill="#ac8d47" d="M 122.5,130.5 C 122.833,130.5 123.167,130.5 123.5,130.5C 123.508,133.545 123.841,136.545 124.5,139.5C 123.791,140.404 122.791,140.737 121.5,140.5C 120.388,138.401 119.721,136.067 119.5,133.5C 120.5,133.5 121.5,133.5 122.5,133.5C 122.5,132.5 122.5,131.5 122.5,130.5 Z"/></g>
<g><path style="opacity:0.735" fill="#aa8a45" d="M 134.5,135.5 C 136.167,135.5 137.833,135.5 139.5,135.5C 146.798,138.632 154.464,140.299 162.5,140.5C 162.863,141.183 163.196,141.85 163.5,142.5C 158.167,142.5 152.833,142.5 147.5,142.5C 144.327,141.958 141.327,140.958 138.5,139.5C 136.861,138.527 135.527,137.194 134.5,135.5 Z"/></g>
<g><path style="opacity:1" fill="#846933" d="M 101.5,141.5 C 99.8333,143.833 97.8333,145.833 95.5,147.5C 91.893,146.176 87.893,145.509 83.5,145.5C 79.5,145.667 75.5,145.833 71.5,146C 72.2524,146.671 72.5858,147.504 72.5,148.5C 69.8333,146.5 67.5,144.167 65.5,141.5C 71.1275,140.171 77.1275,139.504 83.5,139.5C 89.8725,139.504 95.8725,140.171 101.5,141.5 Z"/></g>
<g><path style="opacity:1" fill="#9c7d3e" d="M 15.5,141.5 C 13.5,142.167 11.5,142.833 9.5,143.5C 8.83333,143.5 8.5,143.167 8.5,142.5C 10.6074,141.532 12.9407,141.198 15.5,141.5 Z"/></g>
<g><path style="opacity:1" fill="#846833" d="M 38.5,141.5 C 37.1667,143.167 35.8333,144.833 34.5,146.5C 33.8333,146.833 33.1667,147.167 32.5,147.5C 29.7425,146.182 26.5758,145.515 23,145.5C 19.8333,145.667 16.6667,145.833 13.5,146C 14.2524,146.671 14.5858,147.504 14.5,148.5C 12.5,147.167 10.8333,145.5 9.5,143.5C 11.5,142.833 13.5,142.167 15.5,141.5C 17.9029,141.552 20.2362,141.219 22.5,140.5C 25.812,140.057 29.1453,139.724 32.5,139.5C 34.9522,139.539 36.9522,140.206 38.5,141.5 Z"/></g>
<g><path style="opacity:1" fill="#846833" d="M 138.5,139.5 C 141.327,140.958 144.327,141.958 147.5,142.5C 150.689,143.166 154.023,143.833 157.5,144.5C 157.145,145.522 156.478,146.189 155.5,146.5C 147.833,145.167 140.167,145.167 132.5,146.5C 132.167,146.5 131.833,146.5 131.5,146.5C 130.167,144.833 128.833,143.167 127.5,141.5C 130.684,139.586 134.351,138.92 138.5,139.5 Z"/></g>
<g><path style="opacity:0.785" fill="#a78540" d="M 38.5,141.5 C 38.8333,141.5 39.1667,141.5 39.5,141.5C 40.5676,142.434 41.901,142.768 43.5,142.5C 42.1667,144.5 40.5,146.167 38.5,147.5C 36.901,147.768 35.5676,147.434 34.5,146.5C 35.8333,144.833 37.1667,143.167 38.5,141.5 Z"/></g>
<g><path style="opacity:0.828" fill="#a6843f" d="M 64.5,141.5 C 64.8333,141.5 65.1667,141.5 65.5,141.5C 67.5,144.167 69.8333,146.5 72.5,148.5C 72.8333,149.5 73.5,150.167 74.5,150.5C 73.0813,151.451 71.4147,151.784 69.5,151.5C 66.1667,148.833 63.1667,145.833 60.5,142.5C 62.099,142.768 63.4324,142.434 64.5,141.5 Z"/></g>
<g><path style="opacity:0.828" fill="#a6843f" d="M 101.5,141.5 C 101.833,141.5 102.167,141.5 102.5,141.5C 103.568,142.434 104.901,142.768 106.5,142.5C 103.833,145.833 100.833,148.833 97.5,151.5C 95.5853,151.784 93.9187,151.451 92.5,150.5C 93.8333,149.833 94.8333,148.833 95.5,147.5C 97.8333,145.833 99.8333,143.833 101.5,141.5 Z"/></g>
<g><path style="opacity:0.854" fill="#a68540" d="M 124.5,139.5 C 125.5,140.167 126.5,140.833 127.5,141.5C 128.833,143.167 130.167,144.833 131.5,146.5C 130.432,147.434 129.099,147.768 127.5,147.5C 124.757,145.761 122.757,143.427 121.5,140.5C 122.791,140.737 123.791,140.404 124.5,139.5 Z"/></g>
<g><path style="opacity:0.848" fill="#a5833f" d="M 147.5,142.5 C 152.833,142.5 158.167,142.5 163.5,142.5C 162.345,146.332 160.012,149.332 156.5,151.5C 154.901,151.768 153.568,151.434 152.5,150.5C 153.5,149.167 154.5,147.833 155.5,146.5C 156.478,146.189 157.145,145.522 157.5,144.5C 154.023,143.833 150.689,143.166 147.5,142.5 Z"/></g>
<g><path style="opacity:1" fill="#7f6430" d="M 32.5,147.5 C 29.8544,150.812 26.8544,153.812 23.5,156.5C 20.4802,153.811 17.4802,151.144 14.5,148.5C 14.5858,147.504 14.2524,146.671 13.5,146C 16.6667,145.833 19.8333,145.667 23,145.5C 26.5758,145.515 29.7425,146.182 32.5,147.5 Z"/></g>
<g><path style="opacity:1" fill="#7e632f" d="M 95.5,147.5 C 94.8333,148.833 93.8333,149.833 92.5,150.5C 89.5198,153.144 86.5198,155.811 83.5,158.5C 80.4802,155.811 77.4802,153.144 74.5,150.5C 73.5,150.167 72.8333,149.5 72.5,148.5C 72.5858,147.504 72.2524,146.671 71.5,146C 75.5,145.833 79.5,145.667 83.5,145.5C 87.893,145.509 91.893,146.176 95.5,147.5 Z"/></g>
<g><path style="opacity:1" fill="#7f642f" d="M 155.5,146.5 C 154.5,147.833 153.5,149.167 152.5,150.5C 149.52,153.144 146.52,155.811 143.5,158.5C 139.102,155.105 135.436,151.105 132.5,146.5C 140.167,145.167 147.833,145.167 155.5,146.5 Z"/></g>
<g><path style="opacity:0.773" fill="#9f7d3a" d="M 3.5,142.5 C 5.16667,142.5 6.83333,142.5 8.5,142.5C 8.5,143.167 8.83333,143.5 9.5,143.5C 10.8333,145.5 12.5,147.167 14.5,148.5C 17.4802,151.144 20.4802,153.811 23.5,156.5C 26.8544,153.812 29.8544,150.812 32.5,147.5C 33.1667,147.167 33.8333,146.833 34.5,146.5C 35.5676,147.434 36.901,147.768 38.5,147.5C 33.8544,152.812 28.8544,157.812 23.5,162.5C 18.6492,157.815 13.6492,153.315 8.5,149C 6.21008,147.223 4.54341,145.056 3.5,142.5 Z"/></g>
<g><path style="opacity:0.798" fill="#9d7b38" d="M 74.5,150.5 C 77.4802,153.144 80.4802,155.811 83.5,158.5C 86.5198,155.811 89.5198,153.144 92.5,150.5C 93.9187,151.451 95.5853,151.784 97.5,151.5C 93.1458,155.853 88.4791,159.853 83.5,163.5C 78.5209,159.853 73.8542,155.853 69.5,151.5C 71.4147,151.784 73.0813,151.451 74.5,150.5 Z"/></g>
<g><path style="opacity:0.794" fill="#9e7c39" d="M 131.5,146.5 C 131.833,146.5 132.167,146.5 132.5,146.5C 135.436,151.105 139.102,155.105 143.5,158.5C 146.52,155.811 149.52,153.144 152.5,150.5C 153.568,151.434 154.901,151.768 156.5,151.5C 152.777,156.39 148.277,160.39 143,163.5C 137.698,158.363 132.531,153.03 127.5,147.5C 129.099,147.768 130.432,147.434 131.5,146.5 Z"/></g>
</svg>
