<?xml version="1.0" encoding="UTF-8"?>
<!DOCTYPE svg PUBLIC "-//W3C//DTD SVG 1.1//EN" "http://www.w3.org/Graphics/SVG/1.1/DTD/svg11.dtd">
<svg xmlns="http://www.w3.org/2000/svg" version="1.1" width="168px" height="168px" style="shape-rendering:geometricPrecision; text-rendering:geometricPrecision; image-rendering:optimizeQuality; fill-rule:evenodd; clip-rule:evenodd" xmlns:xlink="http://www.w3.org/1999/xlink">
<g><path style="opacity:0.835" fill="#dbd1b0" d="M 142.5,20.5 C 139.167,20.5 135.833,20.5 132.5,20.5C 131.833,20.5 131.167,20.5 130.5,20.5C 115.694,12.4613 99.694,7.79466 82.5,6.5C 75.3664,6.87618 68.3664,8.04285 61.5,10C 52.1818,13.6052 42.8484,17.1052 33.5,20.5C 30.5,20.5 27.5,20.5 24.5,20.5C 36.6944,15.5962 49.0278,10.7629 61.5,6C 76.1667,2.66667 90.8333,2.66667 105.5,6C 117.972,10.7629 130.306,15.5962 142.5,20.5 Z"/></g>
<g><path style="opacity:1" fill="#d0c094" d="M 130.5,20.5 C 129.508,20.3284 128.842,20.6618 128.5,21.5C 126.035,21.233 123.701,20.5664 121.5,19.5C 104.733,11.0465 87.0662,8.21316 68.5,11C 60.6962,13.7644 53.0295,16.5977 45.5,19.5C 39.9465,21.0897 34.6131,23.0897 29.5,25.5C 30.6602,23.7973 29.9935,23.1307 27.5,23.5C 29.5,22.5 31.5,21.5 33.5,20.5C 42.8484,17.1052 52.1818,13.6052 61.5,10C 68.3664,8.04285 75.3664,6.87618 82.5,6.5C 99.694,7.79466 115.694,12.4613 130.5,20.5 Z"/></g>
<g><path style="opacity:0.863" fill="#dbd0af" d="M 121.5,19.5 C 119.393,20.4682 117.059,20.8016 114.5,20.5C 100.386,14.2031 85.7197,12.3698 70.5,15C 64.398,16.5539 58.398,18.3873 52.5,20.5C 49.9407,20.8016 47.6074,20.4682 45.5,19.5C 53.0295,16.5977 60.6962,13.7644 68.5,11C 87.0662,8.21316 104.733,11.0465 121.5,19.5 Z"/></g>
<g><path style="opacity:0.829" fill="#dbcea9" d="M 45.5,19.5 C 47.6074,20.4682 49.9407,20.8016 52.5,20.5C 40.4636,25.7958 28.1302,30.6291 15.5,35C 14.9874,37.7181 14.9874,40.5515 15.5,43.5C 14.0413,43.5674 12.7079,43.2341 11.5,42.5C 11.5567,40.1155 11.2234,37.7822 10.5,35.5C 10.7517,33.9271 11.4183,32.5938 12.5,31.5C 18.2162,29.6539 23.8828,27.6539 29.5,25.5C 34.6131,23.0897 39.9465,21.0897 45.5,19.5 Z"/></g>
<g><path style="opacity:0.829" fill="#dbcfab" d="M 121.5,19.5 C 123.701,20.5664 126.035,21.233 128.5,21.5C 137.183,25.7331 146.183,29.3998 155.5,32.5C 155.5,32.8333 155.5,33.1667 155.5,33.5C 155.5,34.5 155.5,35.5 155.5,36.5C 154.5,36.5 153.5,36.5 152.5,36.5C 139.949,30.9802 127.282,25.6469 114.5,20.5C 117.059,20.8016 119.393,20.4682 121.5,19.5 Z"/></g>
<g><path style="opacity:0.861" fill="#dbceaa" d="M 24.5,20.5 C 27.5,20.5 30.5,20.5 33.5,20.5C 31.5,21.5 29.5,22.5 27.5,23.5C 21.2669,25.4623 15.2669,27.7956 9.5,30.5C 8.27493,31.1522 7.60826,32.3189 7.5,34C 8.10745,37.1429 8.44078,40.3095 8.5,43.5C 7.5,43.5 6.5,43.5 5.5,43.5C 3.94761,38.7254 3.44761,33.7254 4,28.5C 10.6432,25.3413 17.4765,22.6746 24.5,20.5 Z"/></g>
<g><path style="opacity:0.755" fill="#dbcfab" d="M 82.5,19.5 C 88.1242,23.1242 92.7909,27.7908 96.5,33.5C 87.8333,34.8333 79.1667,34.8333 70.5,33.5C 74.1484,28.5193 78.1484,23.8527 82.5,19.5 Z"/></g>
<g><path style="opacity:0.862" fill="#dbceaa" d="M 132.5,20.5 C 135.833,20.5 139.167,20.5 142.5,20.5C 149.523,22.6746 156.357,25.3413 163,28.5C 163.552,33.7254 163.052,38.7254 161.5,43.5C 160.5,43.5 159.5,43.5 158.5,43.5C 158.559,40.3095 158.893,37.1429 159.5,34C 159.392,32.3189 158.725,31.1522 157.5,30.5C 149.141,27.117 140.807,23.7836 132.5,20.5 Z"/></g>
<g><path style="opacity:1" fill="#cfbd8d" d="M 27.5,23.5 C 29.9935,23.1307 30.6602,23.7973 29.5,25.5C 23.8828,27.6539 18.2162,29.6539 12.5,31.5C 11.791,30.596 10.791,30.2627 9.5,30.5C 15.2669,27.7956 21.2669,25.4623 27.5,23.5 Z"/></g>
<g><path style="opacity:1" fill="#d0be8d" d="M 82.5,25.5 C 84.7288,26.0553 86.3954,27.3886 87.5,29.5C 84.8333,30.8333 82.1667,30.8333 79.5,29.5C 80.5244,28.1482 81.5244,26.8149 82.5,25.5 Z"/></g>
<g><path style="opacity:1" fill="#cfbe8d" d="M 130.5,20.5 C 131.167,20.5 131.833,20.5 132.5,20.5C 140.807,23.7836 149.141,27.117 157.5,30.5C 155.007,30.1307 154.34,30.7973 155.5,32.5C 146.183,29.3998 137.183,25.7331 128.5,21.5C 128.842,20.6618 129.508,20.3284 130.5,20.5 Z"/></g>
<g><path style="opacity:1" fill="#cfbb87" d="M 9.5,30.5 C 10.791,30.2627 11.791,30.596 12.5,31.5C 11.4183,32.5938 10.7517,33.9271 10.5,35.5C 11.2234,37.7822 11.5567,40.1155 11.5,42.5C 12.2186,44.7638 12.552,47.0971 12.5,49.5C 11.71,48.3915 11.21,47.0581 11,45.5C 10.5034,47.8098 10.3367,50.1432 10.5,52.5C 9.75516,49.6104 9.0885,46.6104 8.5,43.5C 8.44078,40.3095 8.10745,37.1429 7.5,34C 7.60826,32.3189 8.27493,31.1522 9.5,30.5 Z"/></g>
<g><path style="opacity:1" fill="#cfbb87" d="M 157.5,30.5 C 158.725,31.1522 159.392,32.3189 159.5,34C 158.893,37.1429 158.559,40.3095 158.5,43.5C 157.912,46.6104 157.245,49.6104 156.5,52.5C 156.663,50.1432 156.497,47.8098 156,45.5C 155.768,46.7375 155.268,47.7375 154.5,48.5C 154.979,44.1456 155.646,39.8123 156.5,35.5C 156.457,34.5836 156.124,33.9169 155.5,33.5C 155.5,33.1667 155.5,32.8333 155.5,32.5C 154.34,30.7973 155.007,30.1307 157.5,30.5 Z"/></g>
<g><path style="opacity:0.773" fill="#dbcca5" d="M 64.5,43.5 C 63.1667,43.5 61.8333,43.5 60.5,43.5C 60.5299,42.5028 60.0299,41.8361 59,41.5C 56.8458,42.2741 54.6792,42.9408 52.5,43.5C 50.1667,43.5 47.8333,43.5 45.5,43.5C 51.4303,40.0394 57.7636,37.3727 64.5,35.5C 64.5,38.1667 64.5,40.8333 64.5,43.5 Z"/></g>
<g><path style="opacity:0.837" fill="#dbca9f" d="M 45.5,43.5 C 47.8333,43.5 50.1667,43.5 52.5,43.5C 47.8334,46.3966 42.8334,48.7299 37.5,50.5C 36.1667,50.5 34.8333,50.5 33.5,50.5C 33.4142,49.5041 33.7476,48.6708 34.5,48C 38.07,46.2006 41.7366,44.7006 45.5,43.5 Z"/></g>
<g><path style="opacity:1" fill="#ceb47b" d="M 60.5,43.5 C 60.5106,45.0174 61.1772,46.1841 62.5,47C 76.5,47.6667 90.5,47.6667 104.5,47C 105.416,46.7216 106.082,46.2216 106.5,45.5C 108.099,44.438 109.766,44.438 111.5,45.5C 114.634,46.9009 117.634,48.5675 120.5,50.5C 121.167,51.1667 121.833,51.8333 122.5,52.5C 94.5318,51.5251 66.5318,51.1918 38.5,51.5C 38.5,52.8333 38.5,54.1667 38.5,55.5C 37.5489,54.0813 37.2155,52.4147 37.5,50.5C 42.8334,48.7299 47.8334,46.3966 52.5,43.5C 54.6792,42.9408 56.8458,42.2741 59,41.5C 60.0299,41.8361 60.5299,42.5028 60.5,43.5 Z"/></g>
<g><path style="opacity:0.848" fill="#dbcba1" d="M 126.5,50.5 C 124.5,50.5 122.5,50.5 120.5,50.5C 117.634,48.5675 114.634,46.9009 111.5,45.5C 110.599,43.2729 108.933,42.2729 106.5,42.5C 106.5,43.5 106.5,44.5 106.5,45.5C 106.082,46.2216 105.416,46.7216 104.5,47C 90.5,47.6667 76.5,47.6667 62.5,47C 61.1772,46.1841 60.5106,45.0174 60.5,43.5C 61.8333,43.5 63.1667,43.5 64.5,43.5C 77.5,43.5 90.5,43.5 103.5,43.5C 103.187,40.7531 103.52,38.0865 104.5,35.5C 112.246,40.0284 119.579,45.0284 126.5,50.5 Z"/></g>
<g><path style="opacity:1" fill="#d1bb88" d="M 111.5,45.5 C 109.766,44.438 108.099,44.438 106.5,45.5C 106.5,44.5 106.5,43.5 106.5,42.5C 108.933,42.2729 110.599,43.2729 111.5,45.5 Z"/></g>
<g><path style="opacity:0.836" fill="#dbcba1" d="M 155.5,33.5 C 156.124,33.9169 156.457,34.5836 156.5,35.5C 155.646,39.8123 154.979,44.1456 154.5,48.5C 154.5,49.1667 154.5,49.8333 154.5,50.5C 153.167,50.5 151.833,50.5 150.5,50.5C 150.888,45.7807 151.555,41.114 152.5,36.5C 153.5,36.5 154.5,36.5 155.5,36.5C 155.5,35.5 155.5,34.5 155.5,33.5 Z"/></g>
<g><path style="opacity:0.867" fill="#dbc89a" d="M 5.5,43.5 C 6.5,43.5 7.5,43.5 8.5,43.5C 9.0885,46.6104 9.75516,49.6104 10.5,52.5C 10.5,54.1667 10.5,55.8333 10.5,57.5C 9.16667,57.5 7.83333,57.5 6.5,57.5C 6.00195,52.8478 5.66861,48.1811 5.5,43.5 Z"/></g>
<g><path style="opacity:0.864" fill="#dbc89a" d="M 11.5,42.5 C 12.7079,43.2341 14.0413,43.5674 15.5,43.5C 16.3291,48.1311 16.9958,52.7978 17.5,57.5C 16.1667,57.5 14.8333,57.5 13.5,57.5C 13.5987,54.7628 13.2653,52.0961 12.5,49.5C 12.552,47.0971 12.2186,44.7638 11.5,42.5 Z"/></g>
<g><path style="opacity:0.838" fill="#dbc798" d="M 120.5,50.5 C 122.5,50.5 124.5,50.5 126.5,50.5C 129.888,51.3481 132.221,53.3481 133.5,56.5C 132.167,56.5 130.833,56.5 129.5,56.5C 129.167,56.5 128.833,56.5 128.5,56.5C 126.795,54.8079 124.795,53.4746 122.5,52.5C 121.833,51.8333 121.167,51.1667 120.5,50.5 Z"/></g>
<g><path style="opacity:0.868" fill="#dbc89a" d="M 158.5,43.5 C 159.5,43.5 160.5,43.5 161.5,43.5C 161.331,48.1811 160.998,52.8478 160.5,57.5C 159.167,57.5 157.833,57.5 156.5,57.5C 156.5,55.8333 156.5,54.1667 156.5,52.5C 157.245,49.6104 157.912,46.6104 158.5,43.5 Z"/></g>
<g><path style="opacity:1" fill="#ccb074" d="M 122.5,52.5 C 124.795,53.4746 126.795,54.8079 128.5,56.5C 98.8649,55.5236 69.1982,55.1903 39.5,55.5C 39.5,56.5 39.5,57.5 39.5,58.5C 39.5,59.1667 39.5,59.8333 39.5,60.5C 39.1667,60.5 38.8333,60.5 38.5,60.5C 38.5,58.8333 38.5,57.1667 38.5,55.5C 38.5,54.1667 38.5,52.8333 38.5,51.5C 66.5318,51.1918 94.5318,51.5251 122.5,52.5 Z"/></g>
<g><path style="opacity:1" fill="#ccb076" d="M 12.5,49.5 C 13.2653,52.0961 13.5987,54.7628 13.5,57.5C 14.5718,62.4049 15.2385,67.4049 15.5,72.5C 14.6981,71.0484 14.1981,69.3817 14,67.5C 13.5026,70.146 13.3359,72.8127 13.5,75.5C 12.8333,73.1667 12.1667,70.8333 11.5,68.5C 11.756,64.7307 11.4227,61.0641 10.5,57.5C 10.5,55.8333 10.5,54.1667 10.5,52.5C 10.3367,50.1432 10.5034,47.8098 11,45.5C 11.21,47.0581 11.71,48.3915 12.5,49.5 Z"/></g>
<g><path style="opacity:1" fill="#caad72" d="M 128.5,56.5 C 128.833,56.5 129.167,56.5 129.5,56.5C 129.795,58.7354 129.461,60.7354 128.5,62.5C 128.5,61.1667 128.5,59.8333 128.5,58.5C 98.8333,58.5 69.1667,58.5 39.5,58.5C 39.5,57.5 39.5,56.5 39.5,55.5C 69.1982,55.1903 98.8649,55.5236 128.5,56.5 Z"/></g>
<g><path style="opacity:1" fill="#ccb076" d="M 156.5,52.5 C 156.5,54.1667 156.5,55.8333 156.5,57.5C 155.756,61.1185 155.423,64.7852 155.5,68.5C 154.833,70.8333 154.167,73.1667 153.5,75.5C 153.664,72.8127 153.497,70.146 153,67.5C 152.802,69.3817 152.302,71.0484 151.5,72.5C 151.616,69.1401 151.949,65.8067 152.5,62.5C 152.892,58.4185 153.558,54.4185 154.5,50.5C 154.5,49.8333 154.5,49.1667 154.5,48.5C 155.268,47.7375 155.768,46.7375 156,45.5C 156.497,47.8098 156.663,50.1432 156.5,52.5 Z"/></g>
<g><path style="opacity:0.854" fill="#dac593" d="M 33.5,50.5 C 34.8333,50.5 36.1667,50.5 37.5,50.5C 37.2155,52.4147 37.5489,54.0813 38.5,55.5C 38.5,57.1667 38.5,58.8333 38.5,60.5C 38.1788,62.0481 37.1788,62.7148 35.5,62.5C 34.1971,58.6179 33.5304,54.6179 33.5,50.5 Z"/></g>
<g><path style="opacity:0.855" fill="#dac593" d="M 150.5,50.5 C 151.833,50.5 153.167,50.5 154.5,50.5C 153.558,54.4185 152.892,58.4185 152.5,62.5C 151.167,62.5 149.833,62.5 148.5,62.5C 149.259,58.5233 149.925,54.5233 150.5,50.5 Z"/></g>
<g><path style="opacity:1" fill="#c8aa6e" d="M 39.5,58.5 C 69.1667,58.5 98.8333,58.5 128.5,58.5C 128.5,59.8333 128.5,61.1667 128.5,62.5C 128.737,63.791 128.404,64.791 127.5,65.5C 127.5,64.5 127.5,63.5 127.5,62.5C 98.1474,61.8414 69.1474,62.5081 40.5,64.5C 39.5655,63.4324 39.2322,62.099 39.5,60.5C 39.5,59.8333 39.5,59.1667 39.5,58.5 Z"/></g>
<g><path style="opacity:0.846" fill="#d7c38d" d="M 6.5,57.5 C 7.83333,57.5 9.16667,57.5 10.5,57.5C 11.4227,61.0641 11.756,64.7307 11.5,68.5C 10.791,69.404 9.79105,69.7373 8.5,69.5C 7.99379,65.4393 7.32713,61.4393 6.5,57.5 Z"/></g>
<g><path style="opacity:0.846" fill="#d8c38e" d="M 156.5,57.5 C 157.833,57.5 159.167,57.5 160.5,57.5C 159.673,61.4393 159.006,65.4393 158.5,69.5C 157.209,69.7373 156.209,69.404 155.5,68.5C 155.423,64.7852 155.756,61.1185 156.5,57.5 Z"/></g>
<g><path style="opacity:0.873" fill="#d7c28d" d="M 13.5,57.5 C 14.8333,57.5 16.1667,57.5 17.5,57.5C 18.3301,62.8075 18.9968,68.1408 19.5,73.5C 18.0413,73.5674 16.7079,73.2341 15.5,72.5C 15.2385,67.4049 14.5718,62.4049 13.5,57.5 Z"/></g>
<g><path style="opacity:0.819" fill="#d6c18b" d="M 38.5,60.5 C 38.8333,60.5 39.1667,60.5 39.5,60.5C 39.2322,62.099 39.5655,63.4324 40.5,64.5C 40.5,65.8333 40.5,67.1667 40.5,68.5C 40.5,69.5 40.5,70.5 40.5,71.5C 39.5,71.5 38.5,71.5 37.5,71.5C 36.6766,68.5394 36.01,65.5394 35.5,62.5C 37.1788,62.7148 38.1788,62.0481 38.5,60.5 Z"/></g>
<g><path style="opacity:0.855" fill="#d7c28d" d="M 129.5,56.5 C 130.833,56.5 132.167,56.5 133.5,56.5C 133.366,61.4191 132.366,66.4191 130.5,71.5C 129.5,71.5 128.5,71.5 127.5,71.5C 127.5,70.5 127.5,69.5 127.5,68.5C 127.5,67.5 127.5,66.5 127.5,65.5C 128.404,64.791 128.737,63.791 128.5,62.5C 129.461,60.7354 129.795,58.7354 129.5,56.5 Z"/></g>
<g><path style="opacity:0.872" fill="#d6c28b" d="M 148.5,62.5 C 149.833,62.5 151.167,62.5 152.5,62.5C 151.949,65.8067 151.616,69.1401 151.5,72.5C 150.292,73.2341 148.959,73.5674 147.5,73.5C 147.942,69.8455 148.276,66.1788 148.5,62.5 Z"/></g>
<g><path style="opacity:1" fill="#c6a86c" d="M 127.5,65.5 C 127.5,66.5 127.5,67.5 127.5,68.5C 127.167,68.5 126.833,68.5 126.5,68.5C 98.1667,67.1667 69.8333,67.1667 41.5,68.5C 41.1667,68.5 40.8333,68.5 40.5,68.5C 40.5,67.1667 40.5,65.8333 40.5,64.5C 69.1474,62.5081 98.1474,61.8414 127.5,62.5C 127.5,63.5 127.5,64.5 127.5,65.5 Z"/></g>
<g><path style="opacity:1" fill="#c3a468" d="M 126.5,68.5 C 126.706,71.4951 126.04,74.1617 124.5,76.5C 124.5,75.5 124.5,74.5 124.5,73.5C 97.5,73.5 70.5,73.5 43.5,73.5C 43.5,74.5 43.5,75.5 43.5,76.5C 42.469,74.0392 41.8023,71.3725 41.5,68.5C 69.8333,67.1667 98.1667,67.1667 126.5,68.5 Z"/></g>
<g><path style="opacity:0.848" fill="#d2bd83" d="M 15.5,72.5 C 16.7079,73.2341 18.0413,73.5674 19.5,73.5C 20.2653,76.0961 20.5987,78.7628 20.5,81.5C 19.0413,81.5674 17.7079,81.2341 16.5,80.5C 16.4249,77.7938 16.0916,75.1272 15.5,72.5 Z"/></g>
<g><path style="opacity:0.848" fill="#d2bd83" d="M 151.5,72.5 C 150.908,75.1272 150.575,77.7938 150.5,80.5C 149.292,81.2341 147.959,81.5674 146.5,81.5C 146.401,78.7628 146.735,76.0961 147.5,73.5C 148.959,73.5674 150.292,73.2341 151.5,72.5 Z"/></g>
<g><path style="opacity:1" fill="#bfa165" d="M 124.5,76.5 C 124.552,78.9029 124.219,81.2362 123.5,83.5C 123.167,83.5 122.833,83.5 122.5,83.5C 122.421,82.0695 122.754,80.7362 123.5,79.5C 97.1751,78.5002 70.8418,78.1669 44.5,78.5C 44.5,80.1667 44.5,81.8333 44.5,83.5C 43.5318,81.3926 43.1984,79.0593 43.5,76.5C 43.5,75.5 43.5,74.5 43.5,73.5C 70.5,73.5 97.5,73.5 124.5,73.5C 124.5,74.5 124.5,75.5 124.5,76.5 Z"/></g>
<g><path style="opacity:0.807" fill="#d2bd83" d="M 11.5,68.5 C 12.1667,70.8333 12.8333,73.1667 13.5,75.5C 13.5,77.5 13.5,79.5 13.5,81.5C 13.5,82.5 13.5,83.5 13.5,84.5C 12.5,84.5 11.5,84.5 10.5,84.5C 9.75179,79.5145 9.08512,74.5145 8.5,69.5C 9.79105,69.7373 10.791,69.404 11.5,68.5 Z"/></g>
<g><path style="opacity:0.807" fill="#d2bd83" d="M 155.5,68.5 C 156.209,69.404 157.209,69.7373 158.5,69.5C 157.915,74.5145 157.248,79.5145 156.5,84.5C 155.5,84.5 154.5,84.5 153.5,84.5C 153.5,83.5 153.5,82.5 153.5,81.5C 153.5,79.5 153.5,77.5 153.5,75.5C 154.167,73.1667 154.833,70.8333 155.5,68.5 Z"/></g>
<g><path style="opacity:0.843" fill="#d1bb81" d="M 40.5,68.5 C 40.8333,68.5 41.1667,68.5 41.5,68.5C 41.8023,71.3725 42.469,74.0392 43.5,76.5C 43.1984,79.0593 43.5318,81.3926 44.5,83.5C 44.5,83.8333 44.5,84.1667 44.5,84.5C 43.4324,85.4345 42.099,85.7678 40.5,85.5C 39.5,80.8333 38.5,76.1667 37.5,71.5C 38.5,71.5 39.5,71.5 40.5,71.5C 40.5,70.5 40.5,69.5 40.5,68.5 Z"/></g>
<g><path style="opacity:0.837" fill="#d1bc81" d="M 126.5,68.5 C 126.833,68.5 127.167,68.5 127.5,68.5C 127.5,69.5 127.5,70.5 127.5,71.5C 128.5,71.5 129.5,71.5 130.5,71.5C 129.343,75.7933 128.343,80.1266 127.5,84.5C 125.901,84.7678 124.568,84.4345 123.5,83.5C 124.219,81.2362 124.552,78.9029 124.5,76.5C 126.04,74.1617 126.706,71.4951 126.5,68.5 Z"/></g>
<g><path style="opacity:1" fill="#bea166" d="M 15.5,72.5 C 16.0916,75.1272 16.4249,77.7938 16.5,80.5C 17.3813,84.4543 18.0479,88.4543 18.5,92.5C 18.9926,94.8056 19.3259,97.139 19.5,99.5C 18.037,96.7974 17.2037,93.7974 17,90.5C 16.5026,93.146 16.3359,95.8127 16.5,98.5C 15.8333,98.5 15.5,98.1667 15.5,97.5C 15.624,91.9313 14.9573,86.598 13.5,81.5C 13.5,79.5 13.5,77.5 13.5,75.5C 13.3359,72.8127 13.5026,70.146 14,67.5C 14.1981,69.3817 14.6981,71.0484 15.5,72.5 Z"/></g>
<g><path style="opacity:1" fill="#bd9f63" d="M 122.5,83.5 C 122.389,84.1174 122.056,84.6174 121.5,85C 116.916,86.3632 112.249,87.1966 107.5,87.5C 107.784,85.5853 107.451,83.9187 106.5,82.5C 106.082,81.7784 105.416,81.2784 104.5,81C 90.5,80.3333 76.5,80.3333 62.5,81C 60.9632,82.1096 60.2965,83.6096 60.5,85.5C 59.8478,86.7251 58.6811,87.3917 57,87.5C 52.7058,86.8845 48.5391,85.8845 44.5,84.5C 44.5,84.1667 44.5,83.8333 44.5,83.5C 44.5,81.8333 44.5,80.1667 44.5,78.5C 70.8418,78.1669 97.1751,78.5002 123.5,79.5C 122.754,80.7362 122.421,82.0695 122.5,83.5 Z"/></g>
<g><path style="opacity:1" fill="#bea165" d="M 153.5,75.5 C 153.5,77.5 153.5,79.5 153.5,81.5C 152.043,86.598 151.376,91.9313 151.5,97.5C 151.5,98.1667 151.167,98.5 150.5,98.5C 150.664,95.8127 150.497,93.146 150,90.5C 149.796,93.7974 148.963,96.7974 147.5,99.5C 147.674,97.139 148.007,94.8056 148.5,92.5C 148.952,88.4543 149.619,84.4543 150.5,80.5C 150.575,77.7938 150.908,75.1272 151.5,72.5C 152.302,71.0484 152.802,69.3817 153,67.5C 153.497,70.146 153.664,72.8127 153.5,75.5 Z"/></g>
<g><path style="opacity:0.784" fill="#cfba7e" d="M 106.5,82.5 C 106.5,83.5 106.5,84.5 106.5,85.5C 105.5,85.5 104.5,85.5 103.5,85.5C 90.5,84.1667 77.5,84.1667 64.5,85.5C 63.1667,85.5 61.8333,85.5 60.5,85.5C 60.2965,83.6096 60.9632,82.1096 62.5,81C 76.5,80.3333 90.5,80.3333 104.5,81C 105.416,81.2784 106.082,81.7784 106.5,82.5 Z"/></g>
<g><path style="opacity:0.826" fill="#ccb778" d="M 44.5,84.5 C 48.5391,85.8845 52.7058,86.8845 57,87.5C 58.6811,87.3917 59.8478,86.7251 60.5,85.5C 61.8333,85.5 63.1667,85.5 64.5,85.5C 64.5,87.8333 64.5,90.1667 64.5,92.5C 58.0947,91.7858 51.7613,90.6191 45.5,89C 43.1192,88.7767 41.4525,87.61 40.5,85.5C 42.099,85.7678 43.4324,85.4345 44.5,84.5 Z"/></g>
<g><path style="opacity:0.872" fill="#ccb779" d="M 16.5,80.5 C 17.7079,81.2341 19.0413,81.5674 20.5,81.5C 21.2464,85.127 21.9131,88.7936 22.5,92.5C 21.1667,92.5 19.8333,92.5 18.5,92.5C 18.0479,88.4543 17.3813,84.4543 16.5,80.5 Z"/></g>
<g><path style="opacity:0.864" fill="#cbb678" d="M 106.5,82.5 C 107.451,83.9187 107.784,85.5853 107.5,87.5C 112.249,87.1966 116.916,86.3632 121.5,85C 122.056,84.6174 122.389,84.1174 122.5,83.5C 122.833,83.5 123.167,83.5 123.5,83.5C 124.568,84.4345 125.901,84.7678 127.5,84.5C 127.056,86.1132 126.056,87.2798 124.5,88C 117.611,90.0776 110.611,91.5776 103.5,92.5C 103.5,90.1667 103.5,87.8333 103.5,85.5C 104.5,85.5 105.5,85.5 106.5,85.5C 106.5,84.5 106.5,83.5 106.5,82.5 Z"/></g>
<g><path style="opacity:0.872" fill="#ccb779" d="M 150.5,80.5 C 149.619,84.4543 148.952,88.4543 148.5,92.5C 147.167,92.5 145.833,92.5 144.5,92.5C 145.087,88.7936 145.754,85.127 146.5,81.5C 147.959,81.5674 149.292,81.2341 150.5,80.5 Z"/></g>
<g><path style="opacity:0.843" fill="#cab575" d="M 13.5,81.5 C 14.9573,86.598 15.624,91.9313 15.5,97.5C 14.5,97.5 13.5,97.5 12.5,97.5C 11.6484,93.2064 10.9817,88.873 10.5,84.5C 11.5,84.5 12.5,84.5 13.5,84.5C 13.5,83.5 13.5,82.5 13.5,81.5 Z"/></g>
<g><path style="opacity:0.842" fill="#cab575" d="M 153.5,81.5 C 153.5,82.5 153.5,83.5 153.5,84.5C 154.5,84.5 155.5,84.5 156.5,84.5C 156.018,88.873 155.352,93.2064 154.5,97.5C 153.5,97.5 152.5,97.5 151.5,97.5C 151.376,91.9313 152.043,86.598 153.5,81.5 Z"/></g>
<g><path style="opacity:0.807" fill="#c6b16e" d="M 18.5,92.5 C 19.8333,92.5 21.1667,92.5 22.5,92.5C 22.8333,95.8333 23.1667,99.1667 23.5,102.5C 22.1667,102.5 20.8333,102.5 19.5,102.5C 19.5,101.5 19.5,100.5 19.5,99.5C 19.3259,97.139 18.9926,94.8056 18.5,92.5 Z"/></g>
<g><path style="opacity:0.987" fill="#c3ae6c" d="M 104.5,102.5 C 103.041,102.567 101.708,102.234 100.5,101.5C 89.1667,101.5 77.8333,101.5 66.5,101.5C 65.2921,102.234 63.9587,102.567 62.5,102.5C 62.5,100.5 62.5,98.5 62.5,96.5C 76.5,96.5 90.5,96.5 104.5,96.5C 104.5,98.5 104.5,100.5 104.5,102.5 Z"/></g>
<g><path style="opacity:0.807" fill="#c6b16e" d="M 144.5,92.5 C 145.833,92.5 147.167,92.5 148.5,92.5C 148.007,94.8056 147.674,97.139 147.5,99.5C 147.5,100.5 147.5,101.5 147.5,102.5C 146.167,102.5 144.833,102.5 143.5,102.5C 143.833,99.1667 144.167,95.8333 144.5,92.5 Z"/></g>
<g><path style="opacity:1" fill="#ad9155" d="M 150.5,98.5 C 150.448,102.198 150.114,105.865 149.5,109.5C 149.167,109.5 148.833,109.5 148.5,109.5C 148.657,108.127 148.49,106.793 148,105.5C 147.768,106.737 147.268,107.737 146.5,108.5C 146.517,106.435 146.85,104.435 147.5,102.5C 147.5,101.5 147.5,100.5 147.5,99.5C 148.963,96.7974 149.796,93.7974 150,90.5C 150.497,93.146 150.664,95.8127 150.5,98.5 Z"/></g>
<g><path style="opacity:1" fill="#ad9155" d="M 19.5,99.5 C 19.5,100.5 19.5,101.5 19.5,102.5C 19.5,103.167 19.5,103.833 19.5,104.5C 18.5489,105.919 18.2155,107.585 18.5,109.5C 18.1667,109.5 17.8333,109.5 17.5,109.5C 16.8857,105.865 16.5524,102.198 16.5,98.5C 16.3359,95.8127 16.5026,93.146 17,90.5C 17.2037,93.7974 18.037,96.7974 19.5,99.5 Z"/></g>
<g><path style="opacity:1" fill="#a5884e" d="M 66.5,101.5 C 77.8333,101.5 89.1667,101.5 100.5,101.5C 100.5,104.167 100.5,106.833 100.5,109.5C 96.1869,108.99 92.1869,109.657 88.5,111.5C 85.7131,110.523 82.7131,110.19 79.5,110.5C 79.5,113.167 79.5,115.833 79.5,118.5C 79.5,120.833 79.5,123.167 79.5,125.5C 79.7373,126.791 79.404,127.791 78.5,128.5C 78.5,127.833 78.5,127.167 78.5,126.5C 78.5,123.833 78.5,121.167 78.5,118.5C 78.9804,115.315 78.3137,112.481 76.5,110C 73.1832,109.502 69.8499,109.335 66.5,109.5C 66.5,106.833 66.5,104.167 66.5,101.5 Z"/></g>
<g><path style="opacity:0.852" fill="#c1ad68" d="M 12.5,97.5 C 13.5,97.5 14.5,97.5 15.5,97.5C 15.5,98.1667 15.8333,98.5 16.5,98.5C 16.5524,102.198 16.8857,105.865 17.5,109.5C 16.1667,109.5 14.8333,109.5 13.5,109.5C 13.1667,105.5 12.8333,101.5 12.5,97.5 Z"/></g>
<g><path style="opacity:0.767" fill="#bfaa64" d="M 19.5,102.5 C 20.8333,102.5 22.1667,102.5 23.5,102.5C 23.3505,103.552 23.5172,104.552 24,105.5C 26.3722,107.703 28.5389,110.037 30.5,112.5C 28.8333,112.5 27.1667,112.5 25.5,112.5C 22.2766,110.628 20.2766,107.962 19.5,104.5C 19.5,103.833 19.5,103.167 19.5,102.5 Z"/></g>
<g><path style="opacity:0.766" fill="#bfaa64" d="M 143.5,102.5 C 144.833,102.5 146.167,102.5 147.5,102.5C 146.85,104.435 146.517,106.435 146.5,108.5C 144.833,109.833 143.167,111.167 141.5,112.5C 139.833,112.5 138.167,112.5 136.5,112.5C 138.461,110.037 140.628,107.703 143,105.5C 143.483,104.552 143.649,103.552 143.5,102.5 Z"/></g>
<g><path style="opacity:0.852" fill="#c1ad68" d="M 151.5,97.5 C 152.5,97.5 153.5,97.5 154.5,97.5C 154.167,101.5 153.833,105.5 153.5,109.5C 152.167,109.5 150.833,109.5 149.5,109.5C 150.114,105.865 150.448,102.198 150.5,98.5C 151.167,98.5 151.5,98.1667 151.5,97.5 Z"/></g>
<g><path style="opacity:0.975" fill="#bda861" d="M 66.5,101.5 C 66.5,104.167 66.5,106.833 66.5,109.5C 69.8499,109.335 73.1832,109.502 76.5,110C 78.3137,112.481 78.9804,115.315 78.5,118.5C 77.1667,118.5 75.8333,118.5 74.5,118.5C 74.5,116.833 74.5,115.167 74.5,113.5C 70.5,113.5 66.5,113.5 62.5,113.5C 62.5,109.833 62.5,106.167 62.5,102.5C 63.9587,102.567 65.2921,102.234 66.5,101.5 Z"/></g>
<g><path style="opacity:1" fill="#bba760" d="M 100.5,101.5 C 101.708,102.234 103.041,102.567 104.5,102.5C 104.5,106.167 104.5,109.833 104.5,113.5C 100.5,113.5 96.5,113.5 92.5,113.5C 92.5,116.167 92.5,118.833 92.5,121.5C 91.0413,121.567 89.7079,121.234 88.5,120.5C 88.5,117.5 88.5,114.5 88.5,111.5C 92.1869,109.657 96.1869,108.99 100.5,109.5C 100.5,106.833 100.5,104.167 100.5,101.5 Z"/></g>
<g><path style="opacity:1" fill="#a1864b" d="M 19.5,104.5 C 20.2766,107.962 22.2766,110.628 25.5,112.5C 27.8082,114.471 30.1415,116.471 32.5,118.5C 33.3065,119.728 34.3065,120.728 35.5,121.5C 34.5084,121.328 33.8417,121.662 33.5,122.5C 32.5,121.833 31.5,121.167 30.5,120.5C 26.4587,116.824 22.4587,113.157 18.5,109.5C 18.2155,107.585 18.5489,105.919 19.5,104.5 Z"/></g>
<g><path style="opacity:0.796" fill="#b9a45c" d="M 13.5,109.5 C 14.8333,109.5 16.1667,109.5 17.5,109.5C 17.8333,109.5 18.1667,109.5 18.5,109.5C 22.4587,113.157 26.4587,116.824 30.5,120.5C 29.0813,121.451 27.4147,121.784 25.5,121.5C 20.5,118.5 16.5,114.5 13.5,109.5 Z"/></g>
<g><path style="opacity:0.857" fill="#b9a55c" d="M 25.5,112.5 C 27.1667,112.5 28.8333,112.5 30.5,112.5C 33.4274,113.757 35.7607,115.757 37.5,118.5C 35.8333,118.5 34.1667,118.5 32.5,118.5C 30.1415,116.471 27.8082,114.471 25.5,112.5 Z"/></g>
<g><path style="opacity:1" fill="#9b7f47" d="M 88.5,111.5 C 88.5,114.5 88.5,117.5 88.5,120.5C 88.5,121.5 88.5,122.5 88.5,123.5C 87.5489,122.081 87.2155,120.415 87.5,118.5C 84.8333,118.5 82.1667,118.5 79.5,118.5C 79.5,115.833 79.5,113.167 79.5,110.5C 82.7131,110.19 85.7131,110.523 88.5,111.5 Z"/></g>
<g><path style="opacity:0.857" fill="#b9a55c" d="M 136.5,112.5 C 138.167,112.5 139.833,112.5 141.5,112.5C 139.192,114.471 136.858,116.471 134.5,118.5C 132.833,118.5 131.167,118.5 129.5,118.5C 131.239,115.757 133.573,113.757 136.5,112.5 Z"/></g>
<g><path style="opacity:0.796" fill="#b9a45c" d="M 148.5,109.5 C 148.833,109.5 149.167,109.5 149.5,109.5C 150.833,109.5 152.167,109.5 153.5,109.5C 150.5,114.5 146.5,118.5 141.5,121.5C 139.585,121.784 137.919,121.451 136.5,120.5C 140.541,116.824 144.541,113.157 148.5,109.5 Z"/></g>
<g><path style="opacity:1" fill="#a0844a" d="M 148.5,109.5 C 144.541,113.157 140.541,116.824 136.5,120.5C 135.5,121.167 134.5,121.833 133.5,122.5C 133.158,121.662 132.492,121.328 131.5,121.5C 132.694,120.728 133.694,119.728 134.5,118.5C 136.858,116.471 139.192,114.471 141.5,112.5C 143.167,111.167 144.833,109.833 146.5,108.5C 147.268,107.737 147.768,106.737 148,105.5C 148.49,106.793 148.657,108.127 148.5,109.5 Z"/></g>
<g><path style="opacity:0.912" fill="#b39a53" d="M 88.5,120.5 C 89.7079,121.234 91.0413,121.567 92.5,121.5C 92.5,124.167 92.5,126.833 92.5,129.5C 90.8007,129.473 89.4674,128.806 88.5,127.5C 88.5,126.167 88.5,124.833 88.5,123.5C 88.5,122.5 88.5,121.5 88.5,120.5 Z"/></g>
<g><path style="opacity:0.809" fill="#b59d55" d="M 74.5,118.5 C 75.8333,118.5 77.1667,118.5 78.5,118.5C 78.5,121.167 78.5,123.833 78.5,126.5C 77.1667,126.5 75.8333,126.5 74.5,126.5C 74.5,123.833 74.5,121.167 74.5,118.5 Z"/></g>
<g><path style="opacity:1" fill="#947841" d="M 79.5,118.5 C 82.1667,118.5 84.8333,118.5 87.5,118.5C 87.2155,120.415 87.5489,122.081 88.5,123.5C 88.5,124.833 88.5,126.167 88.5,127.5C 88.5,130.5 88.5,133.5 88.5,136.5C 87.5489,135.081 87.2155,133.415 87.5,131.5C 87.5,129.5 87.5,127.5 87.5,125.5C 84.8333,125.5 82.1667,125.5 79.5,125.5C 79.5,123.167 79.5,120.833 79.5,118.5 Z"/></g>
<g><path style="opacity:0.853" fill="#b49b53" d="M 30.5,120.5 C 31.5,121.167 32.5,121.833 33.5,122.5C 34.5,123.833 35.5,125.167 36.5,126.5C 34.8333,126.5 33.1667,126.5 31.5,126.5C 29.4752,124.804 27.4752,123.137 25.5,121.5C 27.4147,121.784 29.0813,121.451 30.5,120.5 Z"/></g>
<g><path style="opacity:0.778" fill="#b39b53" d="M 32.5,118.5 C 34.1667,118.5 35.8333,118.5 37.5,118.5C 42.3988,121.456 46.7322,125.123 50.5,129.5C 48.8333,129.5 47.1667,129.5 45.5,129.5C 41.8781,127.213 38.5448,124.547 35.5,121.5C 34.3065,120.728 33.3065,119.728 32.5,118.5 Z"/></g>
<g><path style="opacity:0.779" fill="#b39b53" d="M 129.5,118.5 C 131.167,118.5 132.833,118.5 134.5,118.5C 133.694,119.728 132.694,120.728 131.5,121.5C 128.455,124.547 125.122,127.213 121.5,129.5C 119.833,129.5 118.167,129.5 116.5,129.5C 120.268,125.123 124.601,121.456 129.5,118.5 Z"/></g>
<g><path style="opacity:0.853" fill="#b49b53" d="M 136.5,120.5 C 137.919,121.451 139.585,121.784 141.5,121.5C 139.525,123.137 137.525,124.804 135.5,126.5C 133.833,126.5 132.167,126.5 130.5,126.5C 131.5,125.167 132.5,123.833 133.5,122.5C 134.5,121.833 135.5,121.167 136.5,120.5 Z"/></g>
<g><path style="opacity:1" fill="#8f733c" d="M 79.5,125.5 C 82.1667,125.5 84.8333,125.5 87.5,125.5C 87.5,127.5 87.5,129.5 87.5,131.5C 84.8333,131.5 82.1667,131.5 79.5,131.5C 79.5,134.167 79.5,136.833 79.5,139.5C 79.815,143.371 79.4816,147.038 78.5,150.5C 78.5,149.5 78.5,148.5 78.5,147.5C 78.5,142.833 78.5,138.167 78.5,133.5C 78.5,131.833 78.5,130.167 78.5,128.5C 79.404,127.791 79.7373,126.791 79.5,125.5 Z"/></g>
<g><path style="opacity:0.826" fill="#b0944d" d="M 31.5,126.5 C 33.1667,126.5 34.8333,126.5 36.5,126.5C 39.4309,128.091 42.0976,130.091 44.5,132.5C 43.0813,133.451 41.4147,133.784 39.5,133.5C 36.808,131.138 34.1413,128.804 31.5,126.5 Z"/></g>
<g><path style="opacity:0.798" fill="#ae924c" d="M 45.5,129.5 C 47.1667,129.5 48.8333,129.5 50.5,129.5C 53.4274,130.757 55.7607,132.757 57.5,135.5C 55.8333,135.5 54.1667,135.5 52.5,135.5C 51.1667,134.5 49.8333,133.5 48.5,132.5C 47.3065,131.728 46.3065,130.728 45.5,129.5 Z"/></g>
<g><path style="opacity:0.809" fill="#b0954e" d="M 74.5,126.5 C 75.8333,126.5 77.1667,126.5 78.5,126.5C 78.5,127.167 78.5,127.833 78.5,128.5C 78.5,130.167 78.5,131.833 78.5,133.5C 77.1667,133.5 75.8333,133.5 74.5,133.5C 74.5,131.167 74.5,128.833 74.5,126.5 Z"/></g>
<g><path style="opacity:0.799" fill="#ae924c" d="M 116.5,129.5 C 118.167,129.5 119.833,129.5 121.5,129.5C 119.192,131.471 116.858,133.471 114.5,135.5C 112.833,135.5 111.167,135.5 109.5,135.5C 111.239,132.757 113.573,130.757 116.5,129.5 Z"/></g>
<g><path style="opacity:0.826" fill="#b0944d" d="M 130.5,126.5 C 132.167,126.5 133.833,126.5 135.5,126.5C 132.859,128.804 130.192,131.138 127.5,133.5C 125.585,133.784 123.919,133.451 122.5,132.5C 124.902,130.091 127.569,128.091 130.5,126.5 Z"/></g>
<g><path style="opacity:1" fill="#93783f" d="M 131.5,121.5 C 132.492,121.328 133.158,121.662 133.5,122.5C 132.5,123.833 131.5,125.167 130.5,126.5C 127.569,128.091 124.902,130.091 122.5,132.5C 120.167,134.5 117.833,136.5 115.5,138.5C 115.672,137.508 115.338,136.842 114.5,136.5C 114.5,136.167 114.5,135.833 114.5,135.5C 116.858,133.471 119.192,131.471 121.5,129.5C 125.122,127.213 128.455,124.547 131.5,121.5 Z"/></g>
<g><path style="opacity:1" fill="#957940" d="M 35.5,121.5 C 38.5448,124.547 41.8781,127.213 45.5,129.5C 46.3065,130.728 47.3065,131.728 48.5,132.5C 47.5084,132.328 46.8417,132.662 46.5,133.5C 45.8333,133.167 45.1667,132.833 44.5,132.5C 42.0976,130.091 39.4309,128.091 36.5,126.5C 35.5,125.167 34.5,123.833 33.5,122.5C 33.8417,121.662 34.5084,121.328 35.5,121.5 Z"/></g>
<g><path style="opacity:0.897" fill="#ac8e48" d="M 88.5,127.5 C 89.4674,128.806 90.8007,129.473 92.5,129.5C 92.5,133.833 92.5,138.167 92.5,142.5C 91.5,142.5 90.5,142.5 89.5,142.5C 89.7678,140.901 89.4345,139.568 88.5,138.5C 88.5,137.833 88.5,137.167 88.5,136.5C 88.5,133.5 88.5,130.5 88.5,127.5 Z"/></g>
<g><path style="opacity:1" fill="#896d37" d="M 87.5,131.5 C 87.2155,133.415 87.5489,135.081 88.5,136.5C 88.5,137.167 88.5,137.833 88.5,138.5C 88.5,140.5 88.5,142.5 88.5,144.5C 87.5489,143.081 87.2155,141.415 87.5,139.5C 84.8333,139.5 82.1667,139.5 79.5,139.5C 79.5,136.833 79.5,134.167 79.5,131.5C 82.1667,131.5 84.8333,131.5 87.5,131.5 Z"/></g>
<g><path style="opacity:0.814" fill="#ab8c47" d="M 44.5,132.5 C 45.1667,132.833 45.8333,133.167 46.5,133.5C 48.1939,135.861 50.1939,137.861 52.5,139.5C 51.4324,140.434 50.099,140.768 48.5,140.5C 45.2085,138.542 42.2085,136.209 39.5,133.5C 41.4147,133.784 43.0813,133.451 44.5,132.5 Z"/></g>
<g><path style="opacity:0.812" fill="#ab8c46" d="M 52.5,135.5 C 54.1667,135.5 55.8333,135.5 57.5,135.5C 60.0892,136.419 62.0892,138.086 63.5,140.5C 61.8333,140.5 60.1667,140.5 58.5,140.5C 56.4602,138.823 54.4602,137.156 52.5,135.5 Z"/></g>
<g><path style="opacity:0.812" fill="#ab8c46" d="M 109.5,135.5 C 111.167,135.5 112.833,135.5 114.5,135.5C 114.5,135.833 114.5,136.167 114.5,136.5C 112.228,137.441 110.228,138.774 108.5,140.5C 106.833,140.5 105.167,140.5 103.5,140.5C 104.911,138.086 106.911,136.419 109.5,135.5 Z"/></g>
<g><path style="opacity:0.813" fill="#ab8c47" d="M 122.5,132.5 C 123.919,133.451 125.585,133.784 127.5,133.5C 124.792,136.209 121.792,138.542 118.5,140.5C 116.901,140.768 115.568,140.434 114.5,139.5C 114.5,138.833 114.833,138.5 115.5,138.5C 117.833,136.5 120.167,134.5 122.5,132.5 Z"/></g>
<g><path style="opacity:0.809" fill="#aa8944" d="M 74.5,133.5 C 75.8333,133.5 77.1667,133.5 78.5,133.5C 78.5,138.167 78.5,142.833 78.5,147.5C 77.1667,147.5 75.8333,147.5 74.5,147.5C 74.5,142.833 74.5,138.167 74.5,133.5 Z"/></g>
<g><path style="opacity:1" fill="#8b6f38" d="M 48.5,132.5 C 49.8333,133.5 51.1667,134.5 52.5,135.5C 54.4602,137.156 56.4602,138.823 58.5,140.5C 59.5274,142.194 60.8608,143.527 62.5,144.5C 61.5084,144.328 60.8417,144.662 60.5,145.5C 57.5505,143.885 54.8838,141.885 52.5,139.5C 50.1939,137.861 48.1939,135.861 46.5,133.5C 46.8417,132.662 47.5084,132.328 48.5,132.5 Z"/></g>
<g><path style="opacity:0.796" fill="#a68541" d="M 52.5,139.5 C 54.8838,141.885 57.5505,143.885 60.5,145.5C 60.5,145.833 60.5,146.167 60.5,146.5C 59.4324,147.434 58.099,147.768 56.5,147.5C 53.2157,145.883 50.5491,143.55 48.5,140.5C 50.099,140.768 51.4324,140.434 52.5,139.5 Z"/></g>
<g><path style="opacity:0.795" fill="#a68541" d="M 114.5,139.5 C 115.568,140.434 116.901,140.768 118.5,140.5C 116.451,143.55 113.784,145.883 110.5,147.5C 108.901,147.768 107.568,147.434 106.5,146.5C 109.126,144.177 111.793,141.843 114.5,139.5 Z"/></g>
<g><path style="opacity:1" fill="#806531" d="M 79.5,139.5 C 82.1667,139.5 84.8333,139.5 87.5,139.5C 87.2155,141.415 87.5489,143.081 88.5,144.5C 88.4013,147.237 88.7347,149.904 89.5,152.5C 85.2824,150.933 81.2824,151.266 77.5,153.5C 77.5569,152.391 77.8902,151.391 78.5,150.5C 79.4816,147.038 79.815,143.371 79.5,139.5 Z"/></g>
<g><path style="opacity:1" fill="#876b34" d="M 114.5,136.5 C 115.338,136.842 115.672,137.508 115.5,138.5C 114.833,138.5 114.5,138.833 114.5,139.5C 111.793,141.843 109.126,144.177 106.5,146.5C 102.543,149.122 98.8761,152.122 95.5,155.5C 93.8439,153.94 91.8439,152.94 89.5,152.5C 91.5273,152.662 93.5273,152.495 95.5,152C 100.027,148.301 104.361,144.468 108.5,140.5C 110.228,138.774 112.228,137.441 114.5,136.5 Z"/></g>
<g><path style="opacity:0.812" fill="#a5833f" d="M 88.5,138.5 C 89.4345,139.568 89.7678,140.901 89.5,142.5C 90.5,142.5 91.5,142.5 92.5,142.5C 92.3379,144.527 92.5045,146.527 93,148.5C 96.3765,145.617 99.8765,142.951 103.5,140.5C 105.167,140.5 106.833,140.5 108.5,140.5C 104.361,144.468 100.027,148.301 95.5,152C 93.5273,152.495 91.5273,152.662 89.5,152.5C 88.7347,149.904 88.4013,147.237 88.5,144.5C 88.5,142.5 88.5,140.5 88.5,138.5 Z"/></g>
<g><path style="opacity:0.945" fill="#a4823e" d="M 58.5,140.5 C 60.1667,140.5 61.8333,140.5 63.5,140.5C 67.1235,142.951 70.6235,145.617 74,148.5C 74.3988,148.272 74.5654,147.938 74.5,147.5C 75.8333,147.5 77.1667,147.5 78.5,147.5C 78.5,148.5 78.5,149.5 78.5,150.5C 77.8902,151.391 77.5569,152.391 77.5,153.5C 77.1667,153.5 76.8333,153.5 76.5,153.5C 75.1266,153.657 73.7932,153.49 72.5,153C 69.0003,150.331 65.667,147.498 62.5,144.5C 60.8608,143.527 59.5274,142.194 58.5,140.5 Z"/></g>
<g><path style="opacity:0.845" fill="#a17f3b" d="M 60.5,146.5 C 64.4572,149.122 68.1239,152.122 71.5,155.5C 70.0813,156.451 68.4147,156.784 66.5,156.5C 63.1257,153.49 59.7923,150.49 56.5,147.5C 58.099,147.768 59.4324,147.434 60.5,146.5 Z"/></g>
<g><path style="opacity:1" fill="#7b612c" d="M 89.5,152.5 C 91.8439,152.94 93.8439,153.94 95.5,155.5C 89.8472,159.398 83.5139,160.565 76.5,159C 74.6763,158.34 73.343,157.173 72.5,155.5C 73.8333,154.833 75.1667,154.167 76.5,153.5C 76.8333,153.5 77.1667,153.5 77.5,153.5C 81.2824,151.266 85.2824,150.933 89.5,152.5 Z"/></g>
<g><path style="opacity:0.844" fill="#a17f3b" d="M 106.5,146.5 C 107.568,147.434 108.901,147.768 110.5,147.5C 107.208,150.49 103.874,153.49 100.5,156.5C 98.5853,156.784 96.9187,156.451 95.5,155.5C 98.8761,152.122 102.543,149.122 106.5,146.5 Z"/></g>
<g><path style="opacity:1" fill="#836731" d="M 62.5,144.5 C 65.667,147.498 69.0003,150.331 72.5,153C 73.7932,153.49 75.1266,153.657 76.5,153.5C 75.1667,154.167 73.8333,154.833 72.5,155.5C 72.1667,155.5 71.8333,155.5 71.5,155.5C 68.1239,152.122 64.4572,149.122 60.5,146.5C 60.5,146.167 60.5,145.833 60.5,145.5C 60.8417,144.662 61.5084,144.328 62.5,144.5 Z"/></g>
<g><path style="opacity:0.803" fill="#9b7936" d="M 71.5,155.5 C 71.8333,155.5 72.1667,155.5 72.5,155.5C 73.343,157.173 74.6763,158.34 76.5,159C 83.5139,160.565 89.8472,159.398 95.5,155.5C 96.9187,156.451 98.5853,156.784 100.5,156.5C 92.7862,163.598 83.7862,165.432 73.5,162C 70.98,160.303 68.6467,158.47 66.5,156.5C 68.4147,156.784 70.0813,156.451 71.5,155.5 Z"/></g>
</svg>
