<?xml version="1.0" encoding="UTF-8"?>
<!DOCTYPE svg PUBLIC "-//W3C//DTD SVG 1.1//EN" "http://www.w3.org/Graphics/SVG/1.1/DTD/svg11.dtd">
<svg xmlns="http://www.w3.org/2000/svg" version="1.1" width="225px" height="225px" style="shape-rendering:geometricPrecision; text-rendering:geometricPrecision; image-rendering:optimizeQuality; fill-rule:evenodd; clip-rule:evenodd" xmlns:xlink="http://www.w3.org/1999/xlink">
<g><path style="opacity:1" fill="#bc9d58" d="M 101.5,192.5 C 108.772,183.467 115.439,173.967 121.5,164C 87.5455,154.009 53.5455,144.009 19.5,134C 44.532,109.967 69.8653,86.2999 95.5,63C 83.2832,57.3914 70.9498,52.0581 58.5,47C 85.9161,42.4694 110.583,48.8027 132.5,66C 137.667,71.8333 142.833,77.6667 148,83.5C 151.163,82.2904 153.996,80.6237 156.5,78.5C 153.683,76.1833 151.016,73.6833 148.5,71C 167.523,71.6683 186.523,73.0016 205.5,75C 192.667,88.5 179.833,102 167,115.5C 166.499,111.49 165.999,107.49 165.5,103.5C 161.447,104.07 157.78,105.404 154.5,107.5C 157.301,143.064 143.301,169.897 112.5,188C 109.029,190.072 105.362,191.572 101.5,192.5 Z M 103.5,68.5 C 112.29,74.123 119.624,81.2896 125.5,90C 101.386,99.8133 77.0522,108.813 52.5,117C 69.3955,100.601 86.3955,84.4348 103.5,68.5 Z M 131.5,110.5 C 132.658,119.657 132.824,128.991 132,138.5C 130.651,144.194 128.484,149.527 125.5,154.5C 102.42,147.695 79.4196,140.695 56.5,133.5C 81.6533,125.967 106.653,118.301 131.5,110.5 Z"/></g>
<g><path style="opacity:1" fill="#b28e31" d="M 101.5,192.5 C 100.833,193.167 100.833,193.167 101.5,192.5 Z"/></g>
</svg>
