<?xml version="1.0" encoding="UTF-8"?>
<!DOCTYPE svg PUBLIC "-//W3C//DTD SVG 1.1//EN" "http://www.w3.org/Graphics/SVG/1.1/DTD/svg11.dtd">
<svg xmlns="http://www.w3.org/2000/svg" version="1.1" width="168px" height="168px" style="shape-rendering:geometricPrecision; text-rendering:geometricPrecision; image-rendering:optimizeQuality; fill-rule:evenodd; clip-rule:evenodd" xmlns:xlink="http://www.w3.org/1999/xlink">
<g><path style="opacity:0.793" fill="#dbd1b0" d="M 19.5,20.5 C 18.1667,20.5 16.8333,20.5 15.5,20.5C 14.2437,12.7211 12.5771,12.7211 10.5,20.5C 9.16667,20.5 7.83333,20.5 6.5,20.5C 8.17499,13.9937 11.3417,8.32699 16,3.5C 16.9863,9.23749 18.153,14.9042 19.5,20.5 Z"/></g>
<g><path style="opacity:0.793" fill="#dbd1b0" d="M 160.5,20.5 C 159.167,20.5 157.833,20.5 156.5,20.5C 154.423,12.7211 152.756,12.7211 151.5,20.5C 150.167,20.5 148.833,20.5 147.5,20.5C 148.847,14.9042 150.014,9.23749 151,3.5C 155.658,8.32699 158.825,13.9937 160.5,20.5 Z"/></g>
<g><path style="opacity:0.826" fill="#dbd0b0" d="M 98.5,20.5 C 97.1667,20.5 95.8333,20.5 94.5,20.5C 94.1667,20.5 93.8333,20.5 93.5,20.5C 92.6498,14.9787 89.3165,12.9787 83.5,14.5C 77.6835,12.9787 74.3502,14.9787 73.5,20.5C 73.1667,20.5 72.8333,20.5 72.5,20.5C 71.1667,20.5 69.8333,20.5 68.5,20.5C 70.0934,17.6439 71.4267,14.6439 72.5,11.5C 79.8333,10.1667 87.1667,10.1667 94.5,11.5C 95.5733,14.6439 96.9066,17.6439 98.5,20.5 Z"/></g>
<g><path style="opacity:1" fill="#cdbd8e" d="M 93.5,20.5 C 86.8333,20.5 80.1667,20.5 73.5,20.5C 74.3502,14.9787 77.6835,12.9787 83.5,14.5C 89.3165,12.9787 92.6498,14.9787 93.5,20.5 Z"/></g>
<g><path style="opacity:0.844" fill="#dbceaa" d="M 6.5,20.5 C 7.83333,20.5 9.16667,20.5 10.5,20.5C 8.89437,23.9861 7.89437,27.6528 7.5,31.5C 7.5,31.8333 7.5,32.1667 7.5,32.5C 6.51836,35.9619 6.18503,39.6286 6.5,43.5C 5.5,43.5 4.5,43.5 3.5,43.5C 2.87037,35.4764 3.87037,27.8097 6.5,20.5 Z"/></g>
<g><path style="opacity:1" fill="#cfbe90" d="M 15.5,20.5 C 15.5,21.1667 15.5,21.8333 15.5,22.5C 13.8333,22.5 12.1667,22.5 10.5,22.5C 10.0719,25.7846 9.07191,28.7846 7.5,31.5C 7.89437,27.6528 8.89437,23.9861 10.5,20.5C 12.5771,12.7211 14.2437,12.7211 15.5,20.5 Z"/></g>
<g><path style="opacity:0.84" fill="#dbceab" d="M 15.5,20.5 C 16.8333,20.5 18.1667,20.5 19.5,20.5C 20.9374,26.0421 22.9374,31.3754 25.5,36.5C 24.1667,36.5 22.8333,36.5 21.5,36.5C 21.0679,35.2905 20.4013,34.2905 19.5,33.5C 18.4422,29.7207 17.1089,26.0541 15.5,22.5C 15.5,21.8333 15.5,21.1667 15.5,20.5 Z"/></g>
<g><path style="opacity:0.825" fill="#dbceab" d="M 68.5,20.5 C 69.8333,20.5 71.1667,20.5 72.5,20.5C 70.8333,25.1667 69.1667,29.8333 67.5,34.5C 66.6618,34.8417 66.3284,35.5084 66.5,36.5C 65.1667,36.5 63.8333,36.5 62.5,36.5C 64.3,31.101 66.3,25.7676 68.5,20.5 Z"/></g>
<g><path style="opacity:0.825" fill="#dbceaa" d="M 94.5,20.5 C 95.8333,20.5 97.1667,20.5 98.5,20.5C 100.7,25.7676 102.7,31.101 104.5,36.5C 103.167,36.5 101.833,36.5 100.5,36.5C 100.672,35.5084 100.338,34.8417 99.5,34.5C 97.7968,29.7777 96.1301,25.111 94.5,20.5 Z"/></g>
<g><path style="opacity:0.841" fill="#dbceab" d="M 147.5,20.5 C 148.833,20.5 150.167,20.5 151.5,20.5C 151.5,21.1667 151.5,21.8333 151.5,22.5C 149.891,26.0541 148.558,29.7207 147.5,33.5C 146.599,34.2905 145.932,35.2905 145.5,36.5C 144.167,36.5 142.833,36.5 141.5,36.5C 144.063,31.3754 146.063,26.0421 147.5,20.5 Z"/></g>
<g><path style="opacity:1" fill="#cfbf90" d="M 156.5,20.5 C 158.106,23.9861 159.106,27.6528 159.5,31.5C 157.928,28.7846 156.928,25.7846 156.5,22.5C 154.833,22.5 153.167,22.5 151.5,22.5C 151.5,21.8333 151.5,21.1667 151.5,20.5C 152.756,12.7211 154.423,12.7211 156.5,20.5 Z"/></g>
<g><path style="opacity:0.844" fill="#dbceaa" d="M 156.5,20.5 C 157.833,20.5 159.167,20.5 160.5,20.5C 163.13,27.8097 164.13,35.4764 163.5,43.5C 162.5,43.5 161.5,43.5 160.5,43.5C 160.815,39.6286 160.482,35.9619 159.5,32.5C 159.5,32.1667 159.5,31.8333 159.5,31.5C 159.106,27.6528 158.106,23.9861 156.5,20.5 Z"/></g>
<g><path style="opacity:1" fill="#cdba87" d="M 15.5,22.5 C 17.1089,26.0541 18.4422,29.7207 19.5,33.5C 15.8333,33.5 12.1667,33.5 8.5,33.5C 8.73731,34.791 8.40397,35.791 7.5,36.5C 7.5,35.1667 7.5,33.8333 7.5,32.5C 7.5,32.1667 7.5,31.8333 7.5,31.5C 9.07191,28.7846 10.0719,25.7846 10.5,22.5C 12.1667,22.5 13.8333,22.5 15.5,22.5 Z"/></g>
<g><path style="opacity:1" fill="#cebc8a" d="M 72.5,20.5 C 72.8333,20.5 73.1667,20.5 73.5,20.5C 80.1667,20.5 86.8333,20.5 93.5,20.5C 93.8333,20.5 94.1667,20.5 94.5,20.5C 96.1301,25.111 97.7968,29.7777 99.5,34.5C 97.544,32.8249 96.2107,33.1582 95.5,35.5C 93.7083,32.4031 92.2083,29.0697 91,25.5C 89.1367,23.051 86.6367,22.051 83.5,22.5C 80.3633,22.051 77.8633,23.051 76,25.5C 74.7879,29.1182 73.2879,32.4515 71.5,35.5C 70.7893,33.1582 69.456,32.8249 67.5,34.5C 69.1667,29.8333 70.8333,25.1667 72.5,20.5 Z"/></g>
<g><path style="opacity:1" fill="#cdba87" d="M 151.5,22.5 C 153.167,22.5 154.833,22.5 156.5,22.5C 156.928,25.7846 157.928,28.7846 159.5,31.5C 159.5,31.8333 159.5,32.1667 159.5,32.5C 159.5,33.8333 159.5,35.1667 159.5,36.5C 158.596,35.791 158.263,34.791 158.5,33.5C 154.833,33.5 151.167,33.5 147.5,33.5C 148.558,29.7207 149.891,26.0541 151.5,22.5 Z"/></g>
<g><path style="opacity:0.876" fill="#dbcda7" d="M 95.5,35.5 C 95.4162,38.3274 94.7496,40.994 93.5,43.5C 92.1667,43.5 90.8333,43.5 89.5,43.5C 89.8693,41.5588 90.536,39.7255 91.5,38C 89.871,34.5732 88.371,31.0732 87,27.5C 84.6667,26.1667 82.3333,26.1667 80,27.5C 78.629,31.0732 77.129,34.5732 75.5,38C 76.464,39.7255 77.1307,41.5588 77.5,43.5C 76.1667,43.5 74.8333,43.5 73.5,43.5C 72.2504,40.994 71.5838,38.3274 71.5,35.5C 73.2879,32.4515 74.7879,29.1182 76,25.5C 77.8633,23.051 80.3633,22.051 83.5,22.5C 86.6367,22.051 89.1367,23.051 91,25.5C 92.2083,29.0697 93.7083,32.4031 95.5,35.5 Z"/></g>
<g><path style="opacity:1" fill="#cdb781" d="M 19.5,33.5 C 20.4013,34.2905 21.0679,35.2905 21.5,36.5C 22.9336,39.0472 24.6002,41.3805 26.5,43.5C 27.1098,44.391 27.4431,45.391 27.5,46.5C 26.5416,46.0472 25.7083,45.3805 25,44.5C 24.9977,47.0512 24.1644,49.0512 22.5,50.5C 24.1572,47.9912 23.8238,45.8245 21.5,44C 16.8452,43.5008 12.1785,43.3342 7.5,43.5C 7.5,41.1667 7.5,38.8333 7.5,36.5C 8.40397,35.791 8.73731,34.791 8.5,33.5C 12.1667,33.5 15.8333,33.5 19.5,33.5 Z"/></g>
<g><path style="opacity:1" fill="#ceb883" d="M 71.5,35.5 C 71.5838,38.3274 72.2504,40.994 73.5,43.5C 74.1098,44.391 74.4431,45.391 74.5,46.5C 72.8958,45.713 72.2291,44.3797 72.5,42.5C 71.5,42.5 70.5,42.5 69.5,42.5C 69.5,43.5 69.5,44.5 69.5,45.5C 68.8333,44.5 68.1667,43.5 67.5,42.5C 66.8505,40.5648 66.5172,38.5648 66.5,36.5C 66.3284,35.5084 66.6618,34.8417 67.5,34.5C 69.456,32.8249 70.7893,33.1582 71.5,35.5 Z"/></g>
<g><path style="opacity:1" fill="#ceb883" d="M 99.5,34.5 C 100.338,34.8417 100.672,35.5084 100.5,36.5C 100.483,38.5648 100.15,40.5648 99.5,42.5C 98.8333,43.5 98.1667,44.5 97.5,45.5C 97.5,44.5 97.5,43.5 97.5,42.5C 96.5,42.5 95.5,42.5 94.5,42.5C 94.7709,44.3797 94.1042,45.713 92.5,46.5C 92.5569,45.391 92.8902,44.391 93.5,43.5C 94.7496,40.994 95.4162,38.3274 95.5,35.5C 96.2107,33.1582 97.544,32.8249 99.5,34.5 Z"/></g>
<g><path style="opacity:1" fill="#cdb781" d="M 147.5,33.5 C 151.167,33.5 154.833,33.5 158.5,33.5C 158.263,34.791 158.596,35.791 159.5,36.5C 159.5,38.8333 159.5,41.1667 159.5,43.5C 154.489,43.3341 149.489,43.5007 144.5,44C 143.232,46.1632 143.232,48.3298 144.5,50.5C 142.836,49.0512 142.002,47.0512 142,44.5C 141.292,45.3805 140.458,46.0472 139.5,46.5C 139.557,45.391 139.89,44.391 140.5,43.5C 142.4,41.3805 144.066,39.0472 145.5,36.5C 145.932,35.2905 146.599,34.2905 147.5,33.5 Z"/></g>
<g><path style="opacity:0.81" fill="#dbcca5" d="M 21.5,36.5 C 22.8333,36.5 24.1667,36.5 25.5,36.5C 27.5475,38.5496 29.2141,40.883 30.5,43.5C 29.1667,43.5 27.8333,43.5 26.5,43.5C 24.6002,41.3805 22.9336,39.0472 21.5,36.5 Z"/></g>
<g><path style="opacity:0.827" fill="#dbcba4" d="M 62.5,36.5 C 63.8333,36.5 65.1667,36.5 66.5,36.5C 66.5172,38.5648 66.8505,40.5648 67.5,42.5C 66.4324,43.4345 65.099,43.7678 63.5,43.5C 62.9862,41.6336 62.3195,39.8003 61.5,38C 61.5699,37.2352 61.9033,36.7352 62.5,36.5 Z"/></g>
<g><path style="opacity:0.827" fill="#dbcba4" d="M 100.5,36.5 C 101.833,36.5 103.167,36.5 104.5,36.5C 105.097,36.7352 105.43,37.2352 105.5,38C 104.68,39.8003 104.014,41.6336 103.5,43.5C 101.901,43.7678 100.568,43.4345 99.5,42.5C 100.15,40.5648 100.483,38.5648 100.5,36.5 Z"/></g>
<g><path style="opacity:0.809" fill="#dbcca5" d="M 141.5,36.5 C 142.833,36.5 144.167,36.5 145.5,36.5C 144.066,39.0472 142.4,41.3805 140.5,43.5C 139.167,43.5 137.833,43.5 136.5,43.5C 137.786,40.883 139.453,38.5496 141.5,36.5 Z"/></g>
<g><path style="opacity:0.87" fill="#dbc99e" d="M 7.5,32.5 C 7.5,33.8333 7.5,35.1667 7.5,36.5C 7.5,38.8333 7.5,41.1667 7.5,43.5C 12.1785,43.3342 16.8452,43.5008 21.5,44C 23.8238,45.8245 24.1572,47.9912 22.5,50.5C 22.1667,50.5 21.8333,50.5 21.5,50.5C 18.8333,50.5 16.1667,50.5 13.5,50.5C 14.842,49.207 16.5087,48.3736 18.5,48C 13.5111,47.5007 8.51108,47.3341 3.5,47.5C 3.5,46.1667 3.5,44.8333 3.5,43.5C 4.5,43.5 5.5,43.5 6.5,43.5C 6.18503,39.6286 6.51836,35.9619 7.5,32.5 Z"/></g>
<g><path style="opacity:0.811" fill="#dbca9e" d="M 26.5,43.5 C 27.8333,43.5 29.1667,43.5 30.5,43.5C 33.1667,45.5 35.5,47.8333 37.5,50.5C 35.8333,50.5 34.1667,50.5 32.5,50.5C 30.8333,49.1667 29.1667,47.8333 27.5,46.5C 27.4431,45.391 27.1098,44.391 26.5,43.5 Z"/></g>
<g><path style="opacity:0.842" fill="#dbca9e" d="M 67.5,42.5 C 68.1667,43.5 68.8333,44.5 69.5,45.5C 69.366,47.2915 69.6993,48.9582 70.5,50.5C 69.1667,50.5 67.8333,50.5 66.5,50.5C 65.6948,48.0846 64.6948,45.7513 63.5,43.5C 65.099,43.7678 66.4324,43.4345 67.5,42.5 Z"/></g>
<g><path style="opacity:1" fill="#ceb47b" d="M 74.5,46.5 C 74.9887,47.9952 75.6554,49.3285 76.5,50.5C 77.1667,52.8333 77.8333,55.1667 78.5,57.5C 75.6314,54.488 74.2981,55.1547 74.5,59.5C 73.8333,58.5 73.1667,57.5 72.5,56.5C 72.405,54.2143 71.7384,52.2143 70.5,50.5C 69.6993,48.9582 69.366,47.2915 69.5,45.5C 69.5,44.5 69.5,43.5 69.5,42.5C 70.5,42.5 71.5,42.5 72.5,42.5C 72.2291,44.3797 72.8958,45.713 74.5,46.5 Z"/></g>
<g><path style="opacity:0.833" fill="#dbca9f" d="M 73.5,43.5 C 74.8333,43.5 76.1667,43.5 77.5,43.5C 78.3052,45.9154 79.3052,48.2487 80.5,50.5C 79.1667,50.5 77.8333,50.5 76.5,50.5C 75.6554,49.3285 74.9887,47.9952 74.5,46.5C 74.4431,45.391 74.1098,44.391 73.5,43.5 Z"/></g>
<g><path style="opacity:0.833" fill="#dbca9f" d="M 89.5,43.5 C 90.8333,43.5 92.1667,43.5 93.5,43.5C 92.8902,44.391 92.5569,45.391 92.5,46.5C 92.0113,47.9952 91.3446,49.3285 90.5,50.5C 89.1667,50.5 87.8333,50.5 86.5,50.5C 87.6948,48.2487 88.6948,45.9154 89.5,43.5 Z"/></g>
<g><path style="opacity:0.842" fill="#dbc99d" d="M 99.5,42.5 C 100.568,43.4345 101.901,43.7678 103.5,43.5C 102.305,45.7513 101.305,48.0846 100.5,50.5C 99.1667,50.5 97.8333,50.5 96.5,50.5C 96.6287,48.7839 96.962,47.1172 97.5,45.5C 98.1667,44.5 98.8333,43.5 99.5,42.5 Z"/></g>
<g><path style="opacity:0.811" fill="#dbca9e" d="M 136.5,43.5 C 137.833,43.5 139.167,43.5 140.5,43.5C 139.89,44.391 139.557,45.391 139.5,46.5C 137.833,47.8333 136.167,49.1667 134.5,50.5C 132.833,50.5 131.167,50.5 129.5,50.5C 131.5,47.8333 133.833,45.5 136.5,43.5 Z"/></g>
<g><path style="opacity:0.87" fill="#dbc99e" d="M 159.5,32.5 C 160.482,35.9619 160.815,39.6286 160.5,43.5C 161.5,43.5 162.5,43.5 163.5,43.5C 163.5,44.8333 163.5,46.1667 163.5,47.5C 158.489,47.3341 153.489,47.5007 148.5,48C 150.491,48.3736 152.158,49.207 153.5,50.5C 150.833,50.5 148.167,50.5 145.5,50.5C 145.167,50.5 144.833,50.5 144.5,50.5C 143.232,48.3298 143.232,46.1632 144.5,44C 149.489,43.5007 154.489,43.3341 159.5,43.5C 159.5,41.1667 159.5,38.8333 159.5,36.5C 159.5,35.1667 159.5,33.8333 159.5,32.5 Z"/></g>
<g><path style="opacity:0.856" fill="#dbc799" d="M 13.5,50.5 C 16.1667,50.5 18.8333,50.5 21.5,50.5C 18.1667,52.1667 14.8333,53.8333 11.5,55.5C 11.1667,55.5 10.8333,55.5 10.5,55.5C 9.29208,56.2341 7.95875,56.5674 6.5,56.5C 5.20891,55.4583 5.20891,54.2917 6.5,53C 8.65035,51.5886 10.9837,50.7553 13.5,50.5 Z"/></g>
<g><path style="opacity:0.814" fill="#dbc797" d="M 32.5,50.5 C 34.1667,50.5 35.8333,50.5 37.5,50.5C 40.7198,52.6029 43.7198,54.9362 46.5,57.5C 44.5,57.5 42.5,57.5 40.5,57.5C 40.1667,57.5 39.8333,57.5 39.5,57.5C 36.8605,55.5272 34.5272,53.1939 32.5,50.5 Z"/></g>
<g><path style="opacity:0.807" fill="#dbc797" d="M 66.5,50.5 C 67.8333,50.5 69.1667,50.5 70.5,50.5C 71.7384,52.2143 72.405,54.2143 72.5,56.5C 71.791,57.404 70.791,57.7373 69.5,57.5C 68.2638,55.351 67.2638,53.0177 66.5,50.5 Z"/></g>
<g><path style="opacity:0.828" fill="#dbc798" d="M 76.5,50.5 C 77.8333,50.5 79.1667,50.5 80.5,50.5C 81.1667,52.8333 81.8333,55.1667 82.5,57.5C 81.1667,57.5 79.8333,57.5 78.5,57.5C 77.8333,55.1667 77.1667,52.8333 76.5,50.5 Z"/></g>
<g><path style="opacity:0.828" fill="#dbc798" d="M 86.5,50.5 C 87.8333,50.5 89.1667,50.5 90.5,50.5C 89.8333,52.8333 89.1667,55.1667 88.5,57.5C 87.1667,57.5 85.8333,57.5 84.5,57.5C 85.1667,55.1667 85.8333,52.8333 86.5,50.5 Z"/></g>
<g><path style="opacity:0.806" fill="#dbc797" d="M 96.5,50.5 C 97.8333,50.5 99.1667,50.5 100.5,50.5C 99.7362,53.0177 98.7362,55.351 97.5,57.5C 96.209,57.7373 95.209,57.404 94.5,56.5C 94.595,54.2143 95.2616,52.2143 96.5,50.5 Z"/></g>
<g><path style="opacity:0.813" fill="#dbc797" d="M 129.5,50.5 C 131.167,50.5 132.833,50.5 134.5,50.5C 132.473,53.1939 130.139,55.5272 127.5,57.5C 127.167,57.5 126.833,57.5 126.5,57.5C 124.5,57.5 122.5,57.5 120.5,57.5C 123.28,54.9362 126.28,52.6029 129.5,50.5 Z"/></g>
<g><path style="opacity:0.856" fill="#dbc797" d="M 145.5,50.5 C 148.167,50.5 150.833,50.5 153.5,50.5C 156.016,50.7553 158.35,51.5886 160.5,53C 161.728,54.4902 161.728,55.9902 160.5,57.5C 159.167,57.5 157.833,57.5 156.5,57.5C 156.5,56.1667 155.833,55.5 154.5,55.5C 151.371,54.1012 148.371,52.4345 145.5,50.5 Z"/></g>
<g><path style="opacity:1" fill="#cdb177" d="M 27.5,46.5 C 29.1667,47.8333 30.8333,49.1667 32.5,50.5C 34.5272,53.1939 36.8605,55.5272 39.5,57.5C 38.0783,57.2914 36.745,56.7914 35.5,56C 27.5069,55.5003 19.5069,55.3336 11.5,55.5C 14.8333,53.8333 18.1667,52.1667 21.5,50.5C 21.8333,50.5 22.1667,50.5 22.5,50.5C 24.1644,49.0512 24.9977,47.0512 25,44.5C 25.7083,45.3805 26.5416,46.0472 27.5,46.5 Z"/></g>
<g><path style="opacity:1" fill="#ceb37a" d="M 97.5,45.5 C 96.962,47.1172 96.6287,48.7839 96.5,50.5C 95.2616,52.2143 94.595,54.2143 94.5,56.5C 93.8333,57.5 93.1667,58.5 92.5,59.5C 92.7019,55.1547 91.3686,54.488 88.5,57.5C 89.1667,55.1667 89.8333,52.8333 90.5,50.5C 91.3446,49.3285 92.0113,47.9952 92.5,46.5C 94.1042,45.713 94.7709,44.3797 94.5,42.5C 95.5,42.5 96.5,42.5 97.5,42.5C 97.5,43.5 97.5,44.5 97.5,45.5 Z"/></g>
<g><path style="opacity:1" fill="#cdb176" d="M 144.5,50.5 C 144.833,50.5 145.167,50.5 145.5,50.5C 148.371,52.4345 151.371,54.1012 154.5,55.5C 145.334,54.9542 136.334,55.6208 127.5,57.5C 130.139,55.5272 132.473,53.1939 134.5,50.5C 136.167,49.1667 137.833,47.8333 139.5,46.5C 140.458,46.0472 141.292,45.3805 142,44.5C 142.002,47.0512 142.836,49.0512 144.5,50.5 Z"/></g>
<g><path style="opacity:1" fill="#caad72" d="M 10.5,55.5 C 10.8333,55.5 11.1667,55.5 11.5,55.5C 19.5069,55.3336 27.5069,55.5003 35.5,56C 36.745,56.7914 38.0783,57.2914 39.5,57.5C 39.8333,57.5 40.1667,57.5 40.5,57.5C 40.8333,58.1667 41.1667,58.8333 41.5,59.5C 31.7051,58.2065 22.0384,58.2065 12.5,59.5C 10.8958,58.713 10.2291,57.3797 10.5,55.5 Z"/></g>
<g><path style="opacity:1" fill="#cbad72" d="M 154.5,55.5 C 155.833,55.5 156.5,56.1667 156.5,57.5C 156.068,58.7095 155.401,59.7095 154.5,60.5C 150.386,59.1739 145.886,58.5073 141,58.5C 135.785,58.5503 130.619,58.8837 125.5,59.5C 125.833,58.8333 126.167,58.1667 126.5,57.5C 126.833,57.5 127.167,57.5 127.5,57.5C 136.334,55.6208 145.334,54.9542 154.5,55.5 Z"/></g>
<g><path style="opacity:0.81" fill="#d7c28c" d="M 10.5,55.5 C 10.2291,57.3797 10.8958,58.713 12.5,59.5C 12.8693,61.4412 13.536,63.2745 14.5,65C 20.8666,65.2935 27.1999,65.7935 33.5,66.5C 33.5,67.8333 33.5,69.1667 33.5,70.5C 33.1583,71.3382 32.4916,71.6716 31.5,71.5C 28.8333,71.5 26.1667,71.5 23.5,71.5C 24.2625,70.7321 25.2625,70.2321 26.5,70C 21.8333,69.6667 17.1667,69.3333 12.5,69C 9.55289,65.2729 7.55289,61.1063 6.5,56.5C 7.95875,56.5674 9.29208,56.2341 10.5,55.5 Z"/></g>
<g><path style="opacity:1" fill="#c7aa6e" d="M 41.5,59.5 C 45.9853,62.2441 50.652,64.7441 55.5,67C 56.3802,68.3561 56.7135,69.8561 56.5,71.5C 56.5,71.8333 56.5,72.1667 56.5,72.5C 55.7656,71.1225 55.0989,69.6225 54.5,68C 47.8417,67.5004 41.175,67.3337 34.5,67.5C 34.7373,68.791 34.404,69.791 33.5,70.5C 33.5,69.1667 33.5,67.8333 33.5,66.5C 27.1999,65.7935 20.8666,65.2935 14.5,65C 13.536,63.2745 12.8693,61.4412 12.5,59.5C 22.0384,58.2065 31.7051,58.2065 41.5,59.5 Z"/></g>
<g><path style="opacity:0.868" fill="#d7c28d" d="M 40.5,57.5 C 42.5,57.5 44.5,57.5 46.5,57.5C 50.3133,59.9084 54.3133,62.0751 58.5,64C 59.5541,66.3822 60.2208,68.8822 60.5,71.5C 59.1667,71.5 57.8333,71.5 56.5,71.5C 56.7135,69.8561 56.3802,68.3561 55.5,67C 50.652,64.7441 45.9853,62.2441 41.5,59.5C 41.1667,58.8333 40.8333,58.1667 40.5,57.5 Z"/></g>
<g><path style="opacity:0.837" fill="#d7c28c" d="M 72.5,56.5 C 73.1667,57.5 73.8333,58.5 74.5,59.5C 75.5945,62.682 76.9278,65.682 78.5,68.5C 78.5,69.1667 78.5,69.8333 78.5,70.5C 77.4324,71.4345 76.099,71.7678 74.5,71.5C 72.8333,66.8333 71.1667,62.1667 69.5,57.5C 70.791,57.7373 71.791,57.404 72.5,56.5 Z"/></g>
<g><path style="opacity:0.837" fill="#d7c28c" d="M 94.5,56.5 C 95.209,57.404 96.209,57.7373 97.5,57.5C 95.8333,62.1667 94.1667,66.8333 92.5,71.5C 90.901,71.7678 89.5676,71.4345 88.5,70.5C 88.5,69.8333 88.5,69.1667 88.5,68.5C 90.0722,65.682 91.4055,62.682 92.5,59.5C 93.1667,58.5 93.8333,57.5 94.5,56.5 Z"/></g>
<g><path style="opacity:0.868" fill="#d7c28d" d="M 120.5,57.5 C 122.5,57.5 124.5,57.5 126.5,57.5C 126.167,58.1667 125.833,58.8333 125.5,59.5C 120.742,61.7417 116.075,64.2417 111.5,67C 110.62,68.3561 110.286,69.8561 110.5,71.5C 109.167,71.5 107.833,71.5 106.5,71.5C 106.838,69.146 107.338,66.8127 108,64.5C 112.275,62.2813 116.441,59.948 120.5,57.5 Z"/></g>
<g><path style="opacity:0.834" fill="#d7c28c" d="M 156.5,57.5 C 157.833,57.5 159.167,57.5 160.5,57.5C 159.025,61.7835 157.025,65.7835 154.5,69.5C 153.167,69.5 151.833,69.5 150.5,69.5C 151.561,66.3777 152.895,63.3777 154.5,60.5C 155.401,59.7095 156.068,58.7095 156.5,57.5 Z"/></g>
<g><path style="opacity:1" fill="#c8aa6f" d="M 78.5,57.5 C 81.8333,65.5 85.1667,65.5 88.5,57.5C 91.3686,54.488 92.7019,55.1547 92.5,59.5C 91.4055,62.682 90.0722,65.682 88.5,68.5C 85.1667,67.1667 81.8333,67.1667 78.5,68.5C 76.9278,65.682 75.5945,62.682 74.5,59.5C 74.2981,55.1547 75.6314,54.488 78.5,57.5 Z"/></g>
<g><path style="opacity:0.898" fill="#d9c490" d="M 78.5,57.5 C 79.8333,57.5 81.1667,57.5 82.5,57.5C 83.1667,58.8333 83.8333,58.8333 84.5,57.5C 85.8333,57.5 87.1667,57.5 88.5,57.5C 85.1667,65.5 81.8333,65.5 78.5,57.5 Z"/></g>
<g><path style="opacity:1" fill="#c7a96d" d="M 154.5,60.5 C 152.895,63.3777 151.561,66.3777 150.5,69.5C 145.833,69.5 141.167,69.5 136.5,69.5C 140.647,68.6753 144.981,68.1753 149.5,68C 137.153,67.1674 124.82,67.3341 112.5,68.5C 112.006,70.0255 111.339,71.3588 110.5,72.5C 110.5,72.1667 110.5,71.8333 110.5,71.5C 110.286,69.8561 110.62,68.3561 111.5,67C 116.075,64.2417 120.742,61.7417 125.5,59.5C 130.619,58.8837 135.785,58.5503 141,58.5C 145.886,58.5073 150.386,59.1739 154.5,60.5 Z"/></g>
<g><path style="opacity:1" fill="#c2a468" d="M 88.5,68.5 C 88.5,69.1667 88.5,69.8333 88.5,70.5C 87.129,72.936 86.129,75.6027 85.5,78.5C 84.5386,80.2646 84.2053,82.2646 84.5,84.5C 83.8333,84.5 83.1667,84.5 82.5,84.5C 82.7947,82.2646 82.4614,80.2646 81.5,78.5C 80.871,75.6027 79.871,72.936 78.5,70.5C 78.5,69.8333 78.5,69.1667 78.5,68.5C 81.8333,67.1667 85.1667,67.1667 88.5,68.5 Z"/></g>
<g><path style="opacity:1" fill="#c3a569" d="M 136.5,69.5 C 134.088,69.6941 133.088,71.0274 133.5,73.5C 133.5,73.8333 133.5,74.1667 133.5,74.5C 125.833,73.1667 118.167,73.1667 110.5,74.5C 110.5,73.8333 110.5,73.1667 110.5,72.5C 111.339,71.3588 112.006,70.0255 112.5,68.5C 124.82,67.3341 137.153,67.1674 149.5,68C 144.981,68.1753 140.647,68.6753 136.5,69.5 Z"/></g>
<g><path style="opacity:0.671" fill="#d5bf87" d="M 136.5,69.5 C 141.167,69.5 145.833,69.5 150.5,69.5C 151.833,69.5 153.167,69.5 154.5,69.5C 153.972,70.7206 153.305,71.8873 152.5,73C 148.514,73.4988 144.514,73.6655 140.5,73.5C 138.167,73.5 135.833,73.5 133.5,73.5C 133.088,71.0274 134.088,69.6941 136.5,69.5 Z"/></g>
<g><path style="opacity:0.843" fill="#d3be85" d="M 23.5,71.5 C 26.1667,71.5 28.8333,71.5 31.5,71.5C 28.9949,73.0114 26.3283,74.3447 23.5,75.5C 22.2209,76.968 20.5542,77.6347 18.5,77.5C 16.5241,76.5729 16.1908,75.2395 17.5,73.5C 19.4496,72.6279 21.4496,71.9612 23.5,71.5 Z"/></g>
<g><path style="opacity:0.848" fill="#d2bd83" d="M 56.5,71.5 C 57.8333,71.5 59.1667,71.5 60.5,71.5C 61.0396,74.8647 61.7063,78.198 62.5,81.5C 61.1667,81.5 59.8333,81.5 58.5,81.5C 57.99,78.4606 57.3234,75.4606 56.5,72.5C 56.5,72.1667 56.5,71.8333 56.5,71.5 Z"/></g>
<g><path style="opacity:0.848" fill="#d2bd83" d="M 106.5,71.5 C 107.833,71.5 109.167,71.5 110.5,71.5C 110.5,71.8333 110.5,72.1667 110.5,72.5C 110.5,73.1667 110.5,73.8333 110.5,74.5C 109.388,76.5994 108.721,78.9327 108.5,81.5C 107.167,81.5 105.833,81.5 104.5,81.5C 105.294,78.198 105.96,74.8647 106.5,71.5 Z"/></g>
<g><path style="opacity:1" fill="#c1a367" d="M 56.5,72.5 C 57.3234,75.4606 57.99,78.4606 58.5,81.5C 58.5,81.8333 58.5,82.1667 58.5,82.5C 57.6091,81.7387 56.9424,80.7387 56.5,79.5C 51.533,78.3377 46.533,78.1711 41.5,79C 43.3197,79.2004 44.653,80.0337 45.5,81.5C 39.4443,79.3707 33.2776,79.0374 27,80.5C 24.46,79.7935 23.2933,78.1268 23.5,75.5C 26.3283,74.3447 28.9949,73.0114 31.5,71.5C 32.4916,71.6716 33.1583,71.3382 33.5,70.5C 34.404,69.791 34.7373,68.791 34.5,67.5C 41.175,67.3337 47.8417,67.5004 54.5,68C 55.0989,69.6225 55.7656,71.1225 56.5,72.5 Z"/></g>
<g><path style="opacity:1" fill="#c0a266" d="M 133.5,74.5 C 135.865,76.5265 138.531,78.1932 141.5,79.5C 135.904,79.2428 130.237,79.5762 124.5,80.5C 124.611,79.8826 124.944,79.3826 125.5,79C 120.467,78.1711 115.467,78.3377 110.5,79.5C 110.058,80.7387 109.391,81.7387 108.5,82.5C 108.5,82.1667 108.5,81.8333 108.5,81.5C 108.721,78.9327 109.388,76.5994 110.5,74.5C 118.167,73.1667 125.833,73.1667 133.5,74.5 Z"/></g>
<g><path style="opacity:0.845" fill="#d1bc81" d="M 78.5,70.5 C 79.871,72.936 80.871,75.6027 81.5,78.5C 81.5,80.8333 81.5,83.1667 81.5,85.5C 80.5,85.5 79.5,85.5 78.5,85.5C 78.1759,80.5297 76.8426,75.8631 74.5,71.5C 76.099,71.7678 77.4324,71.4345 78.5,70.5 Z"/></g>
<g><path style="opacity:0.845" fill="#d1bc81" d="M 88.5,70.5 C 89.5676,71.4345 90.901,71.7678 92.5,71.5C 90.1574,75.8631 88.8241,80.5297 88.5,85.5C 87.5,85.5 86.5,85.5 85.5,85.5C 85.5,83.1667 85.5,80.8333 85.5,78.5C 86.129,75.6027 87.129,72.936 88.5,70.5 Z"/></g>
<g><path style="opacity:0.946" fill="#d1bc81" d="M 133.5,73.5 C 135.833,73.5 138.167,73.5 140.5,73.5C 143.234,74.705 145.901,76.205 148.5,78C 147.29,79.0391 146.29,80.2058 145.5,81.5C 138.313,81.8245 131.313,81.4912 124.5,80.5C 130.237,79.5762 135.904,79.2428 141.5,79.5C 138.531,78.1932 135.865,76.5265 133.5,74.5C 133.5,74.1667 133.5,73.8333 133.5,73.5 Z"/></g>
<g><path style="opacity:0.788" fill="#ceb97d" d="M 23.5,75.5 C 23.2933,78.1268 24.46,79.7935 27,80.5C 33.2776,79.0374 39.4443,79.3707 45.5,81.5C 48.8333,84.1667 51.8333,87.1667 54.5,90.5C 54.5,90.8333 54.5,91.1667 54.5,91.5C 53.4324,92.4345 52.099,92.7678 50.5,92.5C 44.0744,83.1448 35.7411,80.8114 25.5,85.5C 23.1689,82.8424 20.8355,80.1757 18.5,77.5C 20.5542,77.6347 22.2209,76.968 23.5,75.5 Z"/></g>
<g><path style="opacity:0.775" fill="#ceb97c" d="M 124.5,80.5 C 131.313,81.4912 138.313,81.8245 145.5,81.5C 144.521,83.1454 143.188,84.4787 141.5,85.5C 131.259,80.8114 122.926,83.1448 116.5,92.5C 114.901,92.7678 113.568,92.4345 112.5,91.5C 112.5,91.1667 112.5,90.8333 112.5,90.5C 115.593,86.0729 119.593,82.7395 124.5,80.5 Z"/></g>
<g><path style="opacity:1" fill="#bb9d61" d="M 58.5,82.5 C 59.3007,84.0418 59.634,85.7085 59.5,87.5C 57.8333,87.5 56.1667,87.5 54.5,87.5C 54.5,88.5 54.5,89.5 54.5,90.5C 51.8333,87.1667 48.8333,84.1667 45.5,81.5C 44.653,80.0337 43.3197,79.2004 41.5,79C 46.533,78.1711 51.533,78.3377 56.5,79.5C 56.9424,80.7387 57.6091,81.7387 58.5,82.5 Z"/></g>
<g><path style="opacity:1" fill="#bb9d61" d="M 124.5,80.5 C 119.593,82.7395 115.593,86.0729 112.5,90.5C 112.5,89.5 112.5,88.5 112.5,87.5C 110.833,87.5 109.167,87.5 107.5,87.5C 107.366,85.7085 107.699,84.0418 108.5,82.5C 109.391,81.7387 110.058,80.7387 110.5,79.5C 115.467,78.3377 120.467,78.1711 125.5,79C 124.944,79.3826 124.611,79.8826 124.5,80.5 Z"/></g>
<g><path style="opacity:0.833" fill="#cdb87a" d="M 58.5,81.5 C 59.8333,81.5 61.1667,81.5 62.5,81.5C 62.7878,84.9389 63.4544,88.2722 64.5,91.5C 63.1667,91.5 61.8333,91.5 60.5,91.5C 60.1667,90.1667 59.8333,88.8333 59.5,87.5C 59.634,85.7085 59.3007,84.0418 58.5,82.5C 58.5,82.1667 58.5,81.8333 58.5,81.5 Z"/></g>
<g><path style="opacity:0.833" fill="#cdb87a" d="M 104.5,81.5 C 105.833,81.5 107.167,81.5 108.5,81.5C 108.5,81.8333 108.5,82.1667 108.5,82.5C 107.699,84.0418 107.366,85.7085 107.5,87.5C 107.167,88.8333 106.833,90.1667 106.5,91.5C 105.167,91.5 103.833,91.5 102.5,91.5C 103.546,88.2722 104.212,84.9389 104.5,81.5 Z"/></g>
<g><path style="opacity:1" fill="#b6995d" d="M 59.5,87.5 C 59.8333,88.8333 60.1667,90.1667 60.5,91.5C 60.9926,93.8056 61.3259,96.139 61.5,98.5C 60.4915,94.3853 58.4915,93.7186 55.5,96.5C 55.7845,94.5853 55.4511,92.9187 54.5,91.5C 54.5,91.1667 54.5,90.8333 54.5,90.5C 54.5,89.5 54.5,88.5 54.5,87.5C 56.1667,87.5 57.8333,87.5 59.5,87.5 Z"/></g>
<g><path style="opacity:1" fill="#b6995d" d="M 107.5,87.5 C 109.167,87.5 110.833,87.5 112.5,87.5C 112.5,88.5 112.5,89.5 112.5,90.5C 112.5,90.8333 112.5,91.1667 112.5,91.5C 111.549,92.9187 111.216,94.5853 111.5,96.5C 108.508,93.7186 106.508,94.3853 105.5,98.5C 105.674,96.139 106.007,93.8056 106.5,91.5C 106.833,90.1667 107.167,88.8333 107.5,87.5 Z"/></g>
<g><path style="opacity:0.941" fill="#c9b374" d="M 81.5,78.5 C 82.4614,80.2646 82.7947,82.2646 82.5,84.5C 82.5,87.5 82.5,90.5 82.5,93.5C 81.5655,94.5676 81.2322,95.901 81.5,97.5C 80.5,97.5 79.5,97.5 78.5,97.5C 78.5,93.5 78.5,89.5 78.5,85.5C 79.5,85.5 80.5,85.5 81.5,85.5C 81.5,83.1667 81.5,80.8333 81.5,78.5 Z"/></g>
<g><path style="opacity:0.941" fill="#c9b374" d="M 85.5,78.5 C 85.5,80.8333 85.5,83.1667 85.5,85.5C 86.5,85.5 87.5,85.5 88.5,85.5C 88.5,89.5 88.5,93.5 88.5,97.5C 87.5,97.5 86.5,97.5 85.5,97.5C 85.7678,95.901 85.4345,94.5676 84.5,93.5C 84.5,90.5 84.5,87.5 84.5,84.5C 84.2053,82.2646 84.5386,80.2646 85.5,78.5 Z"/></g>
<g><path style="opacity:0.869" fill="#c5b16e" d="M 54.5,91.5 C 55.4511,92.9187 55.7845,94.5853 55.5,96.5C 52.055,97.7301 49.055,99.7301 46.5,102.5C 45.5,102.5 44.5,102.5 43.5,102.5C 44.5852,98.2462 47.2518,95.4129 51.5,94C 50.944,93.6174 50.6107,93.1174 50.5,92.5C 52.099,92.7678 53.4324,92.4345 54.5,91.5 Z"/></g>
<g><path style="opacity:1" fill="#ac8f54" d="M 61.5,98.5 C 61.8333,99.8333 62.1667,101.167 62.5,102.5C 62.5,104.833 62.5,107.167 62.5,109.5C 62.1667,109.5 61.8333,109.5 61.5,109.5C 61.5,107.167 61.5,104.833 61.5,102.5C 57.1539,102.334 52.8206,102.501 48.5,103C 47.5939,104.699 47.2606,106.533 47.5,108.5C 47.1667,108.5 46.8333,108.5 46.5,108.5C 46.5,106.5 46.5,104.5 46.5,102.5C 49.055,99.7301 52.055,97.7301 55.5,96.5C 58.4915,93.7186 60.4915,94.3853 61.5,98.5 Z"/></g>
<g><path style="opacity:0.85" fill="#c6b16f" d="M 60.5,91.5 C 61.8333,91.5 63.1667,91.5 64.5,91.5C 64.6587,95.2909 65.3254,98.9576 66.5,102.5C 65.1667,102.5 63.8333,102.5 62.5,102.5C 62.1667,101.167 61.8333,99.8333 61.5,98.5C 61.3259,96.139 60.9926,93.8056 60.5,91.5 Z"/></g>
<g><path style="opacity:0.849" fill="#c6b16f" d="M 102.5,91.5 C 103.833,91.5 105.167,91.5 106.5,91.5C 106.007,93.8056 105.674,96.139 105.5,98.5C 105.167,99.8333 104.833,101.167 104.5,102.5C 103.167,102.5 101.833,102.5 100.5,102.5C 101.675,98.9576 102.341,95.2909 102.5,91.5 Z"/></g>
<g><path style="opacity:1" fill="#ac9055" d="M 111.5,96.5 C 114.945,97.7301 117.945,99.7301 120.5,102.5C 120.5,104.5 120.5,106.5 120.5,108.5C 120.167,108.5 119.833,108.5 119.5,108.5C 119.739,106.533 119.406,104.699 118.5,103C 114.179,102.501 109.846,102.334 105.5,102.5C 105.5,104.833 105.5,107.167 105.5,109.5C 105.167,109.5 104.833,109.5 104.5,109.5C 104.5,107.167 104.5,104.833 104.5,102.5C 104.833,101.167 105.167,99.8333 105.5,98.5C 106.508,94.3853 108.508,93.7186 111.5,96.5 Z"/></g>
<g><path style="opacity:0.87" fill="#c5b16e" d="M 112.5,91.5 C 113.568,92.4345 114.901,92.7678 116.5,92.5C 116.389,93.1174 116.056,93.6174 115.5,94C 119.748,95.4129 122.415,98.2462 123.5,102.5C 122.5,102.5 121.5,102.5 120.5,102.5C 117.945,99.7301 114.945,97.7301 111.5,96.5C 111.216,94.5853 111.549,92.9187 112.5,91.5 Z"/></g>
<g><path style="opacity:1" fill="#b19459" d="M 82.5,84.5 C 83.1667,84.5 83.8333,84.5 84.5,84.5C 84.5,87.5 84.5,90.5 84.5,93.5C 84.5,96.1667 84.5,98.8333 84.5,101.5C 83.8333,101.5 83.1667,101.5 82.5,101.5C 82.5,98.8333 82.5,96.1667 82.5,93.5C 82.5,90.5 82.5,87.5 82.5,84.5 Z"/></g>
<g><path style="opacity:1" fill="#a4874e" d="M 61.5,109.5 C 58.8479,113.314 55.1813,114.481 50.5,113C 48.8588,111.871 47.8588,110.371 47.5,108.5C 47.2606,106.533 47.5939,104.699 48.5,103C 52.8206,102.501 57.1539,102.334 61.5,102.5C 61.5,104.833 61.5,107.167 61.5,109.5 Z"/></g>
<g><path style="opacity:1" fill="#a4874e" d="M 119.5,108.5 C 118.578,112.083 116.244,113.75 112.5,113.5C 109.182,113.841 106.848,112.508 105.5,109.5C 105.5,107.167 105.5,104.833 105.5,102.5C 109.846,102.334 114.179,102.501 118.5,103C 119.406,104.699 119.739,106.533 119.5,108.5 Z"/></g>
<g><path style="opacity:0.801" fill="#c0ac66" d="M 43.5,102.5 C 44.5,102.5 45.5,102.5 46.5,102.5C 46.5,104.5 46.5,106.5 46.5,108.5C 45.791,109.404 44.791,109.737 43.5,109.5C 42.1667,107.167 42.1667,104.833 43.5,102.5 Z"/></g>
<g><path style="opacity:0.872" fill="#c0ab66" d="M 62.5,102.5 C 63.8333,102.5 65.1667,102.5 66.5,102.5C 66.5,104.833 66.5,107.167 66.5,109.5C 65.1667,109.5 63.8333,109.5 62.5,109.5C 62.5,107.167 62.5,104.833 62.5,102.5 Z"/></g>
<g><path style="opacity:0.941" fill="#c1ad68" d="M 78.5,97.5 C 79.5,97.5 80.5,97.5 81.5,97.5C 81.5,101.5 81.5,105.5 81.5,109.5C 80.5,109.5 79.5,109.5 78.5,109.5C 78.5,105.5 78.5,101.5 78.5,97.5 Z"/></g>
<g><path style="opacity:0.941" fill="#c1ad68" d="M 85.5,97.5 C 86.5,97.5 87.5,97.5 88.5,97.5C 88.5,101.5 88.5,105.5 88.5,109.5C 87.5,109.5 86.5,109.5 85.5,109.5C 85.5,105.5 85.5,101.5 85.5,97.5 Z"/></g>
<g><path style="opacity:0.869" fill="#c0ab66" d="M 100.5,102.5 C 101.833,102.5 103.167,102.5 104.5,102.5C 104.5,104.833 104.5,107.167 104.5,109.5C 103.167,109.5 101.833,109.5 100.5,109.5C 100.5,107.167 100.5,104.833 100.5,102.5 Z"/></g>
<g><path style="opacity:0.802" fill="#c0ac66" d="M 120.5,102.5 C 121.5,102.5 122.5,102.5 123.5,102.5C 124.833,104.833 124.833,107.167 123.5,109.5C 122.209,109.737 121.209,109.404 120.5,108.5C 120.5,106.5 120.5,104.5 120.5,102.5 Z"/></g>
<g><path style="opacity:0.792" fill="#baa65d" d="M 46.5,108.5 C 46.8333,108.5 47.1667,108.5 47.5,108.5C 47.8588,110.371 48.8588,111.871 50.5,113C 55.1813,114.481 58.8479,113.314 61.5,109.5C 61.8333,109.5 62.1667,109.5 62.5,109.5C 63.8333,109.5 65.1667,109.5 66.5,109.5C 62.3058,117.476 55.9725,119.643 47.5,116C 45.2663,114.362 43.933,112.195 43.5,109.5C 44.791,109.737 45.791,109.404 46.5,108.5 Z"/></g>
<g><path style="opacity:0.792" fill="#baa65d" d="M 119.5,108.5 C 119.833,108.5 120.167,108.5 120.5,108.5C 121.209,109.404 122.209,109.737 123.5,109.5C 122.105,115.221 118.439,117.888 112.5,117.5C 106.633,117.633 102.633,114.966 100.5,109.5C 101.833,109.5 103.167,109.5 104.5,109.5C 104.833,109.5 105.167,109.5 105.5,109.5C 106.848,112.508 109.182,113.841 112.5,113.5C 116.244,113.75 118.578,112.083 119.5,108.5 Z"/></g>
<g><path style="opacity:0.941" fill="#baa65d" d="M 78.5,109.5 C 79.5,109.5 80.5,109.5 81.5,109.5C 81.5,112.5 81.5,115.5 81.5,118.5C 80.5,118.5 79.5,118.5 78.5,118.5C 78.5,115.5 78.5,112.5 78.5,109.5 Z"/></g>
<g><path style="opacity:1" fill="#a0844a" d="M 82.5,101.5 C 83.1667,101.5 83.8333,101.5 84.5,101.5C 84.5,107.833 84.5,114.167 84.5,120.5C 83.8333,120.5 83.1667,120.5 82.5,120.5C 82.5,114.167 82.5,107.833 82.5,101.5 Z"/></g>
<g><path style="opacity:0.941" fill="#baa65d" d="M 85.5,109.5 C 86.5,109.5 87.5,109.5 88.5,109.5C 88.5,112.5 88.5,115.5 88.5,118.5C 87.5,118.5 86.5,118.5 85.5,118.5C 85.5,115.5 85.5,112.5 85.5,109.5 Z"/></g>
<g><path style="opacity:0.881" fill="#b59d56" d="M 82.5,93.5 C 82.5,96.1667 82.5,98.8333 82.5,101.5C 82.5,107.833 82.5,114.167 82.5,120.5C 80.9281,123.215 79.9281,126.215 79.5,129.5C 78.1667,129.5 76.8333,129.5 75.5,129.5C 76.2967,125.777 77.2967,122.11 78.5,118.5C 79.5,118.5 80.5,118.5 81.5,118.5C 81.5,115.5 81.5,112.5 81.5,109.5C 81.5,105.5 81.5,101.5 81.5,97.5C 81.2322,95.901 81.5655,94.5676 82.5,93.5 Z"/></g>
<g><path style="opacity:0.882" fill="#b59d56" d="M 84.5,93.5 C 85.4345,94.5676 85.7678,95.901 85.5,97.5C 85.5,101.5 85.5,105.5 85.5,109.5C 85.5,112.5 85.5,115.5 85.5,118.5C 86.5,118.5 87.5,118.5 88.5,118.5C 89.7033,122.11 90.7033,125.777 91.5,129.5C 90.1667,129.5 88.8333,129.5 87.5,129.5C 87.0719,126.215 86.0719,123.215 84.5,120.5C 84.5,114.167 84.5,107.833 84.5,101.5C 84.5,98.8333 84.5,96.1667 84.5,93.5 Z"/></g>
<g><path style="opacity:1" fill="#967b41" d="M 82.5,120.5 C 83.1667,120.5 83.8333,120.5 84.5,120.5C 86.0719,123.215 87.0719,126.215 87.5,129.5C 87.5,129.833 87.5,130.167 87.5,130.5C 84.8333,125.167 82.1667,125.167 79.5,130.5C 79.5,130.167 79.5,129.833 79.5,129.5C 79.9281,126.215 80.9281,123.215 82.5,120.5 Z"/></g>
<g><path style="opacity:0.884" fill="#ae924b" d="M 75.5,129.5 C 76.8333,129.5 78.1667,129.5 79.5,129.5C 79.5,129.833 79.5,130.167 79.5,130.5C 78.4625,131.93 77.7959,133.597 77.5,135.5C 76.1667,135.5 74.8333,135.5 73.5,135.5C 73.9707,133.421 74.6373,131.421 75.5,129.5 Z"/></g>
<g><path style="opacity:0.884" fill="#ae924b" d="M 87.5,130.5 C 87.5,130.167 87.5,129.833 87.5,129.5C 88.8333,129.5 90.1667,129.5 91.5,129.5C 92.3627,131.421 93.0293,133.421 93.5,135.5C 92.1667,135.5 90.8333,135.5 89.5,135.5C 89.2041,133.597 88.5375,131.93 87.5,130.5 Z"/></g>
<g><path style="opacity:1" fill="#8d723b" d="M 87.5,130.5 C 88.5375,131.93 89.2041,133.597 89.5,135.5C 90.1098,136.391 90.4431,137.391 90.5,138.5C 88.8958,137.713 88.2291,136.38 88.5,134.5C 85.1667,134.5 81.8333,134.5 78.5,134.5C 78.7709,136.38 78.1042,137.713 76.5,138.5C 76.5569,137.391 76.8902,136.391 77.5,135.5C 77.7959,133.597 78.4625,131.93 79.5,130.5C 82.1667,125.167 84.8333,125.167 87.5,130.5 Z"/></g>
<g><path style="opacity:1" fill="#886d37" d="M 90.5,138.5 C 91.2341,139.708 91.5674,141.041 91.5,142.5C 91.5,142.833 91.5,143.167 91.5,143.5C 90.7515,142.469 90.0848,141.302 89.5,140C 85.5,139.333 81.5,139.333 77.5,140C 76.9152,141.302 76.2485,142.469 75.5,143.5C 75.5,143.167 75.5,142.833 75.5,142.5C 75.4326,141.041 75.7659,139.708 76.5,138.5C 78.1042,137.713 78.7709,136.38 78.5,134.5C 81.8333,134.5 85.1667,134.5 88.5,134.5C 88.2291,136.38 88.8958,137.713 90.5,138.5 Z"/></g>
<g><path style="opacity:0.834" fill="#ab8b46" d="M 73.5,135.5 C 74.8333,135.5 76.1667,135.5 77.5,135.5C 76.8902,136.391 76.5569,137.391 76.5,138.5C 75.7659,139.708 75.4326,141.041 75.5,142.5C 74.1667,142.5 72.8333,142.5 71.5,142.5C 71.767,140.035 72.4336,137.701 73.5,135.5 Z"/></g>
<g><path style="opacity:0.835" fill="#ab8b46" d="M 89.5,135.5 C 90.8333,135.5 92.1667,135.5 93.5,135.5C 94.5664,137.701 95.233,140.035 95.5,142.5C 94.1667,142.5 92.8333,142.5 91.5,142.5C 91.5674,141.041 91.2341,139.708 90.5,138.5C 90.4431,137.391 90.1098,136.391 89.5,135.5 Z"/></g>
<g><path style="opacity:1" fill="#836833" d="M 91.5,143.5 C 92.8333,145.167 92.8333,146.833 91.5,148.5C 91.5,147.5 91.5,146.5 91.5,145.5C 86.1667,145.5 80.8333,145.5 75.5,145.5C 75.5,146.5 75.5,147.5 75.5,148.5C 74.1667,146.833 74.1667,145.167 75.5,143.5C 76.2485,142.469 76.9152,141.302 77.5,140C 81.5,139.333 85.5,139.333 89.5,140C 90.0848,141.302 90.7515,142.469 91.5,143.5 Z"/></g>
<g><path style="opacity:1" fill="#7f6430" d="M 91.5,148.5 C 91.5,148.833 91.5,149.167 91.5,149.5C 90.5,150.833 89.5,152.167 88.5,153.5C 87.3064,152.223 85.6397,151.556 83.5,151.5C 81.3603,151.556 79.6936,152.223 78.5,153.5C 77.5,152.167 76.5,150.833 75.5,149.5C 75.5,149.167 75.5,148.833 75.5,148.5C 75.5,147.5 75.5,146.5 75.5,145.5C 80.8333,145.5 86.1667,145.5 91.5,145.5C 91.5,146.5 91.5,147.5 91.5,148.5 Z"/></g>
<g><path style="opacity:0.812" fill="#a5833f" d="M 71.5,142.5 C 72.8333,142.5 74.1667,142.5 75.5,142.5C 75.5,142.833 75.5,143.167 75.5,143.5C 74.1667,145.167 74.1667,146.833 75.5,148.5C 75.5,148.833 75.5,149.167 75.5,149.5C 75.1788,151.048 74.1788,151.715 72.5,151.5C 69.1198,148.806 68.7865,145.806 71.5,142.5 Z"/></g>
<g><path style="opacity:0.813" fill="#a5833f" d="M 91.5,143.5 C 91.5,143.167 91.5,142.833 91.5,142.5C 92.8333,142.5 94.1667,142.5 95.5,142.5C 98.2135,145.806 97.8802,148.806 94.5,151.5C 92.8212,151.715 91.8212,151.048 91.5,149.5C 91.5,149.167 91.5,148.833 91.5,148.5C 92.8333,146.833 92.8333,145.167 91.5,143.5 Z"/></g>
<g><path style="opacity:0.876" fill="#9b7a37" d="M 75.5,149.5 C 76.5,150.833 77.5,152.167 78.5,153.5C 79.0219,158.669 81.6886,160.336 86.5,158.5C 87.4565,156.925 88.1231,155.258 88.5,153.5C 89.5,152.167 90.5,150.833 91.5,149.5C 91.8212,151.048 92.8212,151.715 94.5,151.5C 93.1192,155.264 91.4526,158.931 89.5,162.5C 85.5,163.833 81.5,163.833 77.5,162.5C 75.5474,158.931 73.8808,155.264 72.5,151.5C 74.1788,151.715 75.1788,151.048 75.5,149.5 Z"/></g>
<g><path style="opacity:1" fill="#7a602c" d="M 88.5,153.5 C 88.1231,155.258 87.4565,156.925 86.5,158.5C 81.6886,160.336 79.0219,158.669 78.5,153.5C 79.6936,152.223 81.3603,151.556 83.5,151.5C 85.6397,151.556 87.3064,152.223 88.5,153.5 Z"/></g>
</svg>
