<?xml version="1.0" encoding="UTF-8"?>
<!DOCTYPE svg PUBLIC "-//W3C//DTD SVG 1.1//EN" "http://www.w3.org/Graphics/SVG/1.1/DTD/svg11.dtd">
<svg xmlns="http://www.w3.org/2000/svg" version="1.1" width="168px" height="168px" style="shape-rendering:geometricPrecision; text-rendering:geometricPrecision; image-rendering:optimizeQuality; fill-rule:evenodd; clip-rule:evenodd" xmlns:xlink="http://www.w3.org/1999/xlink">
<g><path style="opacity:0.77" fill="#dbd1b0" d="M 70.5,20.5 C 69.1667,20.5 67.8333,20.5 66.5,20.5C 66.7976,17.7354 67.7976,15.2354 69.5,13C 65.4051,14.2412 62.0717,16.7412 59.5,20.5C 57.8333,20.5 56.1667,20.5 54.5,20.5C 61.4738,10.3444 71.1404,4.84439 83.5,4C 77.0834,7.91023 72.7501,13.4102 70.5,20.5 Z"/></g>
<g><path style="opacity:1" fill="#d0c092" d="M 66.5,20.5 C 66.5,23.1667 66.5,25.8333 66.5,28.5C 65.5269,26.0521 65.1936,23.3854 65.5,20.5C 63.3792,20.3253 61.3792,20.6586 59.5,21.5C 59.5,21.1667 59.5,20.8333 59.5,20.5C 62.0717,16.7412 65.4051,14.2412 69.5,13C 67.7976,15.2354 66.7976,17.7354 66.5,20.5 Z"/></g>
<g><path style="opacity:0.874" fill="#dbceab" d="M 54.5,20.5 C 56.1667,20.5 57.8333,20.5 59.5,20.5C 59.5,20.8333 59.5,21.1667 59.5,21.5C 57.127,23.5792 55.7936,26.2459 55.5,29.5C 54.5318,31.6074 54.1984,33.9407 54.5,36.5C 53.5,36.5 52.5,36.5 51.5,36.5C 50.9304,30.8183 51.9304,25.485 54.5,20.5 Z"/></g>
<g><path style="opacity:0.821" fill="#dbcea9" d="M 66.5,20.5 C 67.8333,20.5 69.1667,20.5 70.5,20.5C 68.7379,29.9033 72.4046,33.07 81.5,30C 82.0465,29.0754 82.7132,28.2421 83.5,27.5C 87.2558,32.5849 90.5891,37.9182 93.5,43.5C 92.1667,43.5 90.8333,43.5 89.5,43.5C 89.1667,43.5 88.8333,43.5 88.5,43.5C 87.2347,40.4752 85.568,37.6418 83.5,35C 79.5406,35.1582 75.5406,35.3249 71.5,35.5C 69.4453,33.4451 67.7787,31.1117 66.5,28.5C 66.5,25.8333 66.5,23.1667 66.5,20.5 Z"/></g>
<g><path style="opacity:1" fill="#cdba88" d="M 66.5,28.5 C 67.7787,31.1117 69.4453,33.4451 71.5,35.5C 66.7592,33.6831 61.7592,33.0164 56.5,33.5C 56.5,36.1667 56.5,38.8333 56.5,41.5C 55.5166,37.7016 55.1832,33.7016 55.5,29.5C 55.7936,26.2459 57.127,23.5792 59.5,21.5C 61.3792,20.6586 63.3792,20.3253 65.5,20.5C 65.1936,23.3854 65.5269,26.0521 66.5,28.5 Z"/></g>
<g><path style="opacity:1" fill="#cdb781" d="M 71.5,35.5 C 75.5406,35.3249 79.5406,35.1582 83.5,35C 85.568,37.6418 87.2347,40.4752 88.5,43.5C 83.2453,42.8564 77.912,42.5231 72.5,42.5C 67.1194,42.5058 62.1194,43.1725 57.5,44.5C 56.8333,44.5 56.5,44.1667 56.5,43.5C 56.5,42.8333 56.5,42.1667 56.5,41.5C 56.5,38.8333 56.5,36.1667 56.5,33.5C 61.7592,33.0164 66.7592,33.6831 71.5,35.5 Z"/></g>
<g><path style="opacity:0.843" fill="#dbcba4" d="M 55.5,29.5 C 55.1832,33.7016 55.5166,37.7016 56.5,41.5C 56.5,42.1667 56.5,42.8333 56.5,43.5C 55.1667,43.5 53.8333,43.5 52.5,43.5C 51.7814,41.2362 51.448,38.9029 51.5,36.5C 52.5,36.5 53.5,36.5 54.5,36.5C 54.1984,33.9407 54.5318,31.6074 55.5,29.5 Z"/></g>
<g><path style="opacity:0.898" fill="#dbc99b" d="M 52.5,43.5 C 53.8333,43.5 55.1667,43.5 56.5,43.5C 56.5,44.1667 56.8333,44.5 57.5,44.5C 57.795,46.4233 58.6283,48.0899 60,49.5C 63.788,46.6777 67.9546,45.1777 72.5,45C 73.7785,47.4976 73.7785,49.9976 72.5,52.5C 71.5987,53.2905 70.9321,54.2905 70.5,55.5C 68.8333,55.5 67.1667,55.5 65.5,55.5C 66.6138,54.1147 67.6138,52.6147 68.5,51C 64.9296,52.2811 61.2629,53.2811 57.5,54C 55.4184,50.6711 53.7517,47.1711 52.5,43.5 Z"/></g>
<g><path style="opacity:1" fill="#cdb47b" d="M 88.5,43.5 C 88.8333,43.5 89.1667,43.5 89.5,43.5C 90.5686,45.9687 91.9019,48.3021 93.5,50.5C 93.5,50.8333 93.5,51.1667 93.5,51.5C 86.443,51.24 79.443,51.5733 72.5,52.5C 73.7785,49.9976 73.7785,47.4976 72.5,45C 67.9546,45.1777 63.788,46.6777 60,49.5C 58.6283,48.0899 57.795,46.4233 57.5,44.5C 62.1194,43.1725 67.1194,42.5058 72.5,42.5C 77.912,42.5231 83.2453,42.8564 88.5,43.5 Z"/></g>
<g><path style="opacity:0.824" fill="#dbca9f" d="M 89.5,43.5 C 90.8333,43.5 92.1667,43.5 93.5,43.5C 95.588,45.3356 96.9213,47.6689 97.5,50.5C 96.1667,50.5 94.8333,50.5 93.5,50.5C 91.9019,48.3021 90.5686,45.9687 89.5,43.5 Z"/></g>
<g><path style="opacity:0.805" fill="#dbc798" d="M 93.5,51.5 C 93.5,51.1667 93.5,50.8333 93.5,50.5C 94.8333,50.5 96.1667,50.5 97.5,50.5C 99.5224,52.5313 101.189,54.8646 102.5,57.5C 101.167,57.5 99.8333,57.5 98.5,57.5C 96.8333,55.5 95.1667,53.5 93.5,51.5 Z"/></g>
<g><path style="opacity:1" fill="#cbae73" d="M 93.5,51.5 C 95.1667,53.5 96.8333,55.5 98.5,57.5C 99.758,59.6869 100.758,62.0202 101.5,64.5C 97.8183,64.3347 94.1516,64.5014 90.5,65C 91.2524,65.6708 91.5858,66.5041 91.5,67.5C 89.5026,65.487 87.836,63.1537 86.5,60.5C 83.8619,59.1668 81.5286,59.5002 79.5,61.5C 79.5,60.5 79.5,59.5 79.5,58.5C 75.7307,58.244 72.0641,58.5773 68.5,59.5C 68.7329,57.9382 69.3995,56.6049 70.5,55.5C 70.9321,54.2905 71.5987,53.2905 72.5,52.5C 79.443,51.5733 86.443,51.24 93.5,51.5 Z"/></g>
<g><path style="opacity:0.814" fill="#d7c38e" d="M 65.5,55.5 C 67.1667,55.5 68.8333,55.5 70.5,55.5C 69.3995,56.6049 68.7329,57.9382 68.5,59.5C 66.1792,62.7959 63.8458,66.1292 61.5,69.5C 60.1667,69.5 58.8333,69.5 57.5,69.5C 59.739,64.593 62.4057,59.9264 65.5,55.5 Z"/></g>
<g><path style="opacity:0.831" fill="#d7c28c" d="M 91.5,67.5 C 91.5,67.8333 91.5,68.1667 91.5,68.5C 90.4324,69.4345 89.099,69.7678 87.5,69.5C 86.4155,67.6814 85.0822,66.0147 83.5,64.5C 81.5907,66.6488 79.924,68.9821 78.5,71.5C 76.901,71.7678 75.5676,71.4345 74.5,70.5C 76.4203,67.6612 78.0869,64.6612 79.5,61.5C 81.5286,59.5002 83.8619,59.1668 86.5,60.5C 87.836,63.1537 89.5026,65.487 91.5,67.5 Z"/></g>
<g><path style="opacity:0.83" fill="#d7c28d" d="M 98.5,57.5 C 99.8333,57.5 101.167,57.5 102.5,57.5C 105.684,61.8684 108.351,66.5351 110.5,71.5C 109.167,71.5 107.833,71.5 106.5,71.5C 105.189,68.8646 103.522,66.5313 101.5,64.5C 100.758,62.0202 99.758,59.6869 98.5,57.5 Z"/></g>
<g><path style="opacity:1" fill="#c6a86c" d="M 79.5,61.5 C 78.0869,64.6612 76.4203,67.6612 74.5,70.5C 73.0787,73.0094 71.4121,75.3428 69.5,77.5C 69.5,76.5 69.5,75.5 69.5,74.5C 66.1667,74.5 62.8333,74.5 59.5,74.5C 59.0074,76.8056 58.6741,79.139 58.5,81.5C 58.5,82.5 58.5,83.5 58.5,84.5C 58.1667,84.5 57.8333,84.5 57.5,84.5C 56.8173,78.8972 58.1507,73.8972 61.5,69.5C 63.8458,66.1292 66.1792,62.7959 68.5,59.5C 72.0641,58.5773 75.7307,58.244 79.5,58.5C 79.5,59.5 79.5,60.5 79.5,61.5 Z"/></g>
<g><path style="opacity:1" fill="#c4a66a" d="M 101.5,64.5 C 103.522,66.5313 105.189,68.8646 106.5,71.5C 107.11,72.391 107.443,73.391 107.5,74.5C 103.438,72.8243 99.7712,73.1576 96.5,75.5C 94.4159,73.4236 92.7492,71.0903 91.5,68.5C 91.5,68.1667 91.5,67.8333 91.5,67.5C 91.5858,66.5041 91.2524,65.6708 90.5,65C 94.1516,64.5014 97.8183,64.3347 101.5,64.5 Z"/></g>
<g><path style="opacity:1" fill="#bea065" d="M 107.5,74.5 C 108.338,74.8417 108.672,75.5084 108.5,76.5C 108.815,80.3714 108.482,84.0381 107.5,87.5C 107.5,85.8333 107.5,84.1667 107.5,82.5C 105.167,82.5 102.833,82.5 100.5,82.5C 100.768,84.099 100.434,85.4324 99.5,86.5C 99.7947,84.2646 99.4614,82.2646 98.5,80.5C 97.8333,78.8333 97.1667,77.1667 96.5,75.5C 99.7712,73.1576 103.438,72.8243 107.5,74.5 Z"/></g>
<g><path style="opacity:0.814" fill="#d1bc82" d="M 57.5,69.5 C 58.8333,69.5 60.1667,69.5 61.5,69.5C 58.1507,73.8972 56.8173,78.8972 57.5,84.5C 56.791,85.404 55.791,85.7373 54.5,85.5C 53.1976,79.6815 54.1976,74.3481 57.5,69.5 Z"/></g>
<g><path style="opacity:0.805" fill="#d1bc81" d="M 74.5,70.5 C 75.5676,71.4345 76.901,71.7678 78.5,71.5C 75.2816,75.72 72.9483,80.3867 71.5,85.5C 70.5,85.5 69.5,85.5 68.5,85.5C 68.5,83.8333 68.5,82.1667 68.5,80.5C 68.5569,79.391 68.8902,78.391 69.5,77.5C 71.4121,75.3428 73.0787,73.0094 74.5,70.5 Z"/></g>
<g><path style="opacity:0.817" fill="#d1bc81" d="M 91.5,68.5 C 92.7492,71.0903 94.4159,73.4236 96.5,75.5C 97.1667,77.1667 97.8333,78.8333 98.5,80.5C 98.5,82.1667 98.5,83.8333 98.5,85.5C 97.5,85.5 96.5,85.5 95.5,85.5C 93.3794,79.9255 90.7127,74.5921 87.5,69.5C 89.099,69.7678 90.4324,69.4345 91.5,68.5 Z"/></g>
<g><path style="opacity:0.801" fill="#d1bc82" d="M 106.5,71.5 C 107.833,71.5 109.167,71.5 110.5,71.5C 112.965,75.5047 113.632,79.838 112.5,84.5C 111.5,84.5 110.5,84.5 109.5,84.5C 109.806,81.6146 109.473,78.9479 108.5,76.5C 108.672,75.5084 108.338,74.8417 107.5,74.5C 107.443,73.391 107.11,72.391 106.5,71.5 Z"/></g>
<g><path style="opacity:1" fill="#bd9f63" d="M 69.5,77.5 C 68.8902,78.391 68.5569,79.391 68.5,80.5C 67.5386,82.2646 67.2053,84.2646 67.5,86.5C 66.5489,85.0813 66.2155,83.4147 66.5,81.5C 63.8333,81.5 61.1667,81.5 58.5,81.5C 58.6741,79.139 59.0074,76.8056 59.5,74.5C 62.8333,74.5 66.1667,74.5 69.5,74.5C 69.5,75.5 69.5,76.5 69.5,77.5 Z"/></g>
<g><path style="opacity:0.834" fill="#cbb678" d="M 57.5,84.5 C 57.8333,84.5 58.1667,84.5 58.5,84.5C 58.8782,86.921 59.5448,89.2543 60.5,91.5C 59.791,92.404 58.791,92.7373 57.5,92.5C 55.7073,90.5739 54.7073,88.2406 54.5,85.5C 55.791,85.7373 56.791,85.404 57.5,84.5 Z"/></g>
<g><path style="opacity:0.823" fill="#cbb577" d="M 108.5,76.5 C 109.473,78.9479 109.806,81.6146 109.5,84.5C 110.5,84.5 111.5,84.5 112.5,84.5C 112.585,87.6489 111.585,90.3155 109.5,92.5C 108.167,92.5 106.833,92.5 105.5,92.5C 106.441,90.9505 107.107,89.2838 107.5,87.5C 108.482,84.0381 108.815,80.3714 108.5,76.5 Z"/></g>
<g><path style="opacity:1" fill="#b7995e" d="M 58.5,81.5 C 61.1667,81.5 63.8333,81.5 66.5,81.5C 66.2155,83.4147 66.5489,85.0813 67.5,86.5C 68.3627,88.4214 69.0293,90.4214 69.5,92.5C 67.5043,90.6668 65.171,90.1668 62.5,91C 63.2524,91.6708 63.5858,92.5041 63.5,93.5C 62.5,92.8333 61.5,92.1667 60.5,91.5C 59.5448,89.2543 58.8782,86.921 58.5,84.5C 58.5,83.5 58.5,82.5 58.5,81.5 Z"/></g>
<g><path style="opacity:1" fill="#b29559" d="M 69.5,92.5 C 71.3947,93.973 73.0613,95.6397 74.5,97.5C 74.8333,98.1667 75.1667,98.8333 75.5,99.5C 73.4418,98.0669 71.1085,97.4003 68.5,97.5C 68.5,98.5 68.5,99.5 68.5,100.5C 66.4525,98.4504 64.7859,96.117 63.5,93.5C 63.5858,92.5041 63.2524,91.6708 62.5,91C 65.171,90.1668 67.5043,90.6668 69.5,92.5 Z"/></g>
<g><path style="opacity:1" fill="#b5975c" d="M 107.5,87.5 C 107.107,89.2838 106.441,90.9505 105.5,92.5C 104.167,93.8333 102.833,95.1667 101.5,96.5C 99.3906,94.0243 97.0573,94.0243 94.5,96.5C 96.6805,93.4723 98.3472,90.139 99.5,86.5C 100.434,85.4324 100.768,84.099 100.5,82.5C 102.833,82.5 105.167,82.5 107.5,82.5C 107.5,84.1667 107.5,85.8333 107.5,87.5 Z"/></g>
<g><path style="opacity:0.815" fill="#c9b474" d="M 68.5,80.5 C 68.5,82.1667 68.5,83.8333 68.5,85.5C 69.5,85.5 70.5,85.5 71.5,85.5C 73.3287,89.8282 75.662,93.8282 78.5,97.5C 77.1667,97.5 75.8333,97.5 74.5,97.5C 73.0613,95.6397 71.3947,93.973 69.5,92.5C 69.0293,90.4214 68.3627,88.4214 67.5,86.5C 67.2053,84.2646 67.5386,82.2646 68.5,80.5 Z"/></g>
<g><path style="opacity:0.826" fill="#c9b374" d="M 98.5,80.5 C 99.4614,82.2646 99.7947,84.2646 99.5,86.5C 98.3472,90.139 96.6805,93.4723 94.5,96.5C 93.5,97.1667 92.5,97.8333 91.5,98.5C 90.791,97.596 89.791,97.2627 88.5,97.5C 90.8333,93.5 93.1667,89.5 95.5,85.5C 96.5,85.5 97.5,85.5 98.5,85.5C 98.5,83.8333 98.5,82.1667 98.5,80.5 Z"/></g>
<g><path style="opacity:0.846" fill="#c5b06e" d="M 60.5,91.5 C 61.5,92.1667 62.5,92.8333 63.5,93.5C 64.7859,96.117 66.4525,98.4504 68.5,100.5C 68.5,100.833 68.5,101.167 68.5,101.5C 67.4324,102.434 66.099,102.768 64.5,102.5C 62.1414,99.1486 59.8081,95.8153 57.5,92.5C 58.791,92.7373 59.791,92.404 60.5,91.5 Z"/></g>
<g><path style="opacity:0.835" fill="#c5b16e" d="M 105.5,92.5 C 106.833,92.5 108.167,92.5 109.5,92.5C 107.312,96.2071 104.645,99.5405 101.5,102.5C 100.209,102.737 99.209,102.404 98.5,101.5C 99.2485,99.6675 100.248,98.0009 101.5,96.5C 102.833,95.1667 104.167,93.8333 105.5,92.5 Z"/></g>
<g><path style="opacity:0.826" fill="#c3ae6b" d="M 74.5,97.5 C 75.8333,97.5 77.1667,97.5 78.5,97.5C 80.4788,98.8121 82.1455,100.479 83.5,102.5C 84.8545,100.479 86.5212,98.8121 88.5,97.5C 89.791,97.2627 90.791,97.596 91.5,98.5C 90.7515,100.332 89.7515,101.999 88.5,103.5C 87.3593,105.229 85.6926,106.229 83.5,106.5C 82.5,106.333 81.5,106.167 80.5,106C 78.9697,103.648 77.3031,101.481 75.5,99.5C 75.1667,98.8333 74.8333,98.1667 74.5,97.5 Z"/></g>
<g><path style="opacity:1" fill="#ad9055" d="M 101.5,96.5 C 100.248,98.0009 99.2485,99.6675 98.5,101.5C 96.8058,102.527 95.4725,103.861 94.5,105.5C 94.5,104.5 94.5,103.5 94.5,102.5C 92.4352,102.517 90.4352,102.85 88.5,103.5C 89.7515,101.999 90.7515,100.332 91.5,98.5C 92.5,97.8333 93.5,97.1667 94.5,96.5C 97.0573,94.0243 99.3906,94.0243 101.5,96.5 Z"/></g>
<g><path style="opacity:1" fill="#a78b51" d="M 75.5,99.5 C 77.3031,101.481 78.9697,103.648 80.5,106C 81.5,106.167 82.5,106.333 83.5,106.5C 85.6926,106.229 87.3593,105.229 88.5,103.5C 90.4352,102.85 92.4352,102.517 94.5,102.5C 94.5,103.5 94.5,104.5 94.5,105.5C 93.8333,106.5 93.1667,107.5 92.5,108.5C 91.8333,109.167 91.1667,109.833 90.5,110.5C 88.6028,109.195 86.2695,108.529 83.5,108.5C 80.7305,108.529 78.3972,109.195 76.5,110.5C 75.8333,110.167 75.1667,109.833 74.5,109.5C 72.984,106.467 70.984,103.8 68.5,101.5C 68.5,101.167 68.5,100.833 68.5,100.5C 68.5,99.5 68.5,98.5 68.5,97.5C 71.1085,97.4003 73.4418,98.0669 75.5,99.5 Z"/></g>
<g><path style="opacity:0.82" fill="#c0ab65" d="M 68.5,101.5 C 70.984,103.8 72.984,106.467 74.5,109.5C 73.1667,109.5 71.8333,109.5 70.5,109.5C 68.5293,107.192 66.5293,104.858 64.5,102.5C 66.099,102.768 67.4324,102.434 68.5,101.5 Z"/></g>
<g><path style="opacity:0.809" fill="#c0ab65" d="M 98.5,101.5 C 99.209,102.404 100.209,102.737 101.5,102.5C 100.214,105.117 98.5475,107.45 96.5,109.5C 94.901,109.768 93.5676,109.434 92.5,108.5C 93.1667,107.5 93.8333,106.5 94.5,105.5C 95.4725,103.861 96.8058,102.527 98.5,101.5 Z"/></g>
<g><path style="opacity:0.745" fill="#bfab64" d="M 42.5,109.5 C 31.1667,109.5 19.8333,109.5 8.5,109.5C 8.80393,108.85 9.13727,108.183 9.5,107.5C 13.1667,107.167 16.8333,106.833 20.5,106.5C 28.1488,106.212 35.4821,107.212 42.5,109.5 Z"/></g>
<g><path style="opacity:0.745" fill="#bfab64" d="M 158.5,109.5 C 147.167,109.5 135.833,109.5 124.5,109.5C 131.518,107.212 138.851,106.212 146.5,106.5C 150.167,106.833 153.833,107.167 157.5,107.5C 157.863,108.183 158.196,108.85 158.5,109.5 Z"/></g>
<g><path style="opacity:0.898" fill="#bba65e" d="M 8.5,109.5 C 19.8333,109.5 31.1667,109.5 42.5,109.5C 51.4879,111.159 59.1546,115.159 65.5,121.5C 63.8333,121.5 62.1667,121.5 60.5,121.5C 58.3131,120.242 55.9798,119.242 53.5,118.5C 51.2062,116.612 48.5395,115.278 45.5,114.5C 41.7946,112.736 37.7946,111.569 33.5,111C 26.5,110.333 19.5,110.333 12.5,111C 11.536,112.725 10.8693,114.559 10.5,116.5C 10.5,116.833 10.5,117.167 10.5,117.5C 9.29208,118.234 7.95875,118.567 6.5,118.5C 6.75556,115.402 7.42222,112.402 8.5,109.5 Z"/></g>
<g><path style="opacity:0.898" fill="#bca75f" d="M 124.5,109.5 C 135.833,109.5 147.167,109.5 158.5,109.5C 159.578,112.402 160.244,115.402 160.5,118.5C 159.041,118.567 157.708,118.234 156.5,117.5C 156.5,117.167 156.5,116.833 156.5,116.5C 156.131,114.559 155.464,112.725 154.5,111C 147.167,110.333 139.833,110.333 132.5,111C 127.508,111.832 122.841,113.332 118.5,115.5C 116.046,116.227 113.713,117.227 111.5,118.5C 109.5,118.5 107.5,118.5 105.5,118.5C 110.864,113.653 117.198,110.653 124.5,109.5 Z"/></g>
<g><path style="opacity:1" fill="#a1854b" d="M 45.5,114.5 C 34.495,114.333 23.495,114.5 12.5,115C 11.9558,115.717 11.2891,116.217 10.5,116.5C 10.8693,114.559 11.536,112.725 12.5,111C 19.5,110.333 26.5,110.333 33.5,111C 37.7946,111.569 41.7946,112.736 45.5,114.5 Z"/></g>
<g><path style="opacity:1" fill="#9f834a" d="M 90.5,110.5 C 89.0787,113.009 87.4121,115.343 85.5,117.5C 84.8485,118.091 84.1818,118.757 83.5,119.5C 82.8182,118.757 82.1515,118.091 81.5,117.5C 79.5879,115.343 77.9213,113.009 76.5,110.5C 78.3972,109.195 80.7305,108.529 83.5,108.5C 86.2695,108.529 88.6028,109.195 90.5,110.5 Z"/></g>
<g><path style="opacity:1" fill="#a1854b" d="M 156.5,116.5 C 155.711,116.217 155.044,115.717 154.5,115C 142.474,114.251 130.474,114.418 118.5,115.5C 122.841,113.332 127.508,111.832 132.5,111C 139.833,110.333 147.167,110.333 154.5,111C 155.464,112.725 156.131,114.559 156.5,116.5 Z"/></g>
<g><path style="opacity:1" fill="#9a7e46" d="M 45.5,114.5 C 48.5395,115.278 51.2062,116.612 53.5,118.5C 39.1667,118.5 24.8333,118.5 10.5,118.5C 10.5,118.167 10.5,117.833 10.5,117.5C 10.5,117.167 10.5,116.833 10.5,116.5C 11.2891,116.217 11.9558,115.717 12.5,115C 23.495,114.5 34.495,114.333 45.5,114.5 Z"/></g>
<g><path style="opacity:0.842" fill="#baa65d" d="M 70.5,109.5 C 71.8333,109.5 73.1667,109.5 74.5,109.5C 75.1667,109.833 75.8333,110.167 76.5,110.5C 77.9213,113.009 79.5879,115.343 81.5,117.5C 80.4324,118.434 79.099,118.768 77.5,118.5C 74.8154,115.81 72.4821,112.81 70.5,109.5 Z"/></g>
<g><path style="opacity:0.84" fill="#baa65d" d="M 92.5,108.5 C 93.5676,109.434 94.901,109.768 96.5,109.5C 94.5179,112.81 92.1846,115.81 89.5,118.5C 87.901,118.768 86.5676,118.434 85.5,117.5C 87.4121,115.343 89.0787,113.009 90.5,110.5C 91.1667,109.833 91.8333,109.167 92.5,108.5 Z"/></g>
<g><path style="opacity:1" fill="#9a7f46" d="M 156.5,116.5 C 156.5,116.833 156.5,117.167 156.5,117.5C 156.5,117.833 156.5,118.167 156.5,118.5C 141.452,118.199 126.452,118.532 111.5,119.5C 111.5,119.167 111.5,118.833 111.5,118.5C 113.713,117.227 116.046,116.227 118.5,115.5C 130.474,114.418 142.474,114.251 154.5,115C 155.044,115.717 155.711,116.217 156.5,116.5 Z"/></g>
<g><path style="opacity:1" fill="#977b43" d="M 10.5,118.5 C 24.8333,118.5 39.1667,118.5 53.5,118.5C 55.9798,119.242 58.3131,120.242 60.5,121.5C 60.8333,122.167 61.1667,122.833 61.5,123.5C 60.0783,123.291 58.745,122.791 57.5,122C 41.5035,121.5 25.5035,121.333 9.5,121.5C 9.55688,120.391 9.89022,119.391 10.5,118.5 Z"/></g>
<g><path style="opacity:0.84" fill="#b69f57" d="M 81.5,117.5 C 82.1515,118.091 82.8182,118.757 83.5,119.5C 84.1818,118.757 84.8485,118.091 85.5,117.5C 86.5676,118.434 87.901,118.768 89.5,118.5C 87.7345,121.029 85.7345,123.362 83.5,125.5C 80.7915,123.734 78.7915,121.401 77.5,118.5C 79.099,118.768 80.4324,118.434 81.5,117.5 Z"/></g>
<g><path style="opacity:1" fill="#977b43" d="M 156.5,118.5 C 157.11,119.391 157.443,120.391 157.5,121.5C 141.497,121.333 125.497,121.5 109.5,122C 107.922,123.094 106.255,123.928 104.5,124.5C 106.296,122.1 108.63,120.433 111.5,119.5C 126.452,118.532 141.452,118.199 156.5,118.5 Z"/></g>
<g><path style="opacity:1" fill="#947840" d="M 9.5,121.5 C 25.5035,121.333 41.5035,121.5 57.5,122C 58.745,122.791 60.0783,123.291 61.5,123.5C 62.8333,124.167 63.8333,125.167 64.5,126.5C 57.4921,126.334 50.4921,126.5 43.5,127C 45.3197,127.2 46.653,128.034 47.5,129.5C 46.8333,129.5 46.1667,129.5 45.5,129.5C 40.7181,127.672 35.7181,126.338 30.5,125.5C 23.6866,124.509 16.6866,124.175 9.5,124.5C 9.5,123.5 9.5,122.5 9.5,121.5 Z"/></g>
<g><path style="opacity:1" fill="#937740" d="M 157.5,121.5 C 157.5,122.5 157.5,123.5 157.5,124.5C 149.648,124.175 141.982,124.508 134.5,125.5C 130.022,125.882 125.689,126.882 121.5,128.5C 120.167,128.833 118.833,129.167 117.5,129.5C 111.63,128.234 105.63,128.234 99.5,129.5C 100.167,128.5 100.833,127.5 101.5,126.5C 102.5,125.833 103.5,125.167 104.5,124.5C 106.255,123.928 107.922,123.094 109.5,122C 125.497,121.5 141.497,121.333 157.5,121.5 Z"/></g>
<g><path style="opacity:0.854" fill="#b39b53" d="M 60.5,121.5 C 62.1667,121.5 63.8333,121.5 65.5,121.5C 67.5,122.833 69.1667,124.5 70.5,126.5C 68.8333,126.5 67.1667,126.5 65.5,126.5C 65.1667,126.5 64.8333,126.5 64.5,126.5C 63.8333,125.167 62.8333,124.167 61.5,123.5C 61.1667,122.833 60.8333,122.167 60.5,121.5 Z"/></g>
<g><path style="opacity:0.853" fill="#b49c54" d="M 105.5,118.5 C 107.5,118.5 109.5,118.5 111.5,118.5C 111.5,118.833 111.5,119.167 111.5,119.5C 108.63,120.433 106.296,122.1 104.5,124.5C 103.5,125.167 102.5,125.833 101.5,126.5C 99.8333,126.5 98.1667,126.5 96.5,126.5C 98.8797,123.119 101.88,120.453 105.5,118.5 Z"/></g>
<g><path style="opacity:1" fill="#9c8145" d="M 9.5,121.5 C 9.5,122.5 9.5,123.5 9.5,124.5C 16.6866,124.175 23.6866,124.509 30.5,125.5C 23.1667,125.5 15.8333,125.5 8.5,125.5C 8.23219,123.901 8.56552,122.568 9.5,121.5 Z"/></g>
<g><path style="opacity:1" fill="#9c8145" d="M 157.5,121.5 C 158.434,122.568 158.768,123.901 158.5,125.5C 150.5,125.5 142.5,125.5 134.5,125.5C 141.982,124.508 149.648,124.175 157.5,124.5C 157.5,123.5 157.5,122.5 157.5,121.5 Z"/></g>
<g><path style="opacity:0.865" fill="#b29850" d="M 10.5,117.5 C 10.5,117.833 10.5,118.167 10.5,118.5C 9.89022,119.391 9.55688,120.391 9.5,121.5C 8.56552,122.568 8.23219,123.901 8.5,125.5C 15.8333,125.5 23.1667,125.5 30.5,125.5C 35.7181,126.338 40.7181,127.672 45.5,129.5C 41.5,129.5 37.5,129.5 33.5,129.5C 23.5,129.5 13.5,129.5 3.5,129.5C 3.74241,125.521 4.74241,121.854 6.5,118.5C 7.95875,118.567 9.29208,118.234 10.5,117.5 Z"/></g>
<g><path style="opacity:0.865" fill="#b29850" d="M 156.5,117.5 C 157.708,118.234 159.041,118.567 160.5,118.5C 162.258,121.854 163.258,125.521 163.5,129.5C 153.5,129.5 143.5,129.5 133.5,129.5C 129.298,129.817 125.298,129.483 121.5,128.5C 125.689,126.882 130.022,125.882 134.5,125.5C 142.5,125.5 150.5,125.5 158.5,125.5C 158.768,123.901 158.434,122.568 157.5,121.5C 157.443,120.391 157.11,119.391 156.5,118.5C 156.5,118.167 156.5,117.833 156.5,117.5 Z"/></g>
<g><path style="opacity:1" fill="#8f733c" d="M 64.5,126.5 C 64.8333,126.5 65.1667,126.5 65.5,126.5C 68.1667,129.5 70.8333,132.5 73.5,135.5C 73.5,135.833 73.5,136.167 73.5,136.5C 69.8015,134.494 65.8015,133.994 61.5,135C 62.056,135.383 62.3893,135.883 62.5,136.5C 60.9382,136.267 59.6049,135.6 58.5,134.5C 54.9523,132.559 51.2857,130.893 47.5,129.5C 46.653,128.034 45.3197,127.2 43.5,127C 50.4921,126.5 57.4921,126.334 64.5,126.5 Z"/></g>
<g><path style="opacity:0.777" fill="#af924c" d="M 33.5,129.5 C 37.5,129.5 41.5,129.5 45.5,129.5C 46.1667,129.5 46.8333,129.5 47.5,129.5C 51.2857,130.893 54.9523,132.559 58.5,134.5C 56.7354,135.461 54.7354,135.795 52.5,135.5C 46.1997,133.065 39.8664,131.065 33.5,129.5 Z"/></g>
<g><path style="opacity:0.809" fill="#af934d" d="M 65.5,126.5 C 67.1667,126.5 68.8333,126.5 70.5,126.5C 73.8615,128.895 76.5281,131.895 78.5,135.5C 76.8333,135.5 75.1667,135.5 73.5,135.5C 70.8333,132.5 68.1667,129.5 65.5,126.5 Z"/></g>
<g><path style="opacity:0.808" fill="#af934d" d="M 96.5,126.5 C 98.1667,126.5 99.8333,126.5 101.5,126.5C 100.833,127.5 100.167,128.5 99.5,129.5C 97.1667,131.167 95.1667,133.167 93.5,135.5C 91.8333,135.5 90.1667,135.5 88.5,135.5C 90.4719,131.895 93.1385,128.895 96.5,126.5 Z"/></g>
<g><path style="opacity:0.778" fill="#ae914b" d="M 121.5,128.5 C 125.298,129.483 129.298,129.817 133.5,129.5C 127.134,131.065 120.8,133.065 114.5,135.5C 112.265,135.795 110.265,135.461 108.5,134.5C 111.552,133.029 114.552,131.362 117.5,129.5C 118.833,129.167 120.167,128.833 121.5,128.5 Z"/></g>
<g><path style="opacity:1" fill="#8d713b" d="M 117.5,129.5 C 114.552,131.362 111.552,133.029 108.5,134.5C 107.5,135.167 106.5,135.833 105.5,136.5C 104.306,135.223 102.64,134.556 100.5,134.5C 97.8368,134.319 95.5034,134.985 93.5,136.5C 93.5,136.167 93.5,135.833 93.5,135.5C 95.1667,133.167 97.1667,131.167 99.5,129.5C 105.63,128.234 111.63,128.234 117.5,129.5 Z"/></g>
<g><path style="opacity:0.817" fill="#ab8c47" d="M 58.5,134.5 C 59.6049,135.6 60.9382,136.267 62.5,136.5C 63.3065,137.728 64.3065,138.728 65.5,139.5C 64.0813,140.451 62.4147,140.784 60.5,140.5C 57.7972,138.819 55.1305,137.153 52.5,135.5C 54.7354,135.795 56.7354,135.461 58.5,134.5 Z"/></g>
<g><path style="opacity:0.818" fill="#ab8c47" d="M 108.5,134.5 C 110.265,135.461 112.265,135.795 114.5,135.5C 111.869,137.153 109.203,138.819 106.5,140.5C 104.585,140.784 102.919,140.451 101.5,139.5C 102.795,138.512 104.128,137.512 105.5,136.5C 106.5,135.833 107.5,135.167 108.5,134.5 Z"/></g>
<g><path style="opacity:1" fill="#876b35" d="M 73.5,136.5 C 76.2971,138.795 78.9638,141.295 81.5,144C 83.1667,144.667 84.8333,144.667 86.5,144C 88.3329,141.002 90.6662,138.502 93.5,136.5C 95.5034,134.985 97.8368,134.319 100.5,134.5C 102.64,134.556 104.306,135.223 105.5,136.5C 104.128,137.512 102.795,138.512 101.5,139.5C 98.5,142.167 95.5,144.833 92.5,147.5C 89.9134,146.184 86.9134,145.517 83.5,145.5C 80.5,145.667 77.5,145.833 74.5,146C 75.2524,146.671 75.5858,147.504 75.5,148.5C 72.1667,145.5 68.8333,142.5 65.5,139.5C 64.3065,138.728 63.3065,137.728 62.5,136.5C 62.3893,135.883 62.056,135.383 61.5,135C 65.8015,133.994 69.8015,134.494 73.5,136.5 Z"/></g>
<g><path style="opacity:0.926" fill="#aa8a45" d="M 73.5,136.5 C 73.5,136.167 73.5,135.833 73.5,135.5C 75.1667,135.5 76.8333,135.5 78.5,135.5C 80.4788,136.812 82.1455,138.479 83.5,140.5C 84.8545,138.479 86.5212,136.812 88.5,135.5C 90.1667,135.5 91.8333,135.5 93.5,135.5C 93.5,135.833 93.5,136.167 93.5,136.5C 90.6662,138.502 88.3329,141.002 86.5,144C 84.8333,144.667 83.1667,144.667 81.5,144C 78.9638,141.295 76.2971,138.795 73.5,136.5 Z"/></g>
<g><path style="opacity:1" fill="#806631" d="M 92.5,147.5 C 91.7659,148.708 91.4326,150.041 91.5,151.5C 91.5,151.833 91.5,152.167 91.5,152.5C 90.596,151.791 90.2627,150.791 90.5,149.5C 85.8333,149.5 81.1667,149.5 76.5,149.5C 76.7373,150.791 76.404,151.791 75.5,152.5C 75.5,152.167 75.5,151.833 75.5,151.5C 75.5,150.5 75.5,149.5 75.5,148.5C 75.5858,147.504 75.2524,146.671 74.5,146C 77.5,145.833 80.5,145.667 83.5,145.5C 86.9134,145.517 89.9134,146.184 92.5,147.5 Z"/></g>
<g><path style="opacity:0.462" fill="#a5833f" d="M 65.5,139.5 C 68.8333,142.5 72.1667,145.5 75.5,148.5C 75.5,149.5 75.5,150.5 75.5,151.5C 69.5,151.5 63.5,151.5 57.5,151.5C 61.6472,150.675 65.9805,150.175 70.5,150C 67.3674,146.604 64.0341,143.438 60.5,140.5C 62.4147,140.784 64.0813,140.451 65.5,139.5 Z"/></g>
<g><path style="opacity:0.462" fill="#a5833f" d="M 101.5,139.5 C 102.919,140.451 104.585,140.784 106.5,140.5C 102.966,143.438 99.6326,146.604 96.5,150C 101.019,150.175 105.353,150.675 109.5,151.5C 103.5,151.5 97.5,151.5 91.5,151.5C 91.4326,150.041 91.7659,148.708 92.5,147.5C 95.5,144.833 98.5,142.167 101.5,139.5 Z"/></g>
<g><path style="opacity:0.984" fill="#a17e3b" d="M 57.5,151.5 C 63.5,151.5 69.5,151.5 75.5,151.5C 75.5,151.833 75.5,152.167 75.5,152.5C 75.0825,153.222 74.4158,153.722 73.5,154C 69.3123,154.176 65.3123,154.676 61.5,155.5C 60.2921,156.234 58.9587,156.567 57.5,156.5C 57.5,154.833 57.5,153.167 57.5,151.5 Z"/></g>
<g><path style="opacity:1" fill="#7d622d" d="M 91.5,152.5 C 91.6107,153.117 91.944,153.617 92.5,154C 97.0195,154.175 101.353,154.675 105.5,155.5C 105.5,157.167 105.5,158.833 105.5,160.5C 90.8333,160.5 76.1667,160.5 61.5,160.5C 61.5,158.833 61.5,157.167 61.5,155.5C 65.3123,154.676 69.3123,154.176 73.5,154C 74.4158,153.722 75.0825,153.222 75.5,152.5C 76.404,151.791 76.7373,150.791 76.5,149.5C 81.1667,149.5 85.8333,149.5 90.5,149.5C 90.2627,150.791 90.596,151.791 91.5,152.5 Z"/></g>
<g><path style="opacity:0.984" fill="#a07e3b" d="M 91.5,151.5 C 97.5,151.5 103.5,151.5 109.5,151.5C 109.5,153.167 109.5,154.833 109.5,156.5C 108.041,156.567 106.708,156.234 105.5,155.5C 101.353,154.675 97.0195,154.175 92.5,154C 91.944,153.617 91.6107,153.117 91.5,152.5C 91.5,152.167 91.5,151.833 91.5,151.5 Z"/></g>
<g><path style="opacity:0.993" fill="#9b7936" d="M 61.5,155.5 C 61.5,157.167 61.5,158.833 61.5,160.5C 76.1667,160.5 90.8333,160.5 105.5,160.5C 105.5,158.833 105.5,157.167 105.5,155.5C 106.708,156.234 108.041,156.567 109.5,156.5C 109.5,158.833 109.5,161.167 109.5,163.5C 92.1667,163.5 74.8333,163.5 57.5,163.5C 57.5,161.167 57.5,158.833 57.5,156.5C 58.9587,156.567 60.2921,156.234 61.5,155.5 Z"/></g>
</svg>
