<?xml version="1.0" encoding="UTF-8"?>
<!DOCTYPE svg PUBLIC "-//W3C//DTD SVG 1.1//EN" "http://www.w3.org/Graphics/SVG/1.1/DTD/svg11.dtd">
<svg xmlns="http://www.w3.org/2000/svg" version="1.1" width="136px" height="136px" style="shape-rendering:geometricPrecision; text-rendering:geometricPrecision; image-rendering:optimizeQuality; fill-rule:evenodd; clip-rule:evenodd" xmlns:xlink="http://www.w3.org/1999/xlink">
<g><path style="opacity:0.742" fill="#775a27" d="M 15.5,15.5 C 46.1685,15.3334 76.8351,15.5 107.5,16C 102.5,21 97.5,26 92.5,31C 72.1694,31.5 51.8361,31.6666 31.5,31.5C 31.6666,51.8361 31.5,72.1694 31,92.5C 26,97.5 21,102.5 16,107.5C 15.5,76.8351 15.3334,46.1685 15.5,15.5 Z"/></g>
<g><path style="opacity:0.986" fill="#c7aa6d" d="M 118.5,22.5 C 119.498,54.6624 119.832,86.9957 119.5,119.5C 87.1649,119.667 54.8316,119.5 22.5,119C 28.8641,112.301 35.5308,105.968 42.5,100C 61.4971,99.5001 80.4971,99.3334 99.5,99.5C 99.3334,80.4971 99.5001,61.4971 100,42.5C 106.005,35.6628 112.171,28.9962 118.5,22.5 Z"/></g>
<g><path style="opacity:0.749" fill="#775a27" d="M 51.5,51.5 C 60.8333,51.5 70.1667,51.5 79.5,51.5C 79.5,60.8333 79.5,70.1667 79.5,79.5C 70.1667,79.5 60.8333,79.5 51.5,79.5C 51.5,70.1667 51.5,60.8333 51.5,51.5 Z"/></g>
</svg>
