<?xml version="1.0" encoding="UTF-8"?>
<!DOCTYPE svg PUBLIC "-//W3C//DTD SVG 1.1//EN" "http://www.w3.org/Graphics/SVG/1.1/DTD/svg11.dtd">
<svg xmlns="http://www.w3.org/2000/svg" version="1.1" width="436px" height="491px" style="shape-rendering:geometricPrecision; text-rendering:geometricPrecision; image-rendering:optimizeQuality; fill-rule:evenodd; clip-rule:evenodd" xmlns:xlink="http://www.w3.org/1999/xlink">
<g><path style="opacity:0.963" fill="#c6a96c" d="M 352.5,-0.5 C 353.167,-0.5 353.833,-0.5 354.5,-0.5C 309.32,81.8839 286.82,170.217 287,264.5C 284.174,267.484 281.841,270.817 280,274.5C 275.742,284.863 272.408,295.53 270,306.5C 267.546,281.016 260.879,256.683 250,233.5C 244.526,221.414 238.86,209.414 233,197.5C 232.333,195.5 232.333,193.5 233,191.5C 254.885,116.009 294.718,52.009 352.5,-0.5 Z"/></g>
<g><path style="opacity:0.981" fill="#c6a96c" d="M 225.5,490.5 C 224.833,490.5 224.167,490.5 223.5,490.5C 204.335,462.482 182.335,436.649 157.5,413C 126.763,384.068 93.9299,357.901 59,334.5C 64.7061,264.986 48.3727,201.32 10,143.5C 6.71816,139.241 3.21816,135.241 -0.5,131.5C -0.5,130.833 -0.5,130.167 -0.5,129.5C 47.2432,149.79 87.4098,180.123 120,220.5C 127.945,231.385 134.612,243.051 140,255.5C 145.018,215.532 143.018,175.865 134,136.5C 123.346,90.537 108.346,46.2037 89,3.5C 143.793,72.8822 186.627,149.382 217.5,233C 237.105,286.795 246.271,342.295 245,399.5C 244.18,431.102 237.68,461.436 225.5,490.5 Z"/></g>
<g><path style="opacity:0.971" fill="#c6a96c" d="M 435.5,129.5 C 435.5,130.167 435.5,130.833 435.5,131.5C 400.045,182.022 380.545,238.355 377,300.5C 376.667,312.833 376.333,325.167 376,337.5C 347.928,362.784 319.761,387.951 291.5,413C 290.552,413.483 289.552,413.649 288.5,413.5C 284.434,340.238 302.6,273.238 343,212.5C 364.629,181.87 391.129,156.37 422.5,136C 426.577,133.295 430.91,131.128 435.5,129.5 Z"/></g>
</svg>
