<?xml version="1.0" encoding="UTF-8"?>
<!DOCTYPE svg PUBLIC "-//W3C//DTD SVG 1.1//EN" "http://www.w3.org/Graphics/SVG/1.1/DTD/svg11.dtd">
<svg xmlns="http://www.w3.org/2000/svg" version="1.1" width="136px" height="136px" style="shape-rendering:geometricPrecision; text-rendering:geometricPrecision; image-rendering:optimizeQuality; fill-rule:evenodd; clip-rule:evenodd" xmlns:xlink="http://www.w3.org/1999/xlink">
<g><path style="opacity:0.986" fill="#c0aa7e" d="M 111.5,16.5 C 84.8333,16.5 58.1667,16.5 31.5,16.5C 28.8333,16.5 26.1667,16.5 23.5,16.5C 21.1667,16.5 18.8333,16.5 16.5,16.5C 16.5,48.1667 16.5,79.8333 16.5,111.5C 15.5006,80.2401 15.1673,48.2401 15.5,15.5C 48.2401,15.1673 80.2401,15.5006 111.5,16.5 Z"/></g>
<g><path style="opacity:0.993" fill="#c6aa6e" d="M 23.5,16.5 C 23.5,18.8333 23.5,21.1667 23.5,23.5C 26.1667,23.5 28.8333,23.5 31.5,23.5C 31.5,21.1667 31.5,18.8333 31.5,16.5C 58.1667,16.5 84.8333,16.5 111.5,16.5C 105.671,23.1624 99.3373,29.329 92.5,35C 73.5029,35.4999 54.5029,35.6666 35.5,35.5C 35.6666,54.5029 35.4999,73.5029 35,92.5C 29.329,99.3373 23.1624,105.671 16.5,111.5C 16.5,79.8333 16.5,48.1667 16.5,16.5C 18.8333,16.5 21.1667,16.5 23.5,16.5 Z"/></g>
<g><path style="opacity:1" fill="#c8aa6d" d="M 23.5,16.5 C 26.1667,16.5 28.8333,16.5 31.5,16.5C 31.5,18.8333 31.5,21.1667 31.5,23.5C 28.8333,23.5 26.1667,23.5 23.5,23.5C 23.5,21.1667 23.5,18.8333 23.5,16.5 Z"/></g>
<g><path style="opacity:0.749" fill="#775a27" d="M 117.5,29.5 C 118.498,58.9953 118.831,88.662 118.5,118.5C 88.662,118.831 58.9953,118.498 29.5,117.5C 33.6299,112.869 37.9633,108.369 42.5,104C 62.8306,103.5 83.1639,103.333 103.5,103.5C 103.333,83.1639 103.5,62.8306 104,42.5C 108.369,37.9633 112.869,33.6299 117.5,29.5 Z"/></g>
<g><path style="opacity:0.749" fill="#785924" d="M 107.5,49.5 C 108.832,59.4777 109.499,69.811 109.5,80.5C 109.167,90.8333 108.833,101.167 108.5,111.5C 107.5,90.8441 107.167,70.1774 107.5,49.5 Z"/></g>
<g><path style="opacity:0.749" fill="#715a34" d="M 55.5,55.5 C 64.8333,55.5 74.1667,55.5 83.5,55.5C 83.5,64.8333 83.5,74.1667 83.5,83.5C 74.1667,83.5 64.8333,83.5 55.5,83.5C 55.5,74.1667 55.5,64.8333 55.5,55.5 Z"/></g>
<g><path style="opacity:0.749" fill="#785927" d="M 56.5,56.5 C 65.1667,56.5 73.8333,56.5 82.5,56.5C 82.5,65.1667 82.5,73.8333 82.5,82.5C 73.8333,82.5 65.1667,82.5 56.5,82.5C 56.5,73.8333 56.5,65.1667 56.5,56.5 Z"/></g>
<g><path style="opacity:0.749" fill="#775a24" d="M 45.5,104.5 C 53.8222,105.076 62.1556,105.743 70.5,106.5C 62.5208,107.665 54.5208,107.832 46.5,107C 45.7476,106.329 45.4142,105.496 45.5,104.5 Z"/></g>
<g><path style="opacity:0.749" fill="#765b24" d="M 80.5,105.5 C 85.544,105.173 90.544,105.506 95.5,106.5C 93,106.833 90.5,107.167 88,107.5C 85.0706,107.475 82.5706,106.809 80.5,105.5 Z"/></g>
<g><path style="opacity:0.749" fill="#715a34" d="M 29.5,117.5 C 58.9953,118.498 88.662,118.831 118.5,118.5C 118.831,88.662 118.498,58.9953 117.5,29.5C 117.783,28.7109 118.283,28.0442 119,27.5C 119.5,58.1649 119.667,88.8315 119.5,119.5C 88.8315,119.667 58.1649,119.5 27.5,119C 28.0442,118.283 28.7109,117.783 29.5,117.5 Z"/></g>
</svg>
